<?xml version="1.0" encoding="UTF-8"?>
<svg id="Layer_2" data-name="Layer 2" xmlns="http://www.w3.org/2000/svg" viewBox="0 0 36.9 211.47">
  <defs>
    <style>
      .cls-1 {
        fill: #231f20;
      }
    </style>
  </defs>
  <g id="Layer_1-2" data-name="Layer 1">
    <g>
      <text/>
      <path class="cls-1" d="M24.28,211.47v-.04c0-1.42-.4-2.3-1.2-2.61-.21-.12-.62-.26-1.29-.46-.88-.4-1.53-1.05-1.89-1.94-.24-.46-.35-1.43-.35-2.91v-2.59h-.65c-3.15.99-4.98,1.55-5.84,1.81v-1.74c.49-.16,1.56-.47,2.78-.83.47-.16,2.33-.75,5.48-1.71v5.54c0,1.49.32,2.36.98,2.64.16.19.73.29.96.32.75.1,1.36.14,1.93.14,3,0,3.34-.08,3.55-.3.29-.11.59-.4.83-.82.24-.55.35-1.02.35-1.44,0,0-.03-3.24-.03-3.96l1.77,1.54v2.51c0,1.65-.67,2.88-2,3.66-.65.36-1.28.53-1.93.53h-2.28l.22.66c.12.36.19,1.03.2,2h-1.58ZM24.91,201.92v-1.81h1.79v1.81h-1.79Z"/>
      <path class="cls-1" d="M24.31,197.07v-.52c0-1.52-.89-2.07-1.42-2.26-.02-.04-.29-.28-2.79-.28h-5.84c-1.41,0-2.48-.71-3.29-2.18-.39-.87-.59-1.72-.59-2.57v-.47c0-1.07.33-2.12,1.01-3.2.48-.67,1.13-1.14,1.93-1.37.32-.09.82-.14,1.48-.14h6.15c1.48,0,2.34-.28,2.71-.87.4-.36.64-.96.64-1.65v-.52h1.6v.19c0,1.83-.48,3.04-1.48,3.7-.26.22-.61.4-1.07.56-.42.12-.51.37-.51.56v.05l.02.1c.32.75.47,1.62.47,2.71v.26c0,1.09-.15,1.99-.46,2.73l-.28.69h.75c.84.3,1.57.87,2.01,1.62.36.64.54,1.55.54,2.7v.17h-1.6ZM15.37,185.84c-1.09,0-2,.54-2.7,1.61-.29.56-.43,1.07-.43,1.56,0,1.2.51,2.11,1.56,2.79.48.31,1.08.47,1.84.47h2.5c1.65,0,2.78-.83,3.29-2.4.07-.27.09-.51.11-.76,0-1.24-.56-2.2-1.68-2.88-.49-.26-1-.39-1.49-.39h-2.99ZM4.22,191.88v-1.78h1.79v1.78h-1.79ZM4.22,188.05v-1.78h1.79v1.78h-1.79Z"/>
      <path class="cls-1" d="M24.28,180.69v-.08c0-1.38-.38-2.21-1.17-2.54-.2-.19-.75-.42-2.78-.42h-7.29v-1.76h8.94c.99,0,1.68-.57,2.01-1.64.08-.45.11-.76.11-1.06v-2.91h-.57l-.11.02c-.7.27-1.54.4-2.56.4h-10.54v-1.78h10.7c1.45,0,2.33-.32,2.69-.97.37-.34.57-.94.57-1.75v-.31h1.58v7.11c0,1.54-.37,2.69-1.1,3.43l-.34.34.32.35c.48.53.78,1.03.88,1.5.14.38.22,1.06.23,2.06h-1.58ZM29.76,173.64v-1.78h1.79v1.78h-1.79Z"/>
      <path class="cls-1" d="M29.81,166.78v-.5c0-1.46-.72-2.06-1.32-2.29-.41-.17-1.05-.25-1.94-.25H10.3v-1.76h10.56c1.6,0,2.54-.34,2.86-1.04.34-.34.54-.83.54-1.41v-.59h1.58v.34c0,.78-.1,1.45-.31,2.03l-.23.67h1.23c2.47,0,4.04.79,4.67,2.34.25.54.37,1.33.37,2.34v.12h-1.76ZM3.55,163.79v-1.79h1.79v1.79h-1.79Z"/>
      <path class="cls-1" d="M29.92,146.21v-8.52c0-1.28-.37-2.1-1.12-2.51-.29-.18-.64-.27-1.03-.27h-3.22c-1.6,0-2.54.35-2.86,1.07-.23.38-.36.93-.36,1.56v.23c.02.32.04.6.04.82v3.19c-1.46-.45-7.15-2.21-8.22-2.54v-1.75s6.45,1.99,6.45,1.99v-2.19c0-1.86.5-3.03,1.5-3.48.27-.17.78-.33,1.56-.49h0c.29,0,.67-.25,1.05-.72.39-.38.6-.94.6-1.6v-.52h1.6v.24c0,.73-.07,1.33-.21,1.79l-.19.64h2.18c1.08,0,2.07.43,2.96,1.28.66.77,1.01,1.78,1.01,2.98v10.12l-1.74-1.32ZM35.1,143.58v-1.79h1.79v1.79h-1.79ZM35.1,139.75v-1.79h1.79v1.79h-1.79Z"/>
      <path class="cls-1" d="M24.31,130.52v-.57c0-1.06-.47-1.81-1.37-2.17-.16-.14-.64-.32-2.54-.32H4.92v-1.76h6.63v-3.08h1.78v3.08h7.72c1.51,0,2.4-.34,2.72-1.03.23-.34.36-.85.36-1.49v-1.3c0-1.58-.84-2.16-1.54-2.36-.4-.11-.95-.16-1.63-.16h-3.38v-1.76h3.3c1.1,0,2.04.13,2.77.38l.66.23v-2.64h1.6v7.43c0,1.46-.36,2.53-1.1,3.27l-.36.36.37.35c.73.69,1.09,1.78,1.09,3.22v.33h-1.6Z"/>
      <path class="cls-1" d="M1.62,114.79v-7.84h24.28v7.84H1.62ZM5.32,108.53c-.91,0-1.57.48-1.91,1.38-.11.34-.17.66-.17.93,0,1.08.44,1.83,1.31,2.23.33.1.56.13.79.13h16.84c.98,0,1.68-.54,1.97-1.52.08-.25.13-.52.13-.79,0-1.1-.44-1.85-1.32-2.23-.29-.09-.53-.13-.76-.13H5.32Z"/>
      <path class="cls-1" d="M1.62,102.36v-7.84h24.28v7.84H1.62ZM5.32,96.1c-.91,0-1.57.48-1.91,1.38-.11.34-.17.66-.17.93,0,1.08.44,1.83,1.31,2.23.33.1.56.13.79.13h16.84c.98,0,1.68-.54,1.97-1.52.08-.25.13-.52.13-.79,0-1.1-.44-1.85-1.32-2.23-.29-.09-.53-.13-.76-.13H5.32Z"/>
      <path class="cls-1" d="M29.87,95.8v-.41c0-1.11-.35-1.87-1.04-2.26-.41-.24-1.05-.35-2.02-.35H10.41v-4.04c0-2.14.88-3.51,2.7-4.17.46-.15.88-.23,1.16-.23.79,0,3.11,0,6.95-.02,1.33,0,2.17-.33,2.57-1.02.34-.36.53-.88.53-1.5v-.52h1.6v.15c0,1.53-.33,2.64-1,3.3-.53.51-.97.82-1.35.93-.43.17-.71.27-.71.64v.06l.02.11c.31.67.45,1.38.45,2.16v2.38h3.37c2.3,0,3.83.74,4.52,2.2.28.55.42,1.42.43,2.61h-1.78ZM14.3,86.12c-.97,0-1.65.54-1.99,1.56-.1.3-.15.61-.15.98v2.35h9.42v-1.77c0-1.33-.22-2.12-.7-2.5-.35-.41-1.17-.62-2.47-.62h-4.11Z"/>
      <path class="cls-1" d="M24.26,80.81v-.59c-.15-1.22-.72-1.98-1.71-2.29-.5-.11-1.04-.16-1.66-.16h-10.54v-1.76h10.47c1.65,0,2.57-.33,2.9-1.03.33-.28.54-.81.54-1.42v-.59h1.58v.41c0,1.36-.35,2.4-1.08,3.17l-.32.35.33.34c.71.74,1.07,1.81,1.07,3.17v.4h-1.58ZM5.94,77.75v-1.78h1.78v1.78h-1.78Z"/>
      <path class="cls-1" d="M24.26,74.25v-.55c0-1.11-.51-1.9-1.44-2.23-.38-.17-.95-.26-1.73-.26-1.25,0-2.8,0-4.64.02-.8-.02-1.57-.02-2.3-.02-.79-.08-1.52-.33-2.13-.73-1.09-.79-1.65-2.03-1.65-3.69v-2.22H0v-1.76c5.12,0,12.26,0,21.37-.02,1.19,0,2.05-.35,2.55-1.05.23-.42.34-.91.34-1.47v-.52h1.58v.43c0,1.95-.77,3.27-2.29,3.94l-.3.13v2.7c0,.78-.14,1.49-.43,2.11l-.24.51.54.17c1.01.33,1.72.86,2.13,1.57.39.67.58,1.53.58,2.62v.33h-1.58ZM12.11,66.86c0,1.21.44,2.02,1.31,2.42.27.11.54.17.82.17h4.24c1.4,0,2.28-.33,2.68-1.02.24-.37.35-1,.35-1.97v-1.95l-.54.05c-.17.02-.31.02-.39.02h-8.47v2.29Z"/>
      <path class="cls-1" d="M29.81,48.94v-.5c0-1.46-.72-2.06-1.32-2.29-.41-.17-1.05-.25-1.94-.25H10.3v-1.76h10.56c1.6,0,2.54-.34,2.86-1.04.34-.34.54-.83.54-1.41v-.59h1.58v.34c0,.78-.1,1.45-.31,2.03l-.23.67h1.23c2.47,0,4.04.79,4.67,2.34.25.54.37,1.33.37,2.34v.12h-1.76ZM3.55,45.95v-1.79h1.79v1.79h-1.79Z"/>
      <path class="cls-1" d="M24.31,40.1v-.52c0-1.52-.89-2.07-1.42-2.26-.02-.04-.29-.28-2.79-.28h-5.84c-1.41,0-2.48-.71-3.29-2.18-.39-.87-.59-1.72-.59-2.57v-.47c0-1.07.33-2.12,1.01-3.2.48-.67,1.13-1.14,1.93-1.37.32-.09.82-.14,1.48-.14h6.15c1.48,0,2.34-.28,2.71-.87.4-.36.64-.96.64-1.65v-.52h1.6v.19c0,1.83-.48,3.04-1.48,3.7-.26.22-.61.4-1.07.56-.42.12-.51.37-.51.56v.05l.02.1c.32.75.47,1.62.47,2.71v.26c0,1.09-.15,1.99-.46,2.73l-.28.69h.75c.84.3,1.57.87,2.01,1.62.36.64.54,1.55.54,2.7v.17h-1.6ZM15.37,28.87c-1.09,0-2,.54-2.7,1.61-.29.56-.43,1.07-.43,1.56,0,1.2.51,2.11,1.56,2.79.48.31,1.08.47,1.84.47h2.5c1.65,0,2.78-.83,3.29-2.4.07-.27.09-.51.11-.76,0-1.24-.56-2.2-1.68-2.88-.49-.26-1-.39-1.49-.39h-2.99ZM4.22,34.91v-1.78h1.79v1.78h-1.79ZM4.22,31.08v-1.78h1.79v1.78h-1.79Z"/>
      <path class="cls-1" d="M24.31,23.77v-.52c0-1.52-.89-2.07-1.42-2.26-.02-.04-.29-.28-2.79-.28h-5.84c-1.41,0-2.48-.71-3.29-2.18-.39-.87-.59-1.72-.59-2.57v-.47c0-1.07.33-2.12,1.01-3.2.48-.67,1.13-1.14,1.93-1.37.32-.09.82-.14,1.48-.14h6.15c1.48,0,2.34-.28,2.71-.87.4-.36.64-.96.64-1.65v-.52h1.6v.19c0,1.83-.48,3.04-1.48,3.7-.26.22-.61.4-1.07.56-.42.12-.51.37-.51.56v.05l.02.1c.32.75.47,1.62.47,2.71v.26c0,1.09-.15,1.99-.46,2.73l-.28.69h.75c.84.3,1.57.87,2.01,1.62.36.64.54,1.55.54,2.7v.17h-1.6ZM15.37,12.54c-1.09,0-2,.54-2.7,1.61-.29.56-.43,1.07-.43,1.56,0,1.2.51,2.11,1.56,2.79.48.31,1.08.47,1.84.47h2.5c1.65,0,2.78-.83,3.29-2.4.07-.27.09-.51.11-.76,0-1.24-.56-2.2-1.68-2.88-.49-.26-1-.39-1.49-.39h-2.99ZM4.22,18.58v-1.78h1.79v1.78h-1.79ZM4.22,14.75v-1.78h1.79v1.78h-1.79Z"/>
      <path class="cls-1" d="M29.81,7.84v-.5c0-1.46-.72-2.06-1.32-2.29-.41-.17-1.05-.25-1.94-.25H10.3v-1.76h10.56c1.6,0,2.54-.34,2.86-1.04.34-.34.54-.83.54-1.41v-.59h1.58v.34c0,.78-.1,1.45-.31,2.03l-.23.67h1.23c2.47,0,4.04.79,4.67,2.34.25.54.37,1.33.37,2.34v.12h-1.76ZM3.55,4.85v-1.79h1.79v1.79h-1.79Z"/>
    </g>
  </g>
</svg>