<svg width="323" height="119" viewBox="0 0 323 119" fill="none" xmlns="http://www.w3.org/2000/svg">
<path d="M4.625 103.875V0H6.125V103.875H4.625ZM7.625 103.875V0H9.125V103.875H7.625ZM4.125 118.625C2.79167 118.625 1.79167 118.083 1.125 117C0.375 115.917 0 114.417 0 112.5C0 110.917 0.208333 109.583 0.625 108.5C0.958333 107.417 1.5 106.625 2.25 106.125C2.91667 105.542 3.70833 105.25 4.625 105.25C5.70833 105.25 6.66667 105.625 7.5 106.375L6.5 107.625L6.375 107.5C6.375 107.417 6.33333 107.292 6.25 107.125C6.16667 107.042 6.04167 106.958 5.875 106.875C5.625 106.625 5.25 106.5 4.75 106.5C4.25 106.5 3.75 106.667 3.25 107C2.83333 107.25 2.41667 107.75 2 108.5C1.66667 109.25 1.5 110.292 1.5 111.625C1.75 111.125 2.125 110.708 2.625 110.375C3.125 110.125 3.66667 110 4.25 110C4.91667 110 5.5 110.167 6 110.5C6.58333 110.917 7.04167 111.458 7.375 112.125C7.70833 112.708 7.875 113.417 7.875 114.25C7.875 115.167 7.70833 115.958 7.375 116.625C7.04167 117.208 6.58333 117.708 6 118.125C5.41667 118.458 4.79167 118.625 4.125 118.625ZM4.125 117.375C4.79167 117.375 5.33333 117.083 5.75 116.5C6.16667 116 6.375 115.292 6.375 114.375C6.375 113.708 6.29167 113.125 6.125 112.625C5.875 112.208 5.58333 111.875 5.25 111.625C4.91667 111.375 4.54167 111.25 4.125 111.25C3.625 111.25 3.16667 111.417 2.75 111.75C2.25 112.083 1.875 112.5 1.625 113C1.54167 113.25 1.5 113.458 1.5 113.625C1.5 114.208 1.625 114.792 1.875 115.375C2.04167 115.958 2.33333 116.417 2.75 116.75C3.16667 117.167 3.625 117.375 4.125 117.375ZM91.0625 12.5V71.625C91.0625 82.0417 87.9167 90.2292 81.625 96.1875C75.3333 102.146 66.6042 105.125 55.4375 105.125C44.3958 105.125 35.8333 102.125 29.75 96.125C23.6667 90.0833 20.625 81.8333 20.625 71.375V12.5H32.1875V71.75C32.1875 79.2083 34.1667 84.9792 38.125 89.0625C42.125 93.1458 48.125 95.1875 56.125 95.1875C63.6667 95.1875 69.4583 93.1667 73.5 89.125C77.5833 85.0833 79.625 79.25 79.625 71.625V12.5H91.0625ZM107.25 103.875V0H110.25V103.875H107.25ZM111.75 103.875V0H113.25V103.875H111.75ZM108 105.25C109.25 105.25 110.25 105.875 111 107.125C111.667 108.292 112 109.917 112 112C112 114.167 111.667 115.833 111 117C110.333 118.167 109.333 118.75 108 118.75C106.667 118.75 105.667 118.167 105 117C104.333 115.833 104 114.167 104 112C104 109.917 104.333 108.292 105 107.125C105.75 105.875 106.75 105.25 108 105.25ZM108 106.625C107.167 106.625 106.542 107.083 106.125 108C105.708 109 105.5 110.333 105.5 112C105.5 112.917 105.542 113.708 105.625 114.375L110.125 108.625C109.875 107.958 109.583 107.458 109.25 107.125C108.917 106.792 108.5 106.625 108 106.625ZM108 117.375C108.833 117.375 109.458 116.917 109.875 116C110.292 115.083 110.5 113.75 110.5 112C110.5 111.167 110.458 110.458 110.375 109.875L106 115.5C106.417 116.75 107.083 117.375 108 117.375ZM116.375 103.875V0H117.75V103.875H116.375ZM122.375 103.875V0H123.75V103.875H122.375ZM116.5 118.5C117.75 114.5 119.083 110.583 120.5 106.75H114.875V105.375H122.375V106.25C120.625 110.583 119.208 114.667 118.125 118.5H116.5ZM126.75 103.875V0H128.25V103.875H126.75ZM129.75 103.875V0H134.25V103.875H129.75ZM128.875 105.25C129.708 105.25 130.458 105.5 131.125 106C131.708 106.5 132.167 107.167 132.5 108C132.833 108.833 133 109.792 133 110.875C133 113.458 132.625 115.375 131.875 116.625C131.042 117.958 129.917 118.625 128.5 118.625C127.25 118.625 126.208 118.25 125.375 117.5L126.5 116.25L126.625 116.375C126.625 116.542 126.625 116.667 126.625 116.75C126.708 116.833 126.833 116.917 127 117C127.417 117.25 127.875 117.375 128.375 117.375C129.375 117.375 130.125 116.917 130.625 116C131.125 115.083 131.417 113.917 131.5 112.5C131.167 112.833 130.792 113.083 130.375 113.25C129.958 113.417 129.5 113.5 129 113.5C128.25 113.5 127.583 113.333 127 113C126.417 112.667 125.958 112.208 125.625 111.625C125.292 111.042 125.125 110.333 125.125 109.5C125.125 108.75 125.292 108.042 125.625 107.375C125.958 106.708 126.417 106.208 127 105.875C127.583 105.458 128.208 105.25 128.875 105.25ZM129 112.25C129.583 112.25 130.083 112.167 130.5 112C130.917 111.833 131.25 111.542 131.5 111.125C131.5 109.625 131.292 108.5 130.875 107.75C130.458 107 129.833 106.625 129 106.625C128.25 106.625 127.667 106.875 127.25 107.375C126.833 107.875 126.625 108.583 126.625 109.5C126.625 110.333 126.833 111 127.25 111.5C127.75 112 128.333 112.25 129 112.25ZM135.75 103.875V0H137.25V103.875H135.75ZM141.75 103.875V0H144.75V103.875H141.75ZM140.875 115.25H135.25V114.125L141.25 105.375H142.5V114H144.125V115.25H142.5V118.5H140.875V115.25ZM140.875 114V108L137 114H140.875ZM147.875 103.875V0H149.25V103.875H147.875ZM153.875 103.875V0H155.25V103.875H153.875ZM148 118.5C149.25 114.5 150.583 110.583 152 106.75H146.375V105.375H153.875V106.25C152.125 110.583 150.708 114.667 149.625 118.5H148ZM158.375 103.875V0H161.25V103.875H158.375ZM164.375 103.875V0H165.75V103.875H164.375ZM160.125 107.125L157.375 108L157.125 107.125L160.5 105.375H161.5V118.5H160.125V107.125ZM170.25 103.875V0H173.25V103.875H170.25ZM174.75 103.875V0H176.25V103.875H174.75ZM171 105.25C172.25 105.25 173.25 105.875 174 107.125C174.667 108.292 175 109.917 175 112C175 114.167 174.667 115.833 174 117C173.333 118.167 172.333 118.75 171 118.75C169.667 118.75 168.667 118.167 168 117C167.333 115.833 167 114.167 167 112C167 109.917 167.333 108.292 168 107.125C168.75 105.875 169.75 105.25 171 105.25ZM171 106.625C170.167 106.625 169.542 107.083 169.125 108C168.708 109 168.5 110.333 168.5 112C168.5 112.917 168.542 113.708 168.625 114.375L173.125 108.625C172.875 107.958 172.583 107.458 172.25 107.125C171.917 106.792 171.5 106.625 171 106.625ZM171 117.375C171.833 117.375 172.458 116.917 172.875 116C173.292 115.083 173.5 113.75 173.5 112C173.5 111.167 173.458 110.458 173.375 109.875L169 115.5C169.417 116.75 170.083 117.375 171 117.375ZM179.375 103.875V0H180.75V103.875H179.375ZM183.875 103.875V0H186.75V103.875H183.875ZM177.75 117.25L179.5 115.5C180.583 114.417 181.417 113.542 182 112.875C182.583 112.208 183.042 111.583 183.375 111C183.708 110.333 183.875 109.667 183.875 109C183.875 108.167 183.667 107.542 183.25 107.125C182.833 106.792 182.292 106.625 181.625 106.625C180.625 106.625 179.75 107.042 179 107.875C178.833 108.125 178.75 108.333 178.75 108.5C178.75 108.583 178.75 108.625 178.75 108.625V108.75L178.5 108.625L177.5 107.875C177.917 107.042 178.5 106.417 179.25 106C179.917 105.5 180.708 105.25 181.625 105.25C182.792 105.25 183.708 105.583 184.375 106.25C185.042 106.917 185.375 107.833 185.375 109C185.375 109.75 185.208 110.5 184.875 111.25C184.542 111.917 184.083 112.583 183.5 113.25C182.917 113.917 182.125 114.75 181.125 115.75L179.625 117.125H184.5C184.75 117.125 184.917 117.125 185 117.125C185.167 117.125 185.292 117.083 185.375 117H185.5V118.5H177.75V117.25ZM188.25 103.875V0H189.75V103.875H188.25ZM192.75 103.875V0H197.25V103.875H192.75ZM192 105.25C193.25 105.25 194.25 105.875 195 107.125C195.667 108.292 196 109.917 196 112C196 114.167 195.667 115.833 195 117C194.333 118.167 193.333 118.75 192 118.75C190.667 118.75 189.667 118.167 189 117C188.333 115.833 188 114.167 188 112C188 109.917 188.333 108.292 189 107.125C189.75 105.875 190.75 105.25 192 105.25ZM192 106.625C191.167 106.625 190.542 107.083 190.125 108C189.708 109 189.5 110.333 189.5 112C189.5 112.917 189.542 113.708 189.625 114.375L194.125 108.625C193.875 107.958 193.583 107.458 193.25 107.125C192.917 106.792 192.5 106.625 192 106.625ZM192 117.375C192.833 117.375 193.458 116.917 193.875 116C194.292 115.083 194.5 113.75 194.5 112C194.5 111.167 194.458 110.458 194.375 109.875L190 115.5C190.417 116.75 191.083 117.375 192 117.375ZM200.375 103.875V0H201.75V103.875H200.375ZM204.875 103.875V0H207.75V103.875H204.875ZM198.75 117.25L200.5 115.5C201.583 114.417 202.417 113.542 203 112.875C203.583 112.208 204.042 111.583 204.375 111C204.708 110.333 204.875 109.667 204.875 109C204.875 108.167 204.667 107.542 204.25 107.125C203.833 106.792 203.292 106.625 202.625 106.625C201.625 106.625 200.75 107.042 200 107.875C199.833 108.125 199.75 108.333 199.75 108.5C199.75 108.583 199.75 108.625 199.75 108.625V108.75L199.5 108.625L198.5 107.875C198.917 107.042 199.5 106.417 200.25 106C200.917 105.5 201.708 105.25 202.625 105.25C203.792 105.25 204.708 105.583 205.375 106.25C206.042 106.917 206.375 107.833 206.375 109C206.375 109.75 206.208 110.5 205.875 111.25C205.542 111.917 205.083 112.583 204.5 113.25C203.917 113.917 203.125 114.75 202.125 115.75L200.625 117.125H205.5C205.75 117.125 205.917 117.125 206 117.125C206.167 117.125 206.292 117.083 206.375 117H206.5V118.5H198.75V117.25ZM209.125 103.875V0H212.25V103.875H209.125ZM215.125 103.875V0H218.25V103.875H215.125ZM212.625 107.125L209.875 108L209.625 107.125L213 105.375H214V118.5H212.625V107.125ZM300.188 12.5V71.625C300.188 82.0417 297.042 90.2292 290.75 96.1875C284.458 102.146 275.729 105.125 264.562 105.125C253.521 105.125 244.958 102.125 238.875 96.125C232.792 90.0833 229.75 81.8333 229.75 71.375V12.5H241.312V71.75C241.312 79.2083 243.292 84.9792 247.25 89.0625C251.25 93.1458 257.25 95.1875 265.25 95.1875C272.792 95.1875 278.583 93.1667 282.625 89.125C286.708 85.0833 288.75 79.25 288.75 71.625V12.5H300.188ZM315 103.875V0H317.875V103.875H315ZM321 103.875V0H322.375V103.875H321ZM316.75 107.125L314 108L313.75 107.125L317.125 105.375H318.125V118.5H316.75V107.125Z" fill="#F3F5C6"/>
</svg>
