<?xml version="1.0" encoding="UTF-8"?>
<svg id="Layer_2" data-name="Layer 2" xmlns="http://www.w3.org/2000/svg" viewBox="0 0 240 240">
  <defs>
    <style>
      .cls-1 {
        fill: #fff;
      }

      .cls-2 {
        fill: #242021;
      }
    </style>
  </defs>
  <g id="Layer_1-2" data-name="Layer 1">
    <g>
      <rect class="cls-2" width="240" height="240"/>
      <path class="cls-1" d="M195.41,148.36c4.98,5.32,6.47,12.64,6.08,21.52-.35,8.11-.58,16.27-.54,24.43-.25-.14-.51-.27-.77-.39-3.07-1.54-6.74-2.31-10.95-2.33-5.08-.02-10.14.03-15.22.07-7.69.06-15.4.11-23.08-.07-1.64-.03-3.27-.07-4.91-.13-12.55-.46-21.33,4.52-25.68,18.73-4.26-14.73-13.52-19.21-26.2-18.74-9.31.35-18.67.27-28.01.21,10.67-10.92,21.59-21.6,32.43-32.33,2.4-2.38,5.5-3.91,8.19-5.98,1.03-.81,2.6-1.89,3.47-2.8-.29-3.02-.61-4.99-1.36-6.28-.06-.12-.13-.22-.21-.32-.03-.07-.06-.13-.13-.19-1.46-1.86-4.26-1.92-10.25-2.07-.94-.02-1.89-.09-4.63-.22,2.66-.98,4.94-2.15,6.9-3.53,2.46-2.9,4.73-5.6,7.41-8.76.02-.03.03-.08.05-.11-1.95-.58-3.19-.83-4.33-1.32-9.2-3.97-11.01-12.42-3.91-19.87,8.48-8.91,17.24-17.51,26.08-25.98,6.74-6.44,6.83-14.63,5.3-23.01-.4-2.21-3.43-3.87-5.25-5.77-1.36,2.28-4.07,4.77-3.82,6.8,1.38,10.84-3.6,17.52-10.56,24.13-11.21,10.66-21.82,22.09-32.46,33.46-2.35,2.49-3.76,2.24-5.83.14-10.63-10.81-21.27-21.58-31.95-32.32-2.16-2.18-3.76-4.55-4.75-7.23v-35.87c1.58-.28,3.23-.42,4.99-.42,14.19-.05,28.39.39,42.56-.14,8.23-.3,15.03,1.48,19.95,6.81,2.65,2.86,4.75,6.76,6.24,11.93.48-1.57,1.01-3.01,1.6-4.36,4.72-10.87,12.92-14.77,24.08-14.36,14.36.51,28.77.08,43.16.13h.06c7.06.03,12.61,2.25,16.4,6.38,3.72,4.07,5.74,10.01,5.76,17.52.02,15.72-.53,31.47.17,47.17.53,12.92-2.46,22.81-14.71,27.96-.7.3-1.43.57-2.2.84,4.7,1.65,8.23,3.89,10.8,6.66Z"/>
    </g>
  </g>
</svg>