<?xml version="1.0" encoding="UTF-8"?>
<svg id="Layer_2" data-name="Layer 2" xmlns="http://www.w3.org/2000/svg" viewBox="0 0 241 241">
  <defs>
    <style>
      .cls-1 {
        fill: #fff;
      }

      .cls-2 {
        fill: #242021;
        stroke: #000;
        stroke-miterlimit: 10;
      }
    </style>
  </defs>
  <g id="Layer_1-2" data-name="Layer 1">
    <g>
      <rect class="cls-2" x=".5" y=".5" width="240" height="240"/>
      <path class="cls-1" d="M40.18,203.58c-1.11-6.82-.42-13.68-.46-20.52-.12-18.01.13-36.03-.16-54.04-.07-4.57.95-6.48,5.7-5.72,2.08.33,4.26.06,6.64-.34-9.99-4.63-12.66-12.68-12.32-22.8.41-12.43.03-24.88.12-37.32.08-12.39,7.43-19.65,19.82-19.69,12.44-.04,24.89.31,37.32-.11,11.11-.38,19.24,3.21,22.96,15.05,3.81-11.41,11.51-15.41,22.51-15.05,12.61.41,25.25.06,37.88.11,12.32.04,19.4,7.05,19.43,19.2.03,12.63-.44,25.28.15,37.88.51,10.97-2.45,19.22-14.81,23.15,12.05,3.86,15.32,11.79,14.8,22.63-.57,11.67-.73,23.43.05,35.08.75,11.18-3.54,18.4-13.67,22.52h-53.48c-4.63-3.05-9.39-5.94-12.05-11.31-.67,4.04-1.11,7.68-.2,11.31H40.18ZM119.86,107.92c-2.02,7.49-6.18,12.42-14.62,15.24,2.4.11,3.23.16,4.05.18q9.9.22,10.76,10.12c.03.38.57.73,1.19,1.46,2.03-5.91,6.91-8.61,12.36-11.92-7.56-2.79-11.8-7.6-13.73-15.08Z"/>
    </g>
    <path class="cls-1" d="M160.91,141.29c.04,4.04-.6,6.19-5.06,5.31-4.02-.8-6.04.61-5.18,5.07.81,4.16-.71,5.39-5.03,5.34-17.68-.23-35.38-.09-53.07-.16.19-.04.39-.07.59-.1-10-4.63-12.66-12.68-12.33-22.8.42-12.43.04-24.88.12-37.33.09-12.39,7.43-19.65,19.83-19.69,12.44-.04,24.89.31,37.32-.11,10.85-.36,18.87,3.06,22.7,14.26.14,16.74-.05,33.47.11,50.21Z"/>
  </g>
</svg>