<svg width="649" height="205" viewBox="0 0 649 205" fill="none" xmlns="http://www.w3.org/2000/svg">
<path d="M525.55 73.1834L503.119 46.3432L500.395 48.1618C495.326 51.59 491.82 54.6838 489.877 57.443C487.976 60.2023 487.025 63.2751 487.025 66.6615C487.025 71.5111 488.63 75.5455 491.841 78.7647C495.093 81.9838 499.149 83.5934 504.006 83.5934C507.47 83.5934 510.934 82.7573 514.398 81.085C517.862 79.4127 521.579 76.7788 525.55 73.1834ZM506.985 35.0553L511.04 32.735C513.912 30.9791 516.067 28.9933 517.503 26.7775C518.981 24.5617 519.721 22.1369 519.721 19.503C519.721 16.3675 518.728 13.8591 516.742 11.9777C514.757 10.0546 512.117 9.09305 508.822 9.09305C505.612 9.09305 502.993 10.0964 500.965 12.1032C498.937 14.1099 497.924 16.6601 497.924 19.7539C497.924 21.3007 498.198 22.8058 498.747 24.269C499.339 25.7323 500.184 27.091 501.282 28.3452L506.985 35.0553ZM540.63 91.3068L531.696 80.646C527.599 84.7431 523.206 87.8368 518.517 89.9272C513.828 91.9757 508.822 93 503.5 93C495.305 93 488.673 90.5961 483.604 85.7883C478.535 80.9804 476 74.7303 476 67.0378C476 61.561 477.753 56.5024 481.259 51.8618C484.807 47.1794 490.151 42.8105 497.29 38.7552L493.488 34.5536C491.461 32.1706 489.961 29.7458 488.989 27.2792C488.018 24.8125 487.532 22.1369 487.532 19.2522C487.532 13.5664 489.496 8.94673 493.425 5.39312C497.396 1.79771 502.528 0 508.822 0C515.201 0 520.291 1.7559 524.093 5.2677C527.937 8.7795 529.859 13.441 529.859 19.2522C529.859 23.7674 528.507 27.8645 525.803 31.5435C523.142 35.1807 518.876 38.7552 513.004 42.267L533.217 66.4107C534.907 64.5711 536.66 62.4808 538.476 60.1396C540.292 57.7566 542.214 55.0809 544.242 52.1126L551.022 59.4498C549.206 62.1672 547.305 64.7175 545.319 67.1005C543.376 69.4417 541.327 71.6365 539.173 73.6851L554 91.3068H540.63Z" fill="white"/>
<path d="M415.419 91V12.0915H396V2H443V12.0915H423.675V91H415.419Z" fill="white"/>
<path d="M379.495 41.9818C383.965 44.4705 387.326 47.7752 389.577 51.8958C391.859 56.0165 393 60.8919 393 66.5221C393 74.7635 390.984 81.4136 386.951 86.4727C382.949 91.4909 377.635 94 371.008 94C365.599 94 361.067 92.2049 357.409 88.6146C353.751 84.9835 351.282 79.8429 350 73.1927L357.409 68.4193C358.409 73.8455 360.051 77.9661 362.333 80.7813C364.646 83.5556 367.538 84.9427 371.008 84.9427C375.103 84.9427 378.417 83.4128 380.949 80.3529C383.481 77.2522 384.747 73.2335 384.747 68.2969C384.747 64.2986 383.856 60.8307 382.074 57.8932C380.324 54.9149 377.666 52.4058 374.103 50.3659L365.756 45.7148C361.192 43.2261 357.784 40.0234 355.533 36.1068C353.314 32.1901 352.204 27.4983 352.204 22.0313C352.204 15.6667 354.017 10.4036 357.643 6.24219C361.27 2.08073 365.896 0 371.523 0C375.65 0 379.214 1.14236 382.215 3.42708C385.247 5.71181 387.607 9.07769 389.296 13.5247L382.543 19.1549C381.011 15.6871 379.292 13.1168 377.385 11.444C375.478 9.73047 373.321 8.8737 370.914 8.8737C367.85 8.8737 365.334 10.0977 363.364 12.5456C361.426 14.9935 360.457 18.1146 360.457 21.9089C360.457 25.0911 361.207 27.8451 362.708 30.1706C364.208 32.4961 366.537 34.5564 369.695 36.3516L379.495 41.9818Z" fill="white"/>
<path d="M285 2H293.219V57.7631C293.219 66.8224 294.682 73.4739 297.608 77.7179C300.565 81.9619 305.188 84.0838 311.477 84.0838C317.765 84.0838 322.372 81.9619 325.299 77.7179C328.256 73.4739 329.735 66.8224 329.735 57.7631V2H338V57.7631C338 69.8829 335.79 78.9625 331.369 85.002C326.98 91.0007 320.349 94 311.477 94C302.636 94 296.005 91.0007 291.584 85.002C287.195 78.9625 285 69.8829 285 57.7631V2Z" fill="white"/>
<path d="M223.213 81.0301H228.393C236.793 81.0301 242.611 80.564 245.847 79.6318C249.082 78.6592 251.773 77.0178 253.92 74.7077C256.72 71.668 258.851 67.7571 260.313 62.9747C261.776 58.1519 262.507 52.64 262.507 46.4392C262.507 40.1979 261.776 34.7265 260.313 30.0253C258.882 25.2835 256.751 21.3725 253.92 18.2924C251.773 15.9417 249.036 14.2801 245.707 13.3074C242.409 12.2942 236.638 11.7876 228.393 11.7876H223.213V81.0301ZM215 91V2H228.113C237.82 2 244.649 2.64845 248.6 3.94536C252.582 5.20173 256.067 7.32946 259.053 10.3286C262.973 14.2598 265.944 19.2853 267.967 25.4051C269.989 31.5248 271 38.5767 271 46.5608C271 54.5043 269.989 61.536 267.967 67.6557C265.976 73.735 263.004 78.7402 259.053 82.6714C256.067 85.6705 252.66 87.8185 248.833 89.1154C245.038 90.3718 239.111 91 231.053 91H228.113H215Z" fill="white"/>
<path d="M127 91L148.157 43.7036L128.41 2H138.237L153 35.8613L167.246 2H176.555L157.043 44.6762L179 91H169.362L152.389 52.64L136.309 91H127Z" fill="white"/>
<path d="M87.5 83.9635C91.234 83.9635 94.7813 83.0456 98.1419 81.2096C101.534 79.3329 104.583 76.6198 107.29 73.0703C109.966 69.5616 112.004 65.5838 113.405 61.1367C114.805 56.6897 115.505 51.9774 115.505 47C115.505 41.9818 114.789 37.2083 113.358 32.6797C111.958 28.151 109.935 24.1528 107.29 20.6849C104.614 17.1762 101.58 14.5039 98.1886 12.668C94.828 10.832 91.2651 9.91406 87.5 9.91406C83.7038 9.91406 80.1098 10.832 76.718 12.668C73.3263 14.5039 70.3235 17.1762 67.7097 20.6849C65.0337 24.2344 62.9955 28.253 61.5953 32.7409C60.195 37.2287 59.4949 41.9818 59.4949 47C59.4949 51.9774 60.1795 56.6693 61.5486 61.0755C62.9488 65.4818 65.0026 69.48 67.7097 73.0703C70.448 76.6606 73.4819 79.3737 76.8114 81.2096C80.172 83.0456 83.7349 83.9635 87.5 83.9635ZM124 47C124 53.4054 123.098 59.4436 121.293 65.1146C119.488 70.7856 116.859 75.8242 113.405 80.2305C109.951 84.6367 105.968 88.0434 101.456 90.4505C96.9751 92.8168 92.3231 94 87.5 94C82.6769 94 78.0249 92.8168 73.5441 90.4505C69.0944 88.0434 65.1426 84.6367 61.6886 80.2305C58.2035 75.7834 55.5431 70.7244 53.7072 65.0534C51.9024 59.3824 51 53.3646 51 47C51 40.5946 51.9024 34.5564 53.7072 28.8854C55.5431 23.1736 58.2035 18.0942 61.6886 13.6471C65.1115 9.28168 69.0633 5.9158 73.5441 3.54948C78.0249 1.18316 82.6769 0 87.5 0C92.3542 0 97.0217 1.18316 101.503 3.54948C106.014 5.9158 109.982 9.28168 113.405 13.6471C116.859 18.0534 119.488 23.1124 121.293 28.8242C123.098 34.4952 124 40.5538 124 47Z" fill="white"/>
<path d="M0 91V2H14.4746C19.5684 2 20.6124 2.34449 23.0169 3.03347C25.4531 3.68192 27.5412 4.81671 29.2814 6.43784C31.496 8.54531 33.2045 11.2607 34.4068 14.584C35.6407 17.8668 36.2576 21.4738 36.2576 25.4051C36.2576 30.1063 35.3717 34.0376 33.6 37.1988C31.8599 40.36 32.0181 42.5688 28.6644 43.8251C32.7774 44.6357 36.0203 47.0066 38.3932 50.9378C40.7977 54.8286 42 59.7527 42 65.7104C42 69.2769 41.4938 72.6812 40.4814 75.9235C39.4689 79.1658 38.061 81.9419 36.2576 84.2521C34.296 86.7243 31.8757 88.467 28.9966 89.4802C26.1175 90.4934 21.2768 91 14.4746 91H0ZM8.0678 49.2964V81.7596H14.4746C18.8723 81.7596 22.0362 81.5367 23.9661 81.0909C25.9277 80.645 27.4938 79.875 28.6644 78.7807C30.0881 77.4838 31.2113 75.6803 32.0339 73.3702C32.8565 71.0601 33.2678 68.5068 33.2678 65.7104C33.2678 62.4681 32.7774 59.6514 31.7966 57.2602C30.8158 54.8691 29.3921 53.0048 27.5254 51.6674C26.4181 50.8163 25.1367 50.2083 23.6814 49.8436C22.226 49.4788 19.9638 49.2964 16.8949 49.2964H14.4746H8.0678ZM8.0678 11.1796V40.9679H14.4746C20.3593 40.9679 21.7989 39.8736 24.2034 37.6851C26.6079 35.4966 27.8102 31.8085 27.8102 26.6209C27.8102 20.9064 26.687 16.9144 24.4407 14.6448C22.226 12.3347 20.7073 11.1796 14.4746 11.1796H8.0678Z" fill="white"/>
<path d="M507.236 175.7C526.406 175.661 540.406 174.313 549.238 171.658C558.069 168.963 562.484 164.766 562.484 159.064C562.484 153.48 558.23 149.321 549.722 146.588C541.322 143.854 528.398 142.488 510.952 142.488H507.236V175.7ZM422.91 201.883V116.129H491.728C513.59 116.129 532.222 116.578 547.622 117.476C563.13 118.335 575.731 119.682 585.423 121.518C605.886 125.423 621.555 130.597 632.433 137.04C643.418 143.483 648.91 150.825 648.91 159.064C648.91 167.265 643.472 174.567 632.594 180.971C621.717 187.376 605.993 192.55 585.423 196.494C575.408 198.368 562.7 199.735 547.299 200.594C531.898 201.453 511.275 201.883 485.428 201.883H422.91Z" fill="white"/>
<path d="M301.91 201.883V116.129H341.793L376.96 160.997C376.496 159.006 376.161 156.799 375.955 154.378C375.801 151.957 375.723 148.794 375.723 144.889V116.129H414.91V201.883H374.719L339.938 157.366C340.35 159.279 340.659 161.349 340.865 163.575C341.071 165.761 341.174 168.222 341.174 170.955V201.883H301.91Z" fill="white"/>
<path d="M244.878 175.586C249.607 175.586 253.398 174.136 256.252 171.234C259.149 168.294 260.597 164.405 260.597 159.569C260.597 154.695 259.149 150.787 256.252 147.847C253.398 144.868 249.607 143.378 244.878 143.378C240.15 143.378 236.337 144.868 233.441 147.847C230.544 150.826 229.095 154.733 229.095 159.569C229.095 164.405 230.544 168.294 233.441 171.234C236.337 174.136 240.15 175.586 244.878 175.586ZM294.91 159.569C294.91 165.798 293.696 171.602 291.268 176.979C288.84 182.318 285.283 187.096 280.597 191.313C275.911 195.453 270.501 198.626 264.367 200.831C258.275 203.036 251.779 204.139 244.878 204.139C237.892 204.139 231.353 203.036 225.262 200.831C219.17 198.626 213.76 195.414 209.032 191.197C204.388 187.096 200.874 182.376 198.488 177.037C196.103 171.698 194.91 165.876 194.91 159.569C194.91 153.263 196.103 147.421 198.488 142.043C200.874 136.666 204.388 131.926 209.032 127.825C213.717 123.647 219.106 120.474 225.198 118.308C231.289 116.103 237.849 115 244.878 115C251.907 115 258.467 116.103 264.559 118.308C270.65 120.474 276.06 123.647 280.789 127.825C285.389 131.965 288.882 136.724 291.268 142.101C293.696 147.479 294.91 153.302 294.91 159.569Z" fill="white"/>
<path d="M148.857 201.883V164.098L123.496 116.385H154.551L160.917 132.97C161.504 134.411 162.194 136.552 162.987 139.394C163.056 139.667 163.108 139.881 163.143 140.037C163.522 138.674 164.178 136.669 165.109 134.022C165.282 133.554 165.403 133.224 165.472 133.029L171.734 116.385H202.582L176.289 164.098V201.883H148.857Z" fill="white"/>
<path d="M74.2227 201.883V116.385H124.894V139.57H100.93V147.804H122.668V169.704H100.93V178.698H125.515V201.883H74.2227Z" fill="white"/>
<path d="M25.5684 167.076V180.742H30.123C32.849 180.742 34.9365 180.158 36.3857 178.99C37.8695 177.783 38.6113 176.089 38.6113 173.909C38.6113 171.69 37.8695 169.996 36.3857 168.828C34.9365 167.66 32.849 167.076 30.123 167.076H25.5684ZM25.5684 136.708V148.68H29.1396C31.348 148.68 33.0215 148.174 34.1602 147.162C35.3333 146.111 35.9199 144.612 35.9199 142.665C35.9199 140.718 35.3333 139.239 34.1602 138.226C33.0215 137.214 31.348 136.708 29.1396 136.708H25.5684ZM0 201.883V116.385H36.2822C44.0459 116.385 50.1016 118.448 54.4492 122.575C58.7969 126.663 60.9707 132.367 60.9707 139.686C60.9707 144.359 59.9355 148.252 57.8652 151.367C55.8294 154.442 52.931 156.447 49.1699 157.382C54.3112 158.589 58.1413 160.866 60.6602 164.215C63.179 167.563 64.4385 172.06 64.4385 177.705C64.4385 185.686 62.0404 191.721 57.2441 195.809C52.4824 199.858 45.4606 201.883 36.1787 201.883H0Z" fill="white"/>
</svg>
