<svg width="365" height="275" viewBox="0 0 365 275" fill="none" xmlns="http://www.w3.org/2000/svg">
<path d="M35.5802 113.041C35.0402 112.791 34.8502 111.611 34.7602 111.111C34.2802 108.401 34.8102 105.491 34.0902 102.831C33.2402 99.6607 31.3102 100.131 29.1102 102.131C28.2402 100.711 29.7502 99.9007 30.9902 99.1407C34.2902 97.1207 36.9802 97.1307 39.0002 93.4307C40.2602 91.1207 40.2102 84.1607 39.2402 81.7007C38.9802 81.0307 37.2302 77.9007 36.7002 77.6507C36.4302 77.3807 36.1902 77.5307 35.9902 77.7807C35.7102 78.1507 34.7902 82.2807 34.7302 82.9807C34.4602 85.8207 35.1002 88.6507 35.0002 91.4707C34.1802 91.1507 33.9702 90.2907 33.8802 89.5707C33.4202 85.9607 34.0402 81.3407 33.5302 77.7107C32.6802 71.6407 27.4002 66.0507 26.1002 59.5607C25.9902 59.0307 25.6202 58.1307 26.1602 57.7307C27.2302 61.2107 29.4202 64.4807 31.6902 67.4507C35.1002 71.8907 42.4902 78.6907 48.9402 78.3107C49.0302 78.3107 49.4402 79.3307 50.4702 78.7807L50.3202 79.5407L51.1402 79.7707C51.3702 78.6307 55.9902 76.9007 55.2402 75.9907C54.3302 76.5507 52.9602 76.7307 51.9302 76.3307C51.3702 76.1107 51.2502 75.0707 50.7502 74.5907C50.2502 74.1107 49.3702 74.0907 49.0602 73.4607C50.4702 73.3707 51.9402 74.4107 53.3502 74.1707C55.4102 73.8107 59.0202 70.8607 59.8902 69.1407C60.6902 67.5507 61.3202 63.7307 61.4502 61.9207C61.5002 61.2607 61.4902 60.6207 61.1602 60.0107C61.8702 59.8607 61.7602 60.3007 61.8602 60.7607C62.2302 62.4507 62.0802 64.5707 62.9702 66.1207C63.4702 66.9907 64.0902 67.7907 65.1202 67.0107C66.6302 65.8607 67.8302 60.1107 68.7502 58.1107C70.1502 55.0607 73.7502 49.2007 76.2302 46.8507C76.5202 46.5807 76.6302 46.2107 77.1902 46.3207C76.3702 47.6207 75.2602 48.7807 74.5102 50.1107C70.9802 56.4007 70.0502 62.6407 73.3902 69.1607C73.8902 70.1407 74.9002 71.3907 76.2102 71.3907C76.8102 71.3907 77.4802 70.9807 77.9602 70.9807C79.2802 70.9807 81.8402 75.3907 82.7402 76.4407C82.9202 76.6507 82.7402 76.9107 83.3802 76.7607C83.1902 76.0507 82.7402 74.3307 82.9302 73.7107C83.0302 73.3907 84.4202 71.8507 84.8402 71.0907C86.8902 67.3907 88.2102 59.5307 93.6802 59.0107C94.1802 58.9607 95.7602 59.1107 94.9202 59.6307C93.7802 60.3407 92.4602 60.1407 91.2602 61.6507C90.6602 62.4107 89.1802 66.7307 89.0402 67.7707C88.4202 72.5507 89.5802 78.3707 93.0902 82.0707C93.7702 82.0707 94.1402 75.5807 95.7602 74.9707C95.9702 75.3807 95.4802 75.9207 95.4802 76.1107V80.1707C95.4802 80.2907 96.6602 81.5707 96.8202 82.2607C96.9602 82.8707 96.8702 83.4907 96.8802 84.1007C97.6402 84.3407 98.2702 83.4807 98.7402 83.4107C99.2602 83.3307 99.9802 83.7307 100.89 83.5407C101.59 83.4007 102.25 82.5607 102.93 82.5807C103.66 82.6007 105.71 85.3307 107.28 84.7507C108.19 84.2607 108.05 80.2107 108.15 79.1807C108.33 77.3307 108.72 76.9607 108.48 74.7707C108.45 74.4907 108.15 73.9007 108.68 73.9607C110.16 75.6307 109.08 83.7207 113.11 82.1407C115.26 81.3007 114.08 79.0207 114.36 77.9607C114.71 76.6407 116.46 74.7507 116.99 72.7007C118.56 66.6007 118.83 59.7007 120.63 53.6607C121.03 52.3007 121.8 50.4507 122.74 49.3507C122.32 51.4507 121.48 53.5207 121.13 55.6307C120.47 59.5707 121.08 63.2907 121.07 67.2407C121.07 69.1707 120.48 71.1307 121.06 73.1907C121.45 73.6407 123.8 70.9507 123.81 70.4707L125.27 65.5807C124.86 68.0007 125 71.2507 124.41 73.5507C123.99 75.2107 122.88 76.6507 122.75 78.6507C122.65 80.1407 122.72 84.0007 125.13 83.6007C126.35 83.4007 125.5 80.5607 125.56 79.4007C125.58 79.0407 125.31 78.3707 125.98 78.5107C125.46 83.3207 131.42 89.2407 135.87 84.2307L134.84 81.5607L136.56 83.5507L137.38 83.4807C137.62 81.6007 139.3 80.0107 139.77 78.2807C140.11 77.0307 139.95 75.3507 140.24 74.1307C140.42 73.3707 141.22 72.8107 141.45 72.1807C142.92 68.2907 142.57 66.8407 145.29 62.9607C147.3 60.0807 149.75 57.4207 152.82 55.4307L149.22 59.9207C148.11 61.9407 146.4 64.0507 145.86 66.2807C145.54 67.6207 144.51 74.2707 144.66 75.3607C144.78 76.2007 145.36 76.8307 145.48 77.6607C145.63 78.6307 145.27 80.0707 145.56 80.8907C145.75 81.4507 146.54 81.4907 146.77 81.8307C147.07 82.2907 146.93 83.1407 147.36 83.8307C149.05 86.5307 154.92 84.8807 157.23 83.6507C158.72 82.8607 161 79.1907 161.23 77.6207C161.58 75.2107 160.62 73.5307 159.29 71.5507C159.23 71.3807 159.56 71.3607 159.71 71.4307C160.37 71.7007 163.08 75.8607 163.21 76.6407C163.34 77.3707 163.52 80.1707 163.49 80.9207C163.45 81.7307 162.69 82.5307 162.46 83.2907C161.99 84.8307 161.93 87.7007 162.93 89.0607C163.55 89.9007 164.34 89.5407 165.18 89.8207C165.97 90.0907 166.92 91.6007 167.87 90.7007C168.2 90.3907 168.82 88.0807 168.86 87.5307C168.96 86.0107 168.15 84.0607 168.01 82.4407C167.98 82.1607 167.8 81.4907 168.29 81.5607C168.14 83.3407 169.88 85.4307 170.2 86.8207C170.59 88.5407 169.37 92.0907 171.87 92.6707C174.5 93.2707 173.12 90.5807 175.04 89.6807C175.17 90.5907 174.74 91.4407 174.74 92.3407C174.73 94.5307 175.83 93.9507 177.01 95.1407C177.32 95.4607 179.41 98.6807 179.48 99.0007C180.04 101.221 178.81 102.141 178.71 103.531C178.61 104.891 179.96 107.541 180.1 108.611C180.21 109.381 179.59 110.761 179.54 111.641C179.44 113.291 179.2 116.291 180.25 117.581C180.75 118.191 181.56 118.251 181.68 118.991C178.87 121.261 181.75 122.341 181.71 123.531C181.68 124.401 179.11 124.771 179.54 127.351C179.63 127.891 180.13 128.281 180.09 128.871C180.04 129.571 179.09 130.571 178.97 131.681C178.7 134.151 180.31 134.401 180.34 135.481C180.37 136.281 179.61 138.171 179.52 139.291C179.25 142.601 179.04 146.641 178.95 149.961C178.91 151.441 179.88 153.201 178.55 154.651C177.61 153.451 178.39 152.001 178.42 150.731C178.46 148.781 178.53 146.551 178.42 144.621C178.38 143.921 178 139.691 177.42 139.691C176.44 140.501 175.73 141.121 175.18 142.231C171.97 148.681 171.71 160.631 171.94 167.721C171.96 168.431 172.83 170.331 171.38 170.391L170.51 162.651C170.74 159.001 170.69 154.931 170.21 151.261C170.16 150.851 169.95 149.171 169.54 149.071C167.82 148.671 167.84 152.101 167.59 152.891C165.08 160.811 164.44 167.821 164.32 176.091C164.3 177.441 165.11 179.061 164.34 180.531C163.62 180.621 163.55 180.131 163.49 179.651C163.09 176.631 164 173.291 163.78 170.251C163.65 168.421 162.96 166.421 162.94 164.541C161.61 164.561 162.24 166.091 162.07 166.921C161.5 169.681 160.49 172.451 160.4 175.311C160.31 178.001 161.13 180.771 160.98 183.451C160.67 189.201 160.73 195.021 160.16 200.721C160.1 201.301 160.08 201.891 160.12 202.481C160.16 203.071 161.33 207.191 160.27 207.161C158.53 205.001 159.91 202.351 159.86 199.921C159.69 191.501 158.88 182.971 158.43 174.571C158.31 172.211 159.07 170.141 159.01 167.701C158.97 165.791 158.68 163.041 158.43 161.121C158.37 160.691 157.57 155.371 156.75 155.921C156.35 157.361 156.38 158.871 156.16 160.341C155.07 167.651 154.66 174.541 154.21 181.921C154.11 183.571 154.38 185.371 154.22 187.011C154.02 189.061 153.04 188.191 153.07 186.501C153.15 180.461 153.9 174.071 153.95 167.991C153.98 165.081 154 161.221 153.3 158.411C153.03 157.341 152.14 156.131 151.99 155.281C151.59 152.951 152.35 150.161 149.82 148.341C148.59 148.041 148.12 151.201 148.04 152.001C147.77 154.771 147.42 157.621 147.2 160.371C146.89 164.191 147.7 168.051 146.67 171.821C146.59 172.131 146.51 172.931 146.07 172.931C145.88 171.951 145.54 170.761 145.49 169.771C145.4 167.711 146.07 165.611 146.09 163.671C146.12 159.301 145.64 154.811 145.5 150.481C145.41 147.601 144.52 144.771 144.33 141.901C141.86 140.291 143.28 140.501 143.28 138.551C143.28 136.821 142.98 132.401 142.57 130.801C142.42 130.221 141.72 128.881 140.92 129.071C137.49 131.711 138.71 135.741 138.47 139.311C138.41 140.191 138.04 141.211 137.92 142.111C137.77 143.261 138.48 144.941 137.08 145.531C136.48 145.121 137.34 140.771 137.37 139.831C137.49 136.421 135.82 128.931 137.8 126.261C139.39 124.121 140.66 122.771 141.71 120.151C142.35 118.571 141.85 118.571 141.84 117.251C141.83 114.691 142.24 111.671 140.54 109.531L138.94 109.741C138.53 109.531 138.39 109.351 138.53 108.911C138.7 108.351 142.56 105.291 143.23 104.521C143.92 102.271 145.88 100.271 146.89 98.4307C147.53 97.2807 147.51 95.7907 148.2 94.7907C149.29 93.2307 151.74 92.4007 153.26 91.2307C154.62 90.1807 155.34 89.0507 156.21 87.6807C156.06 87.5707 152.87 88.9207 152.58 89.0907C151.96 89.4607 151.85 89.9907 151.41 90.3207C150.13 91.2907 148.59 91.3607 147.22 92.8807C145.6 94.6707 146.18 96.0407 145.3 97.7507C144.96 98.4007 144.17 98.9007 143.82 99.7107C143.47 100.521 143.51 102.921 142.57 102.891C142.1 102.511 141.87 101.791 141.87 101.251C141.85 98.5107 142.72 95.1107 142.42 92.4007C142.2 90.3807 140.86 90.6107 140.52 90.1607C140.34 89.9207 140.7 89.3807 140.19 89.4607C140.22 91.7907 141.08 94.6507 140.72 96.9207C140.59 97.7207 140.05 98.4007 139.86 99.1907C139.47 100.801 139.11 102.371 139.58 104.001C139.16 104.811 138.05 104.661 137.36 105.311C135.47 107.091 135.96 110.911 135.68 113.181C135.52 114.441 134.97 115.761 134.84 116.991C134.59 119.631 135.11 122.351 134.55 124.981C133.97 124.851 134.1 124.611 134.11 124.221C134.19 121.471 134.09 116.371 133.69 113.711C133.54 112.711 132.57 111.721 132.57 110.901C132.57 110.081 133.81 108.481 133.97 107.331C134.17 105.881 133.62 104.531 133.71 103.031C133.79 101.681 134.51 100.401 134.26 99.0007C134.13 98.2407 132.24 96.0507 131.31 96.0607C130.64 96.0107 130.06 98.1207 130.06 98.4707V107.221C129.52 107.301 129.3 107.011 129.21 106.581C129.04 105.741 129.56 103.761 129.49 102.531C129.42 101.301 128.59 95.5607 127.94 94.7907C127.75 94.5607 126.8 93.9507 126.68 94.0307C126.68 95.3607 125.71 96.4107 125.35 97.5207C124.27 100.831 124.9 103.991 124.72 107.351C124.62 109.181 123.76 110.911 124.21 112.861C124.38 113.611 125.29 114.191 125.3 114.941C125.3 115.521 124.46 117.251 124.28 118.101C123.52 121.691 124.3 123.251 124.71 126.611C124.94 128.461 124.31 128.701 125.97 130.291C126.59 130.881 127.67 131.321 128.05 131.961C128.7 133.041 128.64 134.481 128.23 135.611C127.64 134.301 127.04 132.001 124.99 132.431C124.29 132.751 123.81 136.431 123.86 137.251C123.95 138.711 125.27 140.301 125.27 141.571C125.27 142.841 124.23 144.841 124.13 146.381C124.08 147.211 124.78 152.211 125.25 152.491C127.68 153.681 129.52 150.941 130.79 150.621C132.88 150.101 130.31 153.211 130.11 153.821C128.39 159.131 127.89 169.291 127.56 175.071C127.48 176.511 128.17 178.171 127.22 179.761C126.34 179.321 126.62 177.661 126.66 176.841C126.98 171.481 128.13 166.001 126.9 160.631C126.78 160.111 126.73 159.571 126.23 159.201C124.77 158.891 122.63 166.231 122.35 167.361C121.02 172.721 120.04 179.071 121.32 184.441L120.75 189.141C120.29 189.081 120.09 187.971 120.07 187.661C119.72 182.411 119.98 177.411 119.04 172.051C118.78 170.541 118.32 169.231 117.66 167.841C116.76 167.201 116.25 170.431 116.23 170.761C116.06 174.741 115.4 178.861 116 182.921C116.12 183.701 116.76 184.541 116.81 185.251C116.9 186.501 116.41 188.241 116.54 189.781C117.03 195.621 121.53 207.961 124.54 213.261C124.73 213.591 126.79 215.811 125.68 215.531C124.04 215.111 122.89 211.611 122.11 210.371C118.99 205.441 116.07 199.761 114.48 194.171C114.23 193.271 114.11 191.131 113.86 190.671C113.8 190.551 113.5 190.351 113.44 190.421C113.27 192.291 112.73 194.271 112.6 196.131C112.42 198.671 112.95 201.451 112.23 203.921C112.1 204.391 112.16 204.761 111.48 204.621C110.27 201.111 111.45 197.601 111.21 194.081C110.98 190.671 110.4 187.311 110.08 183.941C109.83 181.391 110.78 173.701 108.95 172.021C108.13 171.271 107.1 172.371 106.47 171.521C106.52 169.911 107.75 169.661 108.5 168.821C109.37 167.851 111.69 163.431 111.91 162.261C111.99 161.811 111.43 161.511 111.52 160.911C111.66 160.011 113.24 158.021 113.39 156.721C113.47 156.051 113.1 155.511 113.17 154.791C113.3 153.451 114.31 152.421 113.99 150.711C113.92 150.331 113.49 150.051 113.47 149.701C113.4 148.751 114.59 146.261 114.57 144.871C114.56 143.881 113.84 142.831 113.73 141.831C113.47 139.411 115.4 134.211 110.96 134.311C110.04 132.471 111.35 132.321 112.28 131.131C114.73 127.961 113.3 127.591 113.44 124.311C113.56 121.561 113.68 120.831 113.45 117.971C113.32 116.331 113.87 112.991 112.31 111.891C111.71 111.471 111.05 111.791 111.17 110.871C111.23 110.411 112.09 110.191 112.55 109.561C115.12 106.101 114.53 97.4907 112.68 93.8007C112.42 93.2707 112.08 92.5307 111.32 92.4707C109.75 92.3407 109.77 94.6107 109.36 95.5207C108.97 96.3907 107.54 98.4607 107.54 99.2007V103.131L106.55 101.351C105.83 104.271 105.97 108.021 106.53 111.011C106.73 112.061 108.06 113.131 106.27 113.781C105.33 113.601 105.63 108.921 105.56 108.071C105.46 106.941 105.13 105.651 105 104.511C104.82 102.921 105.36 101.131 104.16 99.6807C103.67 99.3207 103.47 99.8307 103.25 100.141C102.46 101.261 101.18 109.151 101.07 110.851C100.99 112.141 101.68 113.571 100.92 114.521C99.6602 114.481 100.6 108.731 99.9302 107.621C99.7402 107.311 99.2202 107.261 98.9602 106.911C95.5202 102.241 96.8602 101.661 99.0302 97.0907C100.01 95.0307 100.33 94.5407 101.46 92.6907C102.07 91.6907 104.16 87.2007 102.28 86.6507C100.02 85.9907 101.1 89.5107 101.07 90.2907C100.99 92.9907 98.1902 92.6707 97.0002 94.5007C96.6302 95.0707 94.9002 98.8007 94.6702 99.5007C93.7002 102.451 95.4202 104.121 96.2802 106.781L95.2802 106.881C94.2102 107.871 95.6002 108.781 96.0102 109.821C97.0102 112.351 97.4702 115.411 98.6702 117.821C100.23 120.941 101.39 121.921 101.61 125.821C101.64 126.361 101.86 126.851 101.05 126.701C100.34 122.121 97.2302 118.371 95.1402 114.271L94.5802 114.391L93.8802 122.131C93.0302 121.551 93.3002 120.611 93.0502 119.831C92.8902 119.321 92.5202 118.851 92.4002 118.391C91.9902 116.751 91.0802 108.691 88.5302 108.681C87.2302 109.061 86.8702 111.061 86.7402 112.151C86.6002 113.301 87.1602 115.081 86.1502 115.801C86.3002 114.111 85.8902 112.471 85.6902 110.811C85.6102 110.181 86.0702 109.981 85.5502 109.111C84.2302 106.941 81.3502 108.771 79.6902 107.301C81.2202 106.371 83.2002 106.381 84.8402 105.611C87.9002 104.161 90.6002 99.7807 90.0702 96.6607C89.9402 95.8907 89.0302 94.3907 88.0502 94.5207C86.0602 94.7707 86.0902 98.7607 85.8002 100.131C85.7502 100.361 85.6802 100.891 85.3102 100.831C84.3502 98.3507 85.0102 95.7607 84.3402 93.2107C84.0302 92.0307 83.2002 90.5707 82.5502 89.5007C82.2702 89.0407 80.9002 86.7707 80.4002 86.8807C79.0402 88.5107 79.6502 90.7007 79.3902 92.5707C79.2502 93.5807 78.6802 94.7407 78.5702 95.8907C78.4502 97.2107 79.0402 102.461 77.7202 102.991L77.1702 102.741C77.4102 102.441 77.4602 102.101 77.4602 101.741C77.5002 97.5707 78.0202 92.8107 77.7402 88.7707C77.6502 87.5007 77.2202 84.0907 76.3002 83.2207C75.7702 82.7207 72.4702 81.2307 71.9602 81.8107C71.0202 84.5007 71.9202 87.4307 71.2502 90.1807L70.6902 87.5207L70.4002 83.8407C69.8802 83.1607 68.7602 88.3707 68.7202 88.7907C68.3302 93.0207 69.2602 97.5307 68.6802 101.951C68.6402 102.261 68.3602 103.601 68.0102 103.621L67.5802 98.9407C67.5602 95.7007 67.7902 85.4807 65.1202 83.3207C63.7302 82.2007 62.9402 83.9207 62.6102 85.0407C62.0602 86.8907 61.5202 90.8807 61.4102 92.8407C61.3602 93.6707 61.9402 97.3307 61.6802 97.5307C61.2302 97.8807 61.2002 97.4107 61.0502 97.2107C60.0802 95.8507 61.1102 92.2407 60.7202 90.1607C60.3802 88.3907 58.6302 85.3707 56.9802 88.0807C56.5002 88.8707 54.9802 93.7107 54.9402 94.6307C54.8802 96.0207 56.0602 97.8107 57.6302 98.0307C58.5502 98.1607 60.7502 97.7607 61.2802 98.5507C61.8602 99.4207 60.2402 100.851 62.2602 103.241C62.9502 104.051 65.7202 105.871 66.6802 106.121C67.4202 106.311 67.9802 105.891 68.6002 105.891C70.8702 105.911 72.5502 110.501 73.8902 111.651C76.0002 113.461 79.3502 113.141 81.3002 115.361C81.9602 116.111 82.2102 117.631 83.3602 118.451C84.8102 119.491 87.2602 119.251 88.9902 119.201C89.5402 120.941 90.3102 124.031 92.8002 124.161C93.6502 124.201 94.2802 123.641 95.0402 124.151C95.5702 124.511 97.0802 128.071 97.9702 129.121C100.85 132.491 104.58 132.831 106.74 137.451C107.22 138.481 107.57 141.151 107.56 142.321C107.56 143.021 107.24 143.661 106.83 144.221C106.14 144.421 106.44 142.841 106.34 142.381C105.9 140.451 104.64 138.551 103.17 137.121L102.47 137.501V141.311C102.47 141.991 103.28 145.691 103.58 146.401C105.05 149.881 109.86 151.941 109.5 157.041C109.47 157.491 109.21 159.391 108.38 159.201C108.4 156.751 108.8 155.071 106.54 153.371C105.83 152.841 104.22 151.661 104.28 153.111C104.44 156.851 102.73 159.901 102.76 163.391C102.76 163.871 103.05 164.371 103.06 164.911C103.08 165.881 102.46 167.241 102.05 165.551C101.64 163.861 101.71 161.911 101.27 160.151C101.09 159.431 100.67 157.491 99.8202 158.711C98.2502 160.971 98.8902 162.651 98.5102 164.881C98.1802 166.821 97.2802 168.981 97.1202 170.981C96.8902 173.871 97.6502 177.361 97.5902 180.331C97.5102 184.071 96.5702 187.681 96.8602 191.531C96.9202 192.391 97.4302 193.191 97.4402 194.071C97.4602 195.511 96.8002 196.201 96.1602 194.451C95.1102 191.561 95.9902 187.671 96.0302 184.701C96.0802 180.591 95.7202 176.521 95.7502 172.521C95.7602 170.221 95.9002 168.131 94.8302 165.971C94.3102 164.911 93.9402 164.291 92.9202 165.411C90.4902 168.081 89.0902 172.391 88.7102 175.811C88.3302 179.231 89.2002 182.801 88.4202 186.081C87.8502 185.981 87.9602 185.541 87.8602 185.191C87.2002 182.861 87.8602 180.311 87.2602 177.861C86.9802 176.721 86.0802 175.641 86.1702 174.411C85.6902 174.321 85.5902 174.511 85.3902 174.841C83.9502 177.161 84.4802 179.991 84.2002 182.391C83.2802 190.401 83.1502 197.941 83.0702 206.001C83.0602 207.421 83.6802 209.271 82.6602 210.681C82.1202 209.711 81.7702 208.611 81.6702 207.521C81.2502 203.181 81.9402 198.631 81.9702 194.331C82.0302 186.881 81.9802 179.461 81.3502 172.031L80.6902 171.611L80.2102 172.191C76.6302 178.741 78.0302 186.571 77.0402 193.681C76.6202 194.361 76.1202 193.061 76.0702 192.771C75.4002 189.241 75.7902 185.411 75.2102 181.621C75.0502 180.571 75.4302 177.301 73.9202 179.961C73.9602 183.541 73.2702 187.191 73.2902 190.761C73.3102 194.281 73.8002 199.591 74.3902 203.161C75.0102 206.981 77.2202 211.051 79.5902 214.211C79.7102 214.611 79.0002 214.791 78.8902 215.161C78.8302 215.371 79.9302 218.721 80.1202 219.291C82.3202 225.691 85.5702 232.041 88.7602 238.131C89.7702 240.051 90.8402 241.961 92.0602 243.781C91.7102 244.221 91.4702 243.671 91.2702 243.481C88.4102 240.671 87.5902 238.241 85.5402 235.201C84.7502 234.031 80.5102 227.811 79.8302 227.411C79.5902 227.271 79.5502 226.971 79.2602 227.411C79.1802 227.541 78.5602 229.931 78.5602 230.081V235.661L78.1402 236.041L77.4402 235.661V227.541C77.4402 227.191 75.8702 221.711 75.6202 220.811C75.5102 220.421 74.4702 217.881 74.3202 217.801C74.2202 217.741 73.5502 217.751 73.5102 217.771C73.2602 217.951 72.5002 222.791 72.4202 223.511C72.3002 224.591 72.4202 225.691 72.3802 226.771C72.1402 234.141 72.0002 241.711 71.8302 249.091C71.6402 257.671 71.5202 266.291 71.1202 274.861H70.2602L70.1102 262.051C69.9502 247.921 68.9302 234.061 68.4202 219.931C68.2802 216.031 68.7402 211.831 68.4402 207.991C68.3402 206.701 67.6002 204.941 67.5702 203.931C67.5102 202.101 68.7502 201.331 68.0802 198.421C67.9402 197.821 67.1002 195.111 66.8702 194.691C66.5802 194.151 65.9602 193.911 65.6702 194.601L64.4202 210.091L63.9302 210.411C64.0602 209.581 63.6902 208.811 63.6302 208.011C63.2202 202.261 63.8702 195.641 62.7702 190.011C62.4602 188.401 61.5702 187.441 61.0302 186.001C60.2402 183.891 60.0802 181.551 59.1402 179.461C58.4502 178.981 57.5002 184.061 57.4602 184.411C57.0502 187.501 57.4202 190.551 57.2902 193.451C57.2302 194.821 56.6202 196.671 56.6002 198.091C56.5702 199.781 57.4702 204.201 56.5802 205.431C56.3602 205.731 56.2302 205.921 55.7702 205.841L55.1902 198.361C55.8602 192.241 55.7402 186.191 54.4402 180.271C54.2202 179.251 53.3502 173.351 52.2502 173.371C50.9902 174.921 51.7602 177.131 51.4702 179.011C51.1802 180.891 49.8402 182.651 49.3802 184.481C48.6802 187.261 48.2202 190.981 48.2002 193.791C47.1402 200.301 47.4202 207.001 47.0502 213.591L46.4902 213.971C46.6602 213.061 46.2502 212.201 46.1902 211.321C45.4402 199.931 47.3502 188.121 45.9202 176.811C45.8402 176.201 45.7002 175.621 45.2402 175.141C44.5902 174.611 42.8402 175.281 42.5602 174.501C42.3002 173.781 44.2102 171.961 44.4402 170.921C44.6102 170.191 44.6302 166.591 44.3602 166.031C44.1702 165.651 43.1802 165.041 42.7702 164.421C42.1102 163.441 42.1602 162.341 41.4202 161.711L40.4402 168.051C39.2902 167.091 39.8802 165.611 39.7302 164.371C39.5302 162.681 39.0902 158.231 37.9202 157.131C37.4502 156.691 36.8102 156.281 36.1102 156.401C36.0402 156.811 35.6602 157.211 35.5802 157.581C35.2502 159.261 34.7502 162.781 34.7802 164.411C34.8002 165.651 35.2802 166.931 35.2602 168.181C35.2202 170.751 35.0402 173.391 34.9602 176.041L34.6802 184.791C33.9602 184.911 34.1802 184.681 33.9902 184.281C33.1102 182.341 33.5702 178.261 33.5402 176.031C33.4902 172.521 33.3202 168.911 33.2802 165.391C33.2502 162.421 32.8102 158.761 32.3502 155.801C31.7402 151.931 29.2502 154.951 28.8302 156.811C28.5702 157.981 28.5402 160.921 28.4702 162.321C28.3802 164.221 28.5602 166.141 28.4802 168.041C28.1302 168.451 27.9702 168.041 27.9202 167.661C27.7502 166.491 28.0402 165.071 27.9202 163.851C27.6802 161.451 27.3902 160.301 27.3702 157.771C27.3602 155.771 27.7902 151.611 24.9002 151.081C24.2802 150.971 20.3002 151.921 19.4802 152.181C18.8302 152.391 10.4502 158.231 9.77024 158.891C8.66024 159.971 7.62023 161.991 6.54023 163.211L5.99023 162.831C8.44023 159.881 9.94023 155.961 13.0102 153.441C15.3502 151.521 19.4002 150.351 21.4402 148.871C22.4402 148.141 23.6302 146.211 24.8502 145.601C25.8202 145.111 26.8502 145.311 27.8002 144.971C28.4602 144.731 28.8102 144.081 29.2502 143.971C29.9502 143.791 30.5502 144.231 31.5202 144.021C32.1302 143.891 33.7502 143.011 34.2102 142.621C36.6002 140.621 35.8902 137.201 33.6902 135.311C33.3102 135.311 32.6802 137.051 31.8702 136.831C32.7602 133.251 33.8202 130.601 31.8102 127.111C31.1002 125.881 28.2102 121.791 26.9402 121.361C26.3402 121.151 26.5802 121.721 26.5202 121.981C25.1302 127.791 26.6702 133.791 25.9602 139.621C25.5402 140.011 25.1502 137.321 25.1202 136.951C24.7302 132.311 24.8102 127.651 24.5502 123.001C24.5002 122.021 24.3102 119.201 23.9302 118.491C23.5502 117.781 21.6902 116.271 20.9502 115.341C20.0602 114.221 19.4702 112.841 18.6502 111.841C15.9702 108.571 10.7102 104.991 7.41023 101.431C7.19023 101.191 6.08023 99.9707 6.28023 99.7907L16.4002 107.021C20.7202 110.831 24.9202 114.371 30.0802 117.251C31.2402 117.901 33.7002 118.601 34.5402 119.321C35.3002 119.961 36.4402 122.861 37.0902 123.871C39.5402 127.651 40.8902 126.991 40.7102 122.631C42.9602 124.451 42.0402 129.761 44.8002 130.881C46.6602 131.641 47.0302 128.461 47.8802 127.701C47.7402 130.311 47.3002 132.241 48.7202 134.681C48.9902 135.141 51.2402 137.781 51.6202 138.021C52.8102 138.811 56.6402 138.901 57.1102 140.311C57.3402 141.011 56.8902 141.591 56.9502 142.221C57.2102 144.911 58.5502 147.661 58.0002 150.531C57.1302 150.661 57.5602 150.311 57.4402 149.911C57.1302 148.931 56.8702 147.061 56.4002 146.291C56.1202 145.831 55.0402 145.181 54.7702 144.451C54.6302 144.451 53.1502 146.201 53.0702 146.461C52.9902 146.691 52.3802 149.231 52.3702 149.381C52.3402 150.271 52.9302 151.961 53.4602 152.741C54.1502 153.771 56.2502 154.911 56.4802 155.361C56.7602 155.931 56.3602 156.331 56.4602 156.881C56.9802 159.711 59.8302 161.731 63.0502 161.161C64.1902 158.661 64.3102 155.441 67.0202 153.831C65.4702 159.051 66.6202 165.911 74.2702 162.011C74.7302 161.781 74.8602 161.241 75.1002 161.181C76.0102 160.951 77.5602 161.461 78.5502 161.051C79.2602 160.761 79.7602 159.371 80.3702 158.891C80.9802 158.411 81.8802 158.361 82.6302 157.881C83.8602 157.091 84.5302 155.581 85.2902 154.451L84.0102 153.831C83.7302 150.471 87.7702 148.511 87.8402 145.321C87.8602 144.631 87.8102 142.921 87.7402 142.301C87.7102 142.001 85.6902 137.891 85.4302 137.831C84.8702 137.721 84.5302 138.621 84.4702 138.991C84.2502 140.241 84.7902 146.551 84.1702 146.961C84.0102 146.981 83.8102 146.821 83.7502 146.711C83.4902 146.241 83.0602 143.441 83.0402 142.791C82.9102 139.161 84.8302 133.901 79.9602 132.001C79.5702 132.751 79.8202 133.651 79.6102 134.351C79.5002 134.711 79.0402 134.991 78.9002 135.481C78.5102 136.861 78.7902 138.621 78.3702 139.821C78.2402 140.211 78.0502 140.731 77.4302 140.621C76.8602 135.961 77.3002 130.831 74.4802 126.671C73.8102 126.671 73.0002 131.851 72.9402 132.631C72.5002 138.131 72.5102 144.851 72.6402 150.401C72.6502 150.941 73.5102 154.061 72.2402 153.811C71.8902 153.741 71.1702 150.561 71.1302 150.041C71.0402 148.851 71.5202 147.451 71.5402 146.331C71.6302 141.751 71.0702 138.061 70.6702 133.641C70.4302 130.961 72.5302 124.211 68.3702 123.521C68.1002 123.471 67.9502 123.301 67.7202 123.601C67.4402 126.191 66.9802 128.791 66.4502 131.351C66.3602 131.771 66.6402 131.791 65.9002 131.731V125.011C65.9002 124.911 65.0902 123.401 64.9202 123.111C64.7302 123.601 64.5502 124.241 64.5002 124.761C63.8902 131.701 65.1502 138.871 64.5002 145.561C64.4702 145.831 63.9402 148.091 63.3802 147.461C63.0202 143.731 63.8602 139.851 63.6702 136.161C63.4202 131.241 63.0502 125.571 62.5302 120.701C62.3602 119.131 61.5402 116.111 59.4402 116.011C59.1102 118.851 58.0002 121.961 57.7502 124.771C57.5102 127.501 58.3302 130.521 56.7602 133.011C56.2602 132.681 56.1202 132.441 56.0402 131.881C55.4702 128.001 56.9702 123.721 56.0302 119.711C55.7702 118.611 55.0802 117.791 54.8402 116.731C54.4102 114.851 55.2302 111.601 52.3202 111.221C50.5102 111.641 50.6902 117.791 49.6602 119.491C49.4802 119.791 49.6602 119.921 49.0302 119.811C48.7502 114.891 51.9402 111.281 46.9202 107.381C46.5502 107.091 44.0202 105.531 43.6902 105.451C42.8602 105.261 42.2802 106.761 42.2802 107.251V118.541L41.4102 118.391L40.7502 101.531C40.5502 100.431 37.7002 99.8607 36.8602 100.061C35.4702 100.381 35.5302 102.241 35.5302 103.201V112.971V112.941L35.5802 113.041ZM162.59 98.3907C162.22 98.0707 160.82 97.8407 160.31 98.1007C159.64 98.4407 158.85 100.071 158.74 100.761C158.06 104.811 158.76 110.041 158.43 114.201C158.71 115.331 159.13 121.981 158.43 122.431C156.78 122.191 157.85 119.591 157.88 118.511C158.03 114.031 158.2 108.451 157.88 104.031C157.81 103.041 157.53 101.871 157.28 100.891C155.25 99.6707 153.25 106.221 153.37 107.591C153.47 108.801 154.33 110.321 153.94 111.601C153.9 111.741 152.23 112.931 152.26 113.941C152.28 114.871 154.1 114.561 152.93 116.821C151.76 119.071 150.74 120.081 151.47 123.011C151.69 123.881 152.82 124.231 152.95 125.181C153.1 126.281 152.4 128.201 152.54 129.661C152.68 131.121 153.68 135.991 154.64 136.901C154.93 137.171 155.14 137.491 155.63 137.401L156.41 135.431L157.04 131.821C158.15 134.371 156.94 136.761 157.45 139.441C157.6 140.251 158.48 142.511 159.3 142.851C162.36 144.121 162.41 137.421 161.83 135.881C162.39 135.981 162.31 136.401 162.39 136.771C162.75 138.451 162.74 140.171 162.94 141.851C162.98 142.221 162.98 142.511 163.38 142.721C164.04 142.831 163.9 142.741 164.17 142.411C164.97 141.441 165.2 140.221 165.81 139.331C166.54 138.261 167.49 138.051 168.03 136.521C168.94 133.941 168.56 132.391 168.56 129.901C168.56 129.031 168.96 128.241 168.87 127.371C168.8 126.691 168.29 126.231 168.28 125.601C168.28 124.911 168.85 124.271 168.87 123.561C168.88 123.011 168.53 122.501 168.57 122.051C168.63 121.461 169.61 120.791 169.71 119.761C169.78 118.961 169.45 118.421 169.41 117.731C169.38 117.251 169.81 116.811 169.65 116.271C169.49 115.701 168.2 114.971 168.15 114.601C167.97 113.391 169.6 111.281 169.44 109.611C169.35 108.661 167.63 107.411 167.5 106.261C167.43 105.631 167.93 105.001 168.01 104.291C168.21 102.451 167.18 99.6207 164.9 99.4507C163.56 101.651 164.04 104.191 163.53 106.551L162.66 106.701C162.88 105.401 163.34 99.0407 162.6 98.3907H162.59ZM162.1 154.401V160.111C162.1 160.201 162.39 160.521 162.43 160.701H163.47C164.07 160.371 164.01 154.341 162.1 154.401ZM67.0702 188.651C66.9902 186.461 66.5502 184.331 66.2302 182.181C66.0502 180.971 66.7802 179.531 65.2402 178.841C64.5302 178.931 64.3702 179.311 64.2802 179.921C64.0902 181.241 65.3202 187.391 66.2202 188.281C66.4802 188.541 66.6302 188.741 67.0702 188.661V188.651Z" fill="white"/>
<path d="M337.11 183.45C336.91 181.48 333.85 174.8 332.66 173C332 172 329.08 168.78 327.94 168.63C327.33 168.55 327.15 169.45 327.07 169.81C326.76 171.11 326.42 174.03 326.42 175.34C326.42 176.78 327.52 179.54 326.72 180.67C326.57 180.89 326.24 181.19 326 180.79C325.63 178.4 326.02 175.94 325.87 173.54C325.81 172.54 325.42 171.5 325.3 170.5C325.14 169.16 325.75 166.94 324.44 165.95C322.63 164.58 321.8 166.4 321.37 167.73C320.2 171.42 319.45 178.36 319.65 182.19C319.67 182.51 320.6 185.88 319.38 185.09C319.23 184.18 318.87 183.05 318.8 182.16C318.49 177.56 319.46 172.58 318.79 167.99C318.73 167.56 317.7 164.19 317.55 164.03C317.39 163.86 317.24 163.76 316.98 163.76C315.79 163.76 315.25 164.55 314.95 165.49C314.42 167.14 313.94 170.95 313.75 172.78C313.58 174.45 313.81 176.09 313.75 177.59C313.59 181.98 313.16 186.38 313.66 190.76L312.76 191.68L312.63 176.58C311.71 173.28 312.44 169.84 311.36 166.56C310.92 165.23 310.29 164.3 308.81 165.54C308.62 165.7 306.62 168.17 306.56 168.33C304.38 174.01 305.55 180.74 305.32 186.49C305.19 189.8 304.45 193.1 304.19 196.38C303.63 203.3 304.04 210.27 303.34 217.18C303.16 219 302.25 218.6 302.19 216.92C302.08 213.86 302.81 210.37 302.79 207.02C302.75 199.91 302.72 192.84 302.21 185.72C301.92 181.71 301.48 177.67 301.09 173.67C299.85 174.74 299.45 176.65 298.78 178.05C297.94 179.78 297.53 181.09 296.82 182.88C295.77 185.5 296.64 187.32 296.62 189.78C296.62 190.85 296.01 192.26 296.01 193.33C296.01 196.4 296.54 199.58 296.01 202.7C295.94 203.1 295.55 204.16 294.9 203.73C294.35 203.37 294.69 197.74 294.62 196.63C294.46 193.91 294.29 191 294.07 188.24C294.01 187.43 293.31 183.36 291.84 185.23C291.38 185.82 289.96 190.39 289.84 191.29C289.13 196.63 289.95 203 289.84 208.55C289.83 209.15 289.55 209.7 289.54 210.31C289.5 211.64 289.78 219.41 289.27 219.83C288.54 219.9 288.48 219.47 288.42 218.95C287.7 213.49 289.05 206.75 288.43 201.18C288.19 199 286.57 196.81 287.02 194.46C286.28 194.35 286.52 194.57 286.38 195.01C286.03 196.08 285.35 198.47 285.18 199.52C284.26 205.25 284 211.11 283.96 216.91C283.95 218.62 283.2 220.91 283.08 222.74C282.92 225.29 283.34 228.1 283.08 230.61C282.49 236.48 281.59 242.16 281.38 248.13C281.24 252.27 280.46 256.39 280.26 260.54C280.03 265.25 281.08 269.96 280.26 274.63C279.48 275.27 279.15 272.53 279.13 272.23C278.54 265.45 279.26 257.58 279.15 250.64C279.06 244.95 278.63 239.11 278.56 233.41C278.49 227.32 279.45 221.23 277.71 215.27L276.92 215.29C276.58 216.25 276.02 217.15 275.68 218.1C274.85 220.49 273.8 224.87 273.55 227.34C273.14 231.36 273.78 235.8 273.51 239.87C272.97 239.95 272.76 239.67 272.67 239.24C272.26 237.22 272.78 233.66 272.67 231.38C272.59 229.72 272.35 227.71 272.1 226.06C272.04 225.7 272.36 225.31 271.7 225.42C270.69 226.52 269.48 227.54 268.63 228.74C265.92 232.54 263.76 237.49 261.2 241.32C261.04 241.56 260.16 243.05 259.75 242.67C260.82 240.55 261.54 238.31 262.51 236.16C263.73 233.45 265.66 230.44 266.71 227.77C267.28 226.33 267.38 224.83 268.04 223.39C269.16 220.95 271.07 218.38 271.49 215.58C271.62 214.75 271.25 214.2 271.38 213.48C271.58 212.32 273.83 209.82 274.42 208.34C275.91 204.61 278.02 196.44 278.04 192.56C278.04 191.58 277.65 190.71 277.73 189.77C277.82 188.69 278.55 187.47 278.6 186.22C278.66 184.84 278.11 183.92 278.02 182.67C277.93 181.42 278.34 180.38 278.32 179.37C278.31 178.71 277.19 175.42 276.48 175.43C274.27 177.97 275.47 181.81 275.21 184.94C275.17 185.47 274.54 188.98 274.37 189.13C273.77 189.66 273.56 187.96 273.53 187.73C273.3 185.55 273.67 183.09 273.53 180.87C273.44 179.36 272.85 177.85 272.99 176.3L272.53 175.68C272.12 176.07 271.63 176.4 271.31 176.86C268.84 180.47 269.56 192.11 269.59 196.6C269.61 199.82 269.38 202.93 269.01 206.12C267.8 205.04 268.17 202.88 268.17 201.43C268.2 194.23 268.59 186.62 267.85 179.39C267.81 178.97 267.55 177.23 267.19 177.21C264.63 179.43 261.89 177.71 260.45 181.27C259.14 184.49 259.76 187.58 259.75 190.77C259.75 193.41 259.59 195.93 259.45 198.52C258.8 198.65 259 198.45 258.82 198.2C257.66 196.57 259.01 193.36 258.9 191.28C258.81 189.6 258.35 186.4 258.02 184.72C257.92 184.18 257.52 182.77 256.78 182.78C256.31 182.77 256.09 183.31 255.78 183.42C249.77 185.49 246.62 189.99 244.54 195.35C244.43 195.63 243.55 199.29 243.15 198.78C243.6 191.66 247.67 185.02 253.4 180.25C254.55 179.29 256.07 178.52 257.21 177.6C258.62 176.46 260.25 174.42 261.51 173.49C263.49 172.02 269.98 169.08 270.64 166.63C271.33 164.09 271.09 165.14 272.45 163.19C275.66 158.6 275.67 154.58 276.68 149.5C276.9 148.38 277.65 147.18 277.74 146.13C278 143.24 276.89 139.31 277.17 136.25C277.3 134.89 278.24 133.31 277.39 131.97C277.14 131.58 276.59 131.68 276.57 131.18C276.55 130.42 277.37 129.09 277.35 128.07C277.28 125.51 277.22 124.7 277.44 122.03C277.74 118.4 276.98 112.55 276.1 109.03C275.94 108.4 276.16 107.7 275.98 107.11C275.68 106.15 273.93 106.31 274.04 104.77C274.08 104.15 276.22 103.91 277.02 103.38C279.41 101.77 278.07 98.1105 277.99 95.9105C277.87 92.4505 278.2 88.4005 277.69 85.0105C277.64 84.6605 276.98 82.6305 276.31 83.0905L275.08 85.9205L274.06 91.7205C273.52 90.1305 274.29 88.3905 274.35 86.7905C274.53 82.2505 274.77 75.7305 272.98 71.5105C272.55 70.5005 272.13 69.7805 270.82 69.6505L269.89 77.1405C270.03 79.1105 270.45 82.0805 270.12 83.9905C270.06 84.3505 269.72 84.8705 269.41 84.3705C269.04 83.7705 269.35 81.3605 269.27 80.4305C269.18 79.3305 268.69 77.6505 268.71 76.6205C268.73 75.4305 269.31 74.1905 269.29 72.8105C269.21 68.2205 266.89 62.8505 263.77 59.2605C262.52 57.8105 260.71 56.8505 259.43 55.4405L267.87 60.8905C270.44 62.7605 271.19 65.6305 273.48 67.7505C274.88 69.0505 276.75 69.8605 278.37 70.9505C278.99 71.3705 279.58 72.3005 280.42 72.6505C284.02 74.1505 285.09 70.3005 285.02 67.8705C285.51 67.9705 285.58 68.3205 285.57 68.7205C285.57 68.9005 284.87 71.8305 286 71.4205C289.35 67.9205 289.55 63.0505 289.25 58.6005C289.03 55.2605 287.46 51.9205 286 48.8505C284.73 46.1805 282.98 43.7405 281.93 40.9805C282.29 41.0505 282.53 41.4005 282.73 41.6505C287.42 47.8605 291.41 54.4805 294.52 61.4505C295.23 63.0405 295.34 66.1605 297.66 66.3305C298.6 64.3605 298.43 62.0705 299.29 60.0605C299.42 59.7405 299.46 59.3105 299.93 59.2405C299.08 62.4405 300.38 65.2005 301.02 68.2805C301.53 70.7305 301.11 71.1805 302.69 73.6205C304.7 76.7305 306.03 76.1105 308.63 77.9105C309.91 78.8005 309.69 80.1805 311.66 80.5005C314.53 80.9605 319.11 78.3905 319.73 78.5305C319.88 78.5605 320.25 78.9005 320.13 79.1205C318.91 81.4305 315.14 83.1505 317.52 86.1305C318.27 87.0605 319.21 86.4005 320.17 86.7805C320.74 87.0105 321.73 88.3805 322.44 88.7905C323.42 89.3705 325.89 90.1505 327.03 90.1105C327.78 90.0805 330.6 88.8705 330.45 89.9605C330.34 90.7405 327.46 91.1305 326.65 91.7305C327.45 92.6605 328.32 92.9805 329.57 92.7305C336.49 91.3505 342.06 87.6705 348.1 84.5705L355.89 79.8005C353.31 82.6605 349.91 84.8205 347.03 87.4005C346.14 88.2005 343.84 90.0805 343.4 90.9805C342.24 93.3605 343.34 97.1105 342.12 99.4605C341.59 99.6405 341.57 99.0005 341.54 98.7105C341.33 96.8105 342.16 95.0205 341.53 93.2705C340.14 92.4305 337.61 96.9105 337.2 97.8205C335.44 101.77 334.32 105.33 335.43 109.56C335.64 110.36 336.56 110.69 336.72 111.19C337 112.07 336.51 113.24 337.47 114.07C339.67 115.98 342.92 113.23 344.93 112.28C345.33 112.72 342.86 115.68 342.55 116.34C341.15 119.3 341.12 122.59 341.56 125.72C340.71 125.81 340.61 124.8 340.51 124.26C340.34 123.32 340.21 118.84 340.03 118.6C339.7 118.16 338.98 118.38 338.54 118.55C337.02 119.15 336.63 121.97 336.78 123.31C336.82 123.72 337.63 126.69 337.77 126.98C338.25 127.96 340.39 128.93 341.14 129.52C341.55 129.84 341.76 130.42 342.24 130.81C344.49 132.59 346.18 132.05 348.49 133.04C349.52 133.48 355.27 136.56 356.04 137.14C358.01 138.61 359.68 142.55 360.39 144.75C359.64 144.89 359.91 144.58 359.69 144.25C358 141.65 357.94 140.46 354.77 138.79C352.57 137.63 346.39 135.99 344.25 137.42C343.29 138.06 344.06 139.01 343.98 139.77C343.59 143.66 342.6 146.47 342.66 150.73C342.67 151.67 343.54 153.11 341.83 153.38C341.15 152.09 341.8 150.92 341.83 149.71C341.94 145.85 341.76 141.79 340.08 138.2L337 137.78C336.33 137.91 335.46 139.11 335.2 139.68C334.24 141.75 332.83 147.01 332.79 149.2C332.78 149.86 333.15 150.5 333.12 151.23C333.05 153.07 332.55 155.02 332.81 156.94C332.29 156.79 332.06 156.21 331.98 155.78C331.72 154.2 332.43 151.65 332.25 149.96L330.84 143.49C330.24 143.71 329.71 144.06 329.29 144.49C326.84 147.01 327.35 147.35 326.78 150.35C326.36 152.57 324.94 153 325.29 155.73C325.75 159.24 326.92 159.55 328.71 162.02C329.66 163.33 330.18 164.65 331.41 165.93C332.65 167.22 334.43 167.9 334.98 169.56C335.32 173.91 337.72 179.09 337.99 183.28C338.05 184.26 337.73 186.17 337.58 187.26C337.52 187.72 337.69 187.67 337.02 187.64V183.45H337.11ZM292.4 80.0605C291.65 79.9905 291.95 80.0605 291.85 80.4405C291.45 81.9505 291.02 84.7305 290.8 86.3405C290.28 90.0505 290.04 93.7705 289.88 97.4205C289.81 99.0305 287.99 101.72 289.39 103.08C290.13 103.81 293.57 103.71 293.27 105.29C293.24 105.47 290.82 106.31 290.01 107.19C287.7 109.72 288.87 110.56 288.78 113.16C288.74 114.36 288.15 115.32 288.18 116.72C288.22 118.4 288.84 120.37 289.03 122.05C289.17 123.26 288.65 124.75 289.43 125.75C289.79 126.01 292.64 126.13 293.29 126.09C294.48 126.01 295.14 125.54 296.05 125.34C296.43 125.26 297.2 125.2 297.17 125.6C297.15 125.83 293.78 127.21 293.53 128.4C293.36 129.21 293.62 130.3 293.53 131.18C293.4 132.31 293.02 133.61 292.96 134.72C292.74 138.62 293.87 142.58 292.69 146.27L291.81 129.44L291.16 129.02C289.34 129.39 289.08 130.83 288.83 132.26C288.24 135.77 289.4 138.32 289.32 141.84C289.31 142.6 288.91 143.3 289.01 144.12C289.12 145.03 290.16 145.63 290.16 146.15C290.16 146.52 289.42 147.04 289.17 147.54C288.13 149.6 289.89 152.85 289.6 155.15L291.28 154.14C291.74 154.7 289.77 157.41 289.64 158.13C289.58 158.46 289.66 158.89 290.02 158.96C290.22 159 293.13 157.3 293.51 157.04C296.11 155.22 297.52 151.97 297.76 149.07C298.25 149.01 298.03 149.65 298.04 149.96C298.11 152.03 297.48 154.38 296.64 156.31C297.25 157.12 297.61 155.81 298.18 155.41C299.1 154.77 300.55 154.46 301.42 153.51C302.29 152.56 304.73 147.84 305.2 146.52C306.2 143.73 306.45 140.67 307.6 137.91C308.12 137.86 307.83 138.44 307.8 138.72C307.69 139.59 307.36 140.45 307.31 141.32C307.21 142.92 306.55 150.37 310 147.56C311.14 146.63 311.72 144.89 312.54 143.76C316.42 138.38 317.11 136.79 318.69 130.53C319.15 128.71 320.65 126.82 321.12 125.36C321.65 123.69 321.18 116.63 320.76 114.75C320.2 112.29 318.84 111.56 317.22 109.82C319.17 107.2 319.79 105.63 318.49 102.58C317.56 100.4 317.06 101.05 315.38 100.06C314.39 99.4705 313.79 98.3005 312.55 98.0905C312.07 98.1905 311.64 99.5005 311.5 99.9405C309.59 105.75 310.36 112.07 310.16 117.99C310.07 120.62 310.08 123.49 309.85 126.1C309.82 126.45 309.2 129.33 308.77 127.85C308.24 126.01 308.96 121.22 309.02 118.99C309.12 115.37 309.1 111.76 309 108.1C308.86 102.98 309.34 95.9805 306.68 91.4205C306.42 90.9705 305.33 89.3205 304.89 89.2205L303.11 90.2105C302.88 89.3205 304.32 87.9205 302.96 87.4205C302.4 87.2205 302.44 88.0805 302.36 88.3905C299.82 97.6505 302.61 107.15 300.73 115.85C300.65 116.23 300.49 117.26 300.01 117.36C299.22 115.33 300.21 113.38 300.3 111.41C300.6 105.12 300.33 98.6205 300.01 92.3705C299.9 90.2305 300.07 87.6305 299.71 85.5405C299.62 85.0405 298.23 82.9405 297.83 82.1505C297.65 81.7905 297.99 81.4605 297.19 81.6005C297.92 84.5905 296.47 87.1705 296.07 90.1005C295.72 92.6905 296.09 95.4205 295.76 97.9405C295.73 98.1405 295.48 99.2905 294.95 98.8505C294.42 98.4105 294.75 92.5505 294.68 91.3605C294.45 87.5405 293.61 83.7305 292.41 80.0805L292.4 80.0605ZM296.25 171.44C295.03 171.73 295.13 173.45 294.8 174.2C294.29 175.38 292.51 176.73 293.01 178.33C293.09 178.57 293.76 179.22 293.99 179.26C294.7 179.37 295.99 176.38 296.21 175.74C296.34 175.36 297.18 172.22 297.18 172.03C297.18 171.56 296.78 171.32 296.25 171.45V171.44ZM287.62 174.7C286.46 173.84 286.02 177.87 285.86 178.57C285.45 180.43 284.5 183.24 284.28 185C284 187.27 285.35 190.63 287.11 187.56C287.86 186.27 288.33 179 288.19 177.35C288.11 176.41 287.71 175.61 287.61 174.69L287.62 174.7Z" fill="white"/>
<path d="M262.591 109.26C261.651 107.47 260.371 107.52 260.501 105.05C260.511 104.76 260.321 104.35 260.781 104.42L261.191 105.19L263.871 107.46C263.611 105.82 261.981 104.24 261.691 102.71C261.491 101.66 262.021 99.9198 261.881 99.5198C261.691 98.9798 260.801 99.0398 260.571 98.7798C260.341 98.5198 259.911 96.7198 259.481 96.0798C258.851 95.1098 257.991 94.9498 257.751 93.8298C257.721 93.6598 257.691 93.4898 257.671 93.2998C257.551 93.2198 257.431 93.1298 257.301 93.0498C256.911 92.7998 256.491 92.5398 256.321 92.1298C256.211 91.8798 256.221 91.5998 256.191 91.3298C256.041 90.0598 255.051 88.8798 255.321 87.6298C255.321 87.5898 255.341 87.5398 255.351 87.4998C254.851 88.1498 253.781 89.1898 253.321 89.1898C252.281 89.1898 251.381 86.4398 251.061 85.6398L250.371 82.0798C249.811 83.2198 249.971 84.5298 249.681 85.6398C249.391 86.7298 248.661 87.0798 248.251 87.9098C247.901 88.6098 248.211 89.8998 247.371 90.1598C246.051 90.5598 243.191 88.5798 242.381 87.6398C240.381 85.3098 241.081 83.7698 241.371 81.0598C240.711 81.4998 240.641 82.6098 240.331 83.2798C240.191 83.5898 239.751 83.5498 239.691 83.7698C239.491 84.5598 239.361 85.5598 239.121 86.3798H238.841C238.691 85.1598 236.491 86.0998 235.661 85.6298C233.791 84.5698 234.631 81.3498 234.631 79.9198C234.631 77.7198 234.121 75.5498 234.371 73.3398C234.741 70.0998 236.601 66.2098 238.831 63.6698C238.871 63.4798 238.541 63.4998 238.411 63.5498C237.091 64.0698 233.141 70.7898 232.581 72.2498C230.851 76.8398 231.441 82.2598 228.091 86.4698C226.461 88.5198 224.221 87.0498 223.641 85.1198C221.901 85.3698 223.161 88.1298 223.691 89.0098C224.761 90.7598 227.621 91.4898 228.711 92.8498C228.811 92.9698 230.041 95.3098 230.161 95.5998C231.731 99.3498 230.341 100.81 230.671 104C230.741 104.67 231.411 105.24 231.521 106.29C231.581 106.79 231.591 109.24 231.391 109.49L229.541 110.11C231.941 112.49 230.971 114.74 230.931 117.45C230.911 118.59 231.401 120 231.171 120.96C230.641 123.18 227.631 121.49 227.571 122.03C227.481 123.02 228.681 123.21 229.221 123.84C230.711 125.57 231.091 129.28 230.941 131.41C230.771 133.76 230.811 134.49 230.891 136.74C230.941 138.36 229.851 140.6 229.811 142.08C229.761 143.74 231.041 145.08 230.651 147.13C230.581 147.49 229.291 150.24 229.031 150.74C228.141 152.43 227.291 153.92 225.331 154.75C226.341 155.6 228.021 154.97 229.181 154.67L229.821 155.01C229.151 157.42 227.421 159.11 225.331 160.59C225.221 161.3 226.191 160.79 226.741 161.09C227.541 161.53 228.491 167.63 228.431 168.72C228.361 170.24 227.711 171.78 227.581 173.28C226.951 180.41 226.091 187.48 225.901 194.59C225.861 196.36 225.161 198.57 225.051 200.42C224.971 201.72 225.101 203.05 225.051 204.35C225.851 204.48 225.511 204.16 225.691 203.8C226.851 201.51 226.631 197.52 227.041 194.86C227.601 191.19 228.781 188.39 229.811 184.93C231.021 180.88 230.651 179.26 232.981 175.35C234.071 173.52 233.941 171.52 234.461 169.58C234.551 169.27 235.011 167.29 235.601 168.06C236.371 169.06 235.911 171.92 236.021 173.26C236.191 175.27 236.821 177.67 236.871 179.6C236.951 182.24 234.921 190.04 236.431 191.92C237.091 192.74 237.401 190.56 237.431 190.28C237.641 188.09 237.251 185.65 237.431 183.42C237.551 181.84 238.251 179.95 238.281 178.35C238.361 174.5 237.921 170.67 238.291 166.7C238.521 164.27 239.391 162.03 241.351 160.33L241.911 160.59V165.66C241.911 165.8 242.391 166.79 242.751 166.8C242.241 164.69 243.381 162.72 243.601 160.84C243.741 159.6 243.361 157.93 243.601 156.78C243.761 156.02 245.481 154.99 245.571 153.99L241.701 155.07C239.001 155.04 240.131 153.45 239.931 151.98C239.661 150.06 238.231 148.43 238.611 146.18C238.741 145.42 239.381 144.63 239.401 143.83C239.421 142.99 238.861 142.55 238.801 141.81C238.711 140.79 239.371 140.11 239.401 139.27C239.431 138.36 238.981 137.72 239.171 136.55C239.251 136.08 240.331 133.21 240.651 133.07C241.271 132.8 241.911 135.2 241.911 135.48V141.95C242.771 142.07 242.361 141.75 242.481 141.33C243.241 138.7 242.461 135.55 243.441 132.8C243.821 131.73 245.371 131.15 246.411 131.92C246.631 132.14 247.801 137.18 247.831 137.76C247.961 140.67 245.751 144.43 248.091 146.77L248.381 134.47C248.431 133.98 248.591 133.5 248.751 133.03C248.821 132.82 248.861 132.1 249.231 132.44C249.571 132.84 249.841 133.29 249.991 133.78C250.981 136.99 250.761 143.19 250.651 146.66C250.621 147.59 250.201 148.41 250.361 149.45C250.411 149.8 250.511 150.2 250.921 149.83C252.041 147.58 251.151 145.19 251.191 142.84C251.251 139.72 251.581 136.32 251.771 133.22C251.841 131.98 252.631 128.24 253.331 127.26C253.661 126.8 254.321 126.42 254.721 125.98C254.861 126.1 255.041 126.21 255.101 126.39C255.381 127.25 255.661 130.14 255.711 131.16C255.811 133.1 255.391 134.97 255.711 136.88C256.401 136.6 256.501 135.41 256.561 134.73C256.841 131.76 256.051 124.49 258.941 122.41C260.151 121.54 261.261 122.57 261.771 121.65C262.191 120.9 260.481 120.05 260.271 119.19C259.761 117.15 260.241 115.35 262.081 114.08C262.831 113.57 263.801 113.8 263.861 112.62C263.911 111.63 263.281 111.44 262.961 110.67C262.761 110.2 262.801 109.65 262.581 109.23L262.591 109.26ZM249.561 117.76C249.261 119.48 250.051 120.55 247.571 121.42L246.161 117.61C245.991 118.9 246.381 120.57 246.161 121.8C245.861 123.45 244.081 124.45 242.381 124.71C241.761 124.38 242.051 123.7 241.781 123.21C240.661 121.14 239.571 118.32 239.421 115.93C239.341 114.65 240.271 112.96 240.271 111.65C240.271 110.31 239.331 108.67 239.151 107.31C238.861 104.98 239.591 103.81 239.931 101.72C240.201 100.06 239.671 97.1298 241.651 96.2998C241.981 96.5898 242.121 101.12 242.251 101.98C242.721 104.97 243.921 108.11 243.921 111.14C243.921 111.98 243.661 112.64 243.611 113.42C243.591 113.7 243.431 114.38 243.901 114.32C244.181 112.44 244.641 110.49 244.721 108.59C244.821 106.35 244.311 104.02 244.171 101.78C244.131 101.04 244.051 98.0198 244.321 97.5798C244.691 97.1398 244.731 97.4898 245.031 97.7098C247.621 99.5498 246.581 99.6898 246.701 102.03C246.761 103.23 247.431 104.39 247.551 105.58C247.701 107 247.441 108.58 247.551 110.02C247.891 110.42 248.061 110.02 248.111 109.64C248.341 107.86 248.081 102.67 249.101 101.65C249.341 101.41 249.501 101.21 249.811 101.52C250.421 102.47 251.521 102.7 252.021 103.83C252.831 105.65 252.301 108.91 251.621 110.77C250.631 113.48 250.061 114.82 249.551 117.78L249.561 117.76ZM252.211 118.63C251.261 117.81 251.171 114.93 252.631 114.57L252.211 118.63Z" fill="white"/>
<path d="M217.771 70.93C218.301 70.87 217.971 71.43 217.921 71.7C217.451 74.38 217.481 76.46 217.481 79.17C217.481 80.93 217.211 82.63 218.121 84.43C218.531 85.24 219.791 85.8 220.261 86.56C221.171 88.04 220.991 89.2701 222.551 90.8301C223.911 92.1801 224.151 92.38 225.351 93.88C226.451 95.27 231.201 97.4001 225.511 96.8301L225.211 97.0501C223.401 100.82 227.071 104 229.841 106.32C230.171 106.89 228.231 106.78 227.731 107.21C227.611 107.31 226.651 109.03 226.591 109.23C226.191 110.63 227.221 111.56 227.321 112.9L225.891 114.44C225.711 116.16 230.171 118.18 228.271 119.36C226.901 120.22 225.891 119.84 225.631 122.05C225.181 125.87 227.191 126.26 228.031 128.76C228.721 130.79 227.481 131.17 226.891 132.57C225.481 135.94 226.341 136.58 226.491 139.8C226.551 141.09 226.651 149.78 226.191 150.09C224.641 149.45 225.591 147.74 225.561 146.65C225.491 143.65 224.901 141.31 223.671 138.54C223.541 138.25 223.891 138.06 223.111 138.16C223.081 139.39 221.271 141.18 221.141 142.12C221.041 142.87 221.471 143.57 221.431 144.37C221.381 145.42 220.701 146.78 220.581 147.94C220.431 149.5 220.921 152.18 220.541 153.48C220.451 153.79 220.171 154.02 219.871 153.64C219.121 152.7 219.941 150.79 218.431 150.12C216.881 149.85 215.631 154.49 215.511 155.53C215.291 157.47 216.141 159.61 215.781 161.61C215.611 162.56 214.551 163.53 214.391 164.92C213.781 169.99 215.091 175.7 214.361 180.88C214.291 181.36 214.101 181.96 213.681 182.3C213.661 180.9 213.331 179.2 213.321 177.86C213.301 174.37 213.851 170.73 213.551 167.2C213.411 165.54 213.271 164.97 213.281 163.15C213.291 160.23 212.861 157.97 212.141 155.15C211.711 155.19 211.711 155.54 211.601 155.8C210.631 158.04 209.661 159.7 209.441 162.17C209.401 162.7 209.731 163.25 209.621 163.89C209.521 164.45 208.011 165.64 207.711 166.75C207.301 168.25 207.861 169.94 207.651 171C207.541 171.55 206.471 172.28 206.111 173.17C205.041 175.8 204.821 181.79 204.821 184.71C204.821 188.24 205.131 192.95 204.831 196.38C204.301 202.43 203.561 208.59 202.871 214.65C202.721 216.02 202.781 217.54 202.581 218.96C202.531 219.31 202.381 219.77 202.021 219.34C202.081 216.51 201.941 213.66 202.011 210.83C202.211 202.25 202.981 194.07 202.311 185.47C202.051 182.12 201.661 179.44 201.761 176.1C201.851 173.09 201.541 170.54 201.461 167.7C201.441 166.95 201.811 166.36 201.731 165.46C201.681 164.87 201.061 163.27 200.491 163.02C200.021 162.81 200.051 163.31 199.931 163.51C198.701 165.61 199.201 167.77 198.921 169.96C198.801 170.85 198.231 171.74 198.131 172.55C197.341 178.65 197.551 184.78 197.551 190.92L196.571 190.41L197.011 167.45C196.701 163.81 195.821 160.63 195.861 157.05C195.881 155.33 195.811 154.34 194.451 153C194.191 152.75 193.811 152.14 193.471 152.61L192.211 159.08C192.321 165.38 190.941 171.58 191.071 177.86C191.091 178.71 191.441 179.41 191.371 180.38C191.281 181.6 190.741 182.09 190.101 180.76C189.421 179.35 189.901 175.55 189.961 173.79C190.121 169.11 190.451 164.27 190.531 159.59C190.601 155.24 188.891 144.51 186.641 140.75C186.161 139.95 185.051 139.51 185.171 138.39C184.431 138.32 184.731 138.4 184.601 138.76C183.711 141.44 182.731 144.05 183.501 146.87L183.211 149.04C183.181 143.57 181.261 138.24 182.441 132.75C182.851 130.83 184.121 128.76 184.331 126.84C184.611 124.33 184.671 117.61 183.361 115.54C182.841 114.71 182.211 114.66 181.811 113.92C181.891 112.83 182.961 112.22 183.421 111.3C184.301 109.53 183.971 107.31 184.421 105.35C185.041 102.61 186.261 99.3101 186.031 96.4001C185.971 95.6501 185.591 94.97 185.461 94.24C184.141 95.78 184.341 98.43 183.981 100.38C183.761 101.59 183.111 102.97 182.961 104.03C182.911 104.38 183.221 108.19 182.101 107.43C181.951 106.8 181.681 106.19 181.501 105.56C180.561 102.21 181.431 98.8701 180.271 95.2601C179.891 94.0701 178.451 91.89 178.471 90.84C178.501 89.34 180.491 87.9101 181.221 86.4701C182.201 84.5201 182.441 80.5001 182.081 78.4001C181.941 77.5601 180.091 75.2101 179.521 74.1101C177.321 69.8901 175.391 65.2301 175.641 60.4901L176.621 64.81C177.591 68.18 179.931 72.1401 182.391 74.8301C183.431 75.9701 185.181 76.95 185.991 78.43C187.011 80.28 186.631 82.5401 188.011 84.2301C192.291 84.4801 193.621 79.0801 193.651 76.0801C193.651 75.4801 192.921 74.5 193.921 74.7C194.401 77.53 194.081 81.69 193.001 84.39C192.211 86.35 189.201 89.1001 188.591 91.4401C190.341 90.7401 190.701 88.7701 191.671 87.7601C193.731 85.6301 193.461 85.9 195.091 83.49C196.851 80.89 199.841 78.6201 199.541 75.3301C199.471 74.6101 199.081 73.94 199.011 73.27C198.801 71.21 198.801 69.1401 198.421 67.0801L200.341 71.31C203.531 75.95 205.641 70.51 206.211 67.64C207.241 62.44 207.371 58.1801 207.391 52.9901C207.391 50.6901 208.231 48 208.821 45.76C209.331 45.7 209.061 46.3001 209.021 46.5801C207.901 54.1501 209.611 56.99 210.751 63.93C211.301 67.25 211.081 70.97 212.611 74.18C213.031 75.07 214.251 75.62 214.511 76.28C214.791 76.99 213.991 78.29 215.421 78.99C216.181 78.34 215.721 77.28 215.911 76.39C216.281 74.64 217.331 72.63 217.811 70.88L217.771 70.93ZM209.051 97.57C208.911 95.76 209.121 93.9301 209.051 92.1101C209.001 90.6401 209.111 88.81 208.611 87.43C208.381 86.79 207.861 85.9901 207.351 85.5101C205.611 84.6701 204.901 89.66 204.821 90.6C204.331 96.32 205.301 102.84 204.831 108.62C204.791 109.11 204.671 109.54 204.531 110L203.681 109.89C202.861 109.35 203.791 101.51 203.711 99.9701C203.631 98.4301 203.171 96.8801 203.131 95.1501C203.091 93.4201 203.981 90.98 202.121 89.74L200.481 90.7301C198.911 94.2301 200.591 98.39 200.051 102.14C199.201 102.29 199.281 101.11 198.881 100.53C197.411 98.36 196.511 100.35 196.381 102C196.211 104.11 197.041 106.34 196.671 108.48L195.551 103.66C194.801 103.6 195.101 103.66 194.991 104.04C194.641 105.36 194.261 107.5 194.491 108.8C194.691 109.95 195.581 111.38 195.551 112.67C195.521 114.29 193.801 115.46 194.171 118.47C194.381 120.18 195.781 122.58 198.081 121.54C198.811 121.22 200.341 118.43 201.171 117.86C201.281 119.75 199.631 121.27 198.921 122.8C197.341 126.17 198.091 130.29 198.081 133.84L195.951 126.25C194.451 123.92 194.321 129.25 194.451 130.14C194.621 131.36 195.511 132.83 195.771 134.03C196.111 135.62 195.671 137.13 196.721 138.75C197.121 139.37 198.441 140.11 198.601 140.62C198.811 141.27 198.361 141.77 198.361 142.34C198.361 143.39 199.641 145.29 200.891 145.51C201.551 142.62 201.861 139.65 202.411 136.75C202.461 136.46 202.391 136.19 202.861 136.13C203.651 139.42 202.891 142.78 203.461 146.12C203.561 146.74 204.371 149.45 205.001 149.57C206.741 148.94 208.541 146.73 208.721 145.06C208.781 144.47 208.431 144.01 208.601 143.48C208.821 142.8 210.081 142.06 210.581 141.44C211.811 139.92 213.531 137.07 213.811 135.22C213.971 134.12 213.551 132.9 213.681 132.06C213.791 131.34 214.541 130.64 214.671 129.9C214.861 128.83 214.301 127.9 214.411 127.15C214.521 126.4 215.411 125.18 215.531 124.09C215.871 121.21 214.101 120.1 214.101 118C214.101 115.53 217.421 111.69 216.171 109.31C215.891 108.78 215.021 108.72 214.961 108.11C214.861 107.2 217.021 103.28 214.781 102.69C212.991 102.22 213.151 104.84 212.891 105.72C212.671 106.45 212.061 107.01 211.791 107.78C210.961 110.18 211.641 116.79 211.591 119.8C211.531 123.16 211.611 130.23 210.771 133.25C210.651 133.68 211.051 133.99 210.201 133.87C210.081 132.19 210.781 130.31 210.791 128.67C210.791 122.75 209.991 116.59 210.471 110.65C210.541 109.78 211.041 109.08 211.061 108.37C211.081 107.7 210.671 107.06 210.741 106.35C210.821 105.46 212.431 103.51 212.671 102.23C212.831 101.39 212.861 99.5701 212.741 98.7301C212.641 97.9601 212.071 97.4701 212.021 96.9701C211.961 96.3801 212.391 95.54 212.391 94.93C212.391 93.97 211.981 92.23 211.161 91.53C209.691 91.13 210.251 94.5901 209.841 95.3701L209.081 97.6L209.051 97.57Z" fill="white"/>
<path d="M265.969 165.69C265.789 166.79 264.849 166.3 264.629 165.38C263.899 162.42 266.229 158.01 263.579 155.42C263.369 155.42 261.029 157.88 260.789 158.22C258.019 162.04 259.549 167.4 258.659 171.65C258.139 171.5 257.909 170.93 257.839 170.49C257.329 167.61 258.449 165.07 257.109 162.01C256.979 161.72 256.759 160.82 256.279 160.99C255.999 161.09 255.139 162.06 254.709 162.36C254.159 162.74 253.059 163.02 252.819 163.44C251.409 167.93 250.709 172.56 250.509 177.22C249.949 177.86 249.449 175.54 249.419 175.29C249.109 172.49 249.579 165.06 250.499 162.36C250.629 161.97 253.759 157.13 254.009 156.9C254.729 156.25 256.179 156.03 257.119 155.39C258.849 154.22 261.109 151.12 261.979 149.37C262.179 148.98 262.759 148.67 262.839 148.36C263.159 147.16 262.189 146.14 260.779 146.24C260.479 146.26 257.979 147.28 258.389 146.39C258.929 145.39 262.099 144.65 262.529 144.16C262.749 143.91 264.539 138.54 264.569 138C264.709 135.74 262.939 135.92 263.149 133.95C263.309 132.43 264.809 131.2 265.069 130.09C265.189 129.56 265.459 127.13 265.399 126.63C265.339 126.06 264.919 125.53 264.829 124.96L261.749 125.45C261.429 124.21 262.989 124.06 263.679 123C265.249 120.59 264.739 118.17 265.189 115.74C265.549 113.8 267.479 112.67 266.309 110.3C266.089 109.86 265.399 109.53 265.399 109.09C265.399 108.8 267.259 107.08 267.279 105.33C267.279 104.55 266.329 99.3395 266.039 98.6295C265.399 97.0495 263.549 96.5995 262.649 95.3495C260.559 92.4495 260.879 90.5795 260.319 87.5495C259.789 84.6295 258.439 81.8695 258.949 78.7695L260.339 83.9795C261.489 86.5495 263.719 90.3195 267.249 90.1995C268.289 90.1695 269.049 89.6095 270.069 90.1695C271.009 90.6895 270.649 91.6695 270.879 92.4795C271.419 94.3395 271.939 96.6295 274.409 97.0395V97.4095C271.859 99.1995 272.139 102.42 271.599 105.03C272.729 108.24 274.469 110.56 273.839 114.15C273.729 114.78 273.189 115.22 273.069 115.75C272.659 117.57 276.119 120.04 275.399 121.4C275.249 121.68 274.709 121.91 274.479 122.35C273.289 124.56 271.869 130.54 272.189 132.93C272.409 134.59 273.599 137.13 273.599 138.79C273.599 140.45 272.459 141.8 272.759 143.84C272.959 145.19 274.509 146.6 274.149 147.88C274.109 148.04 272.889 148.43 272.439 148.93C270.199 151.43 272.779 156.95 271.319 159.97C270.659 160.42 269.269 153.2 267.379 156.53C267.209 156.83 265.989 161.11 265.989 161.36C265.989 162.63 266.179 164.5 265.989 165.67L265.969 165.69Z" fill="white"/>
<path d="M260.26 95.501C259.49 94.691 258.62 93.951 257.68 93.301C257.56 93.221 257.44 93.131 257.31 93.051C256.92 92.801 256.5 92.541 256.33 92.131C256.22 91.881 256.23 91.601 256.2 91.331C256.05 90.061 255.06 88.881 255.33 87.631C255.33 87.591 255.35 87.541 255.36 87.501C255.45 87.171 255.61 86.861 255.73 86.541" fill="white"/>
<path d="M342.789 20.04H323.829C323.579 20.04 323.449 19.92 323.449 19.66V0.38C323.449 0.26 323.579 0.13 323.829 0H342.789C342.909 0 343.039 0.12 343.159 0.38V19.66C343.159 19.91 343.039 20.04 342.789 20.04Z" fill="white"/>
<path d="M342.159 1V19.04H324.449V1H342.159ZM342.789 0H323.829C323.579 0.12 323.449 0.25 323.449 0.38V19.66C323.449 19.91 323.579 20.04 323.829 20.04H342.789C343.039 20.04 343.159 19.92 343.159 19.66V0.38C343.039 0.13 342.909 0 342.789 0Z" fill="white"/>
<path d="M342.05 205.19C346.14 207.08 352.09 208.09 359.9 208.09H363.87C364.12 208.09 364.24 207.96 364.24 207.84V188.68C364.12 188.43 363.99 188.3 363.87 188.3H357.18C350.37 188.3 346.15 185.91 344.29 181.12C343.3 178.6 342.8 174.44 342.8 168.52V48.7804C342.8 48.5304 342.68 48.4004 342.55 48.4004H323.59C323.46 48.5204 323.34 48.6504 323.34 48.7804V127.68C323.34 137.76 321.48 143.56 317.77 145.07C315.54 147.34 312.81 148.47 309.59 148.47H302.28C302.14 148.47 302.03 148.52 301.97 148.61C301.93 148.49 301.84 148.42 301.75 148.42H294.81C288.24 148.42 284.02 145.77 282.17 140.61C281.06 138.97 280.44 132.67 280.44 121.83V79.9804C280.44 68.6404 274.74 59.6904 263.21 53.2604C256.4 50.1104 249.82 48.5904 243.38 48.5904H240.03C231.73 48.5904 223.67 51.2404 215.62 56.4004C210.04 60.4304 206.32 65.7304 204.46 72.2804C203.72 74.9304 203.35 78.8304 203.35 83.8804V127.99C203.35 137.07 201.87 142.49 198.89 144.38C196.41 147.03 193.19 148.41 189.1 148.41H182.28C182.03 148.53 181.91 148.66 181.91 148.79C181.9 148.56 181.78 148.45 181.66 148.45H174.72C168.15 148.45 163.93 145.8 162.08 140.64C160.97 139 160.35 132.7 160.35 121.86V80.0104C160.35 68.6704 154.65 59.7204 143.12 53.2904C136.31 50.1404 129.73 48.6204 123.29 48.6204H119.94C111.64 48.6204 103.58 51.2704 95.53 56.4304C89.95 60.4604 86.23 65.7604 84.37 72.3104C83.63 74.9604 83.26 78.8604 83.26 83.9104V128.02C83.26 137.1 81.78 142.52 78.8 144.41C76.32 147.06 73.1 148.44 69 148.44H62.19C62.19 148.44 62.15 148.46 62.13 148.47C62.09 148.46 62.05 148.45 62 148.45H54.69C51.47 148.45 48.74 147.32 46.51 145.05C42.79 143.53 40.93 137.74 40.93 127.66V48.7804C40.93 48.6504 40.81 48.5304 40.68 48.4004H21.72C21.59 48.4004 21.47 48.5204 21.47 48.7804V168.52C21.47 174.44 20.97 178.6 19.98 181.12C18.12 185.91 13.91 188.3 7.09 188.3H0.37C0.25 188.3 0.12 188.42 0 188.68V207.84C0 207.96 0.12 208.09 0.37 208.09H4.34C12.15 208.09 18.1 207.08 22.19 205.19C34.71 200.02 40.91 187.67 40.91 168.39V164.61C45.5 166.25 50.58 167 56.4 167H61.87C61.93 167.08 62.03 167.12 62.17 167.12H66.63C80.64 167.12 90.3 163.09 95.63 154.89C97.24 153 98.73 150.1 99.97 146.44C100.22 145.56 100.46 145.18 100.59 145.18C106.04 147.57 112.73 148.71 120.79 148.71H122.65C130.71 148.71 137.53 147.57 143.23 145.18V145.31C145.83 153.25 150.29 159.05 156.37 162.7C161.45 165.6 168.39 167.11 177.19 167.11H181.65C181.78 167.11 181.9 166.98 181.9 166.73C181.91 166.95 182.03 167.07 182.27 167.07H186.74C200.74 167.07 210.41 163.04 215.74 154.84C217.35 152.95 218.84 150.05 220.08 146.39C220.33 145.51 220.57 145.13 220.7 145.13C226.15 147.52 232.84 148.66 240.9 148.66H242.76C250.82 148.66 257.64 147.52 263.34 145.13V145.26C265.94 153.2 270.4 159 276.48 162.65C281.56 165.55 288.5 167.06 297.3 167.06H301.76C301.85 167.06 301.94 167 301.98 166.87C302.04 166.93 302.15 166.98 302.29 166.98H307.87C313.69 166.98 318.77 166.23 323.36 164.59V168.37C323.36 187.66 329.56 200.01 342.08 205.17L342.05 205.19ZM225.02 118.17C223.53 115.27 222.79 112.25 222.79 109.35V87.9304C222.79 81.3704 226.01 75.9504 232.58 71.5404C235.68 69.9004 238.78 69.0204 241.63 69.0204H242.25C248.82 69.0204 254.27 72.1704 258.36 78.6004C260.22 81.5004 261.09 85.1504 261.09 89.8204V107.72C261.09 117.92 256.26 124.74 246.59 127.89C245.1 128.27 243.61 128.39 242 128.52C234.81 128.52 229.11 125.12 225.02 118.18V118.17ZM104.92 118.21C103.43 115.31 102.69 112.29 102.69 109.39V87.9704C102.69 81.4104 105.91 76.0004 112.48 71.5904C115.58 69.9504 118.68 69.0704 121.53 69.0704H122.15C128.72 69.0704 134.17 72.2304 138.26 78.6504C140.12 81.5504 140.99 85.2104 140.99 89.8704V107.77C140.99 117.98 136.16 124.79 126.49 127.94C125 128.32 123.51 128.44 121.9 128.57C114.71 128.57 109.01 125.17 104.92 118.23V118.21Z" fill="white"/>
<path d="M341.79 49.4004V168.52C341.79 174.58 342.3 178.82 343.35 181.49C345.36 186.68 350.01 189.31 357.17 189.31H363.23V207.1H359.89C352.35 207.1 346.49 206.15 342.43 204.27C330.42 199.31 324.33 187.24 324.33 168.39V163.19L322.99 163.67C318.59 165.24 313.63 166.01 307.83 166.01H302.46L301.48 165.01L301.14 166.09H297.26C288.76 166.09 281.92 164.65 276.95 161.82C271.06 158.27 266.8 152.65 264.3 145.12V143.65L262.91 144.23C257.38 146.55 250.77 147.68 242.72 147.68H240.86C232.82 147.68 226.34 146.55 221.06 144.23L220.87 144.15H220.66C219.77 144.15 219.38 145.09 219.08 146.11C217.88 149.63 216.45 152.42 214.94 154.2L214.9 154.25L214.86 154.3C209.71 162.22 200.5 166.07 186.7 166.07H182.23C182.53 166.07 182.84 166.37 182.86 166.68L180.86 166.73C180.86 166.48 181.15 166.11 181.61 166.11H177.15C168.65 166.11 161.81 164.67 156.84 161.84C150.94 158.29 146.68 152.67 144.19 145.14V143.67L142.8 144.25C137.27 146.57 130.66 147.7 122.61 147.7H120.75C112.71 147.7 106.23 146.57 100.95 144.25L100.76 144.17H100.55C99.66 144.17 99.26 145.11 98.97 146.14C97.77 149.66 96.34 152.45 94.83 154.23L94.79 154.28L94.75 154.33C89.6 162.25 80.38 166.1 66.58 166.1H62.4L62.31 165.98H56.35C50.55 165.98 45.59 165.22 41.19 163.64L39.85 163.16V168.36C39.85 187.21 33.76 199.28 21.71 204.26C17.68 206.12 11.82 207.07 4.28 207.07H1V189.28H7.06C14.22 189.28 18.87 186.65 20.88 181.46C21.93 178.79 22.44 174.55 22.44 168.49V49.4004H39.9V127.68C39.9 138.14 41.87 144.11 45.91 145.92C48.29 148.28 51.24 149.48 54.66 149.48H61.91L62.28 149.59L62.46 149.47H68.98C73.21 149.47 76.73 148.04 79.42 145.21C82.66 143.05 84.24 137.44 84.24 128.05V83.9404C84.24 78.9704 84.6 75.1604 85.32 72.6204C87.11 66.3204 90.73 61.1704 96.08 57.2904C104.11 52.1504 111.91 49.6504 119.93 49.6504H123.28C129.67 49.6504 136.01 51.1404 142.66 54.2104C153.73 60.3904 159.34 69.0804 159.34 80.0404V121.89C159.34 137.66 160.65 140.31 161.18 141.12C163.22 146.67 167.78 149.48 174.72 149.48H181.66C181.24 149.48 180.93 149.16 180.91 148.87L182.28 148.84V149.45H189.1C193.33 149.45 196.84 148.02 199.54 145.19C202.78 143.03 204.35 137.42 204.35 128.03V83.9204C204.35 78.9504 204.71 75.1404 205.43 72.6004C207.22 66.3004 210.84 61.1504 216.19 57.2704C224.21 52.1304 232.02 49.6304 240.04 49.6304H243.39C249.78 49.6304 256.12 51.1204 262.77 54.1904C273.84 60.3704 279.46 69.0604 279.46 80.0204V121.87C279.46 137.64 280.77 140.29 281.3 141.1C283.34 146.65 287.9 149.46 294.84 149.46H301.2L301.66 150.93L302.62 149.51H309.62C313.04 149.51 315.98 148.31 318.37 145.95C322.41 144.14 324.37 138.17 324.37 127.71V49.4004H341.83M241.99 129.51H242.07C243.62 129.38 245.22 129.25 246.82 128.85H246.85L246.88 128.83C256.96 125.55 262.07 118.44 262.07 107.71V89.8104C262.07 84.9204 261.13 81.0804 259.19 78.0604C254.95 71.4004 249.25 68.0204 242.23 68.0204H241.61C238.65 68.0204 235.36 68.9304 232.09 70.6604L232.04 70.6804L232 70.7104C225.21 75.2704 221.77 81.0604 221.77 87.9304V109.35C221.77 112.44 222.58 115.65 224.11 118.63V118.66L224.14 118.68C228.38 125.87 234.38 129.51 241.98 129.51M121.9 129.55H121.98C123.53 129.42 125.13 129.29 126.73 128.89H126.76L126.79 128.87C136.87 125.59 141.98 118.48 141.98 107.75V89.8504C141.98 84.9704 141.04 81.1304 139.1 78.0904C134.86 71.4304 129.15 68.0504 122.14 68.0504H121.52C118.56 68.0504 115.27 68.9604 112 70.6904L111.95 70.7104L111.91 70.7404C105.12 75.3004 101.68 81.0904 101.68 87.9504V109.37C101.68 112.46 102.49 115.67 104.02 118.65V118.68L104.05 118.7C108.29 125.89 114.29 129.53 121.89 129.53M342.54 48.4004H323.58C323.45 48.5204 323.33 48.6504 323.33 48.7804V127.68C323.33 137.76 321.47 143.56 317.76 145.07C315.53 147.34 312.8 148.47 309.58 148.47H302.27C302.13 148.47 302.02 148.52 301.96 148.61C301.92 148.49 301.83 148.42 301.74 148.42H294.8C288.23 148.42 284.01 145.77 282.16 140.61C281.05 138.97 280.43 132.67 280.43 121.83V79.9804C280.43 68.6404 274.73 59.6904 263.2 53.2604C256.39 50.1104 249.81 48.5904 243.37 48.5904H240.02C231.72 48.5904 223.66 51.2404 215.61 56.4104C210.03 60.4404 206.31 65.7404 204.45 72.2904C203.71 74.9404 203.34 78.8404 203.34 83.8904V128C203.34 137.08 201.86 142.5 198.88 144.39C196.4 147.04 193.18 148.42 189.09 148.42H182.27C182.02 148.54 181.9 148.67 181.9 148.8C181.89 148.57 181.77 148.46 181.65 148.46H174.71C168.14 148.46 163.92 145.81 162.07 140.65C160.96 139.01 160.34 132.71 160.34 121.87V80.0204C160.34 68.6804 154.64 59.7304 143.11 53.3004C136.3 50.1504 129.72 48.6304 123.28 48.6304H119.93C111.63 48.6304 103.57 51.2804 95.52 56.4404C89.94 60.4704 86.22 65.7704 84.36 72.3204C83.62 74.9704 83.25 78.8704 83.25 83.9204V128.03C83.25 137.11 81.77 142.53 78.79 144.42C76.31 147.07 73.09 148.45 68.99 148.45H62.18C62.18 148.45 62.14 148.47 62.12 148.48C62.08 148.47 62.04 148.46 61.99 148.46H54.68C51.46 148.46 48.73 147.33 46.5 145.06C42.78 143.54 40.92 137.75 40.92 127.67V48.7804C40.92 48.6504 40.8 48.5304 40.67 48.4004H21.71C21.58 48.4004 21.46 48.5204 21.46 48.7804V168.52C21.46 174.44 20.96 178.6 19.97 181.12C18.11 185.91 13.9 188.3 7.08 188.3H0.37C0.25 188.3 0.12 188.42 0 188.68V207.84C0 207.96 0.12 208.09 0.37 208.09H4.34C12.15 208.09 18.1 207.08 22.19 205.19C34.71 200.02 40.91 187.67 40.91 168.39V164.61C45.5 166.25 50.58 167 56.4 167H61.87C61.93 167.08 62.03 167.12 62.17 167.12H66.63C80.64 167.12 90.3 163.09 95.63 154.89C97.24 153 98.73 150.1 99.97 146.44C100.22 145.56 100.46 145.18 100.59 145.18C106.04 147.57 112.73 148.71 120.79 148.71H122.65C130.71 148.71 137.53 147.57 143.23 145.18V145.31C145.83 153.25 150.29 159.05 156.37 162.7C161.45 165.6 168.39 167.11 177.19 167.11H181.65C181.78 167.11 181.9 166.98 181.9 166.73C181.91 166.95 182.03 167.07 182.27 167.07H186.74C200.74 167.07 210.41 163.04 215.74 154.84C217.35 152.95 218.84 150.05 220.08 146.39C220.33 145.51 220.57 145.13 220.7 145.13C226.15 147.52 232.85 148.66 240.9 148.66H242.76C250.82 148.66 257.64 147.52 263.34 145.13V145.26C265.94 153.2 270.4 159 276.48 162.65C281.56 165.55 288.5 167.06 297.3 167.06H301.76C301.85 167.06 301.94 167 301.98 166.87C302.04 166.93 302.15 166.98 302.29 166.98H307.87C313.69 166.98 318.77 166.22 323.36 164.59V168.37C323.36 187.66 329.56 200.01 342.08 205.17C346.17 207.06 352.12 208.07 359.93 208.07H363.9C364.15 208.07 364.27 207.94 364.27 207.82V188.66C364.15 188.41 364.02 188.28 363.9 188.28H357.21C350.4 188.28 346.18 185.89 344.32 181.1C343.33 178.58 342.83 174.42 342.83 168.5V48.7804C342.83 48.5304 342.71 48.4004 342.58 48.4004H342.54ZM241.99 128.51C234.8 128.51 229.1 125.11 225.01 118.17C223.52 115.27 222.78 112.25 222.78 109.35V87.9304C222.78 81.3704 226 75.9504 232.57 71.5404C235.67 69.9004 238.77 69.0204 241.62 69.0204H242.24C248.81 69.0204 254.26 72.1704 258.35 78.6004C260.21 81.5004 261.08 85.1504 261.08 89.8204V107.72C261.08 117.92 256.25 124.74 246.58 127.89C245.09 128.27 243.6 128.39 241.99 128.52V128.51ZM121.9 128.55C114.71 128.55 109.01 125.15 104.92 118.21C103.43 115.31 102.69 112.29 102.69 109.39V87.9704C102.69 81.4104 105.91 76.0004 112.48 71.5904C115.58 69.9504 118.68 69.0704 121.53 69.0704H122.15C128.72 69.0704 134.17 72.2304 138.26 78.6504C140.12 81.5504 140.99 85.2104 140.99 89.8704V107.77C140.99 117.98 136.16 124.79 126.49 127.94C125 128.32 123.51 128.44 121.9 128.57V128.55Z" fill="white"/>
<path d="M265.17 24.3994H246.08C245.96 24.3994 245.84 24.2794 245.84 24.0194V4.73937C245.84 4.60937 245.96 4.48937 246.08 4.35938H265.17C265.3 4.35938 265.42 4.47937 265.42 4.73937V24.0194C265.42 24.2694 265.3 24.3994 265.17 24.3994Z" fill="white"/>
<path d="M264.42 5.35938V23.3994H246.84V5.35938H264.42ZM265.17 4.35938H246.08C245.96 4.47937 245.84 4.60937 245.84 4.73937V24.0194C245.84 24.2694 245.96 24.3994 246.08 24.3994H265.17C265.3 24.3994 265.42 24.2794 265.42 24.0194V4.73937C265.42 4.48937 265.3 4.35938 265.17 4.35938Z" fill="white"/>
<path d="M238.151 24.3994H219.061C218.941 24.3994 218.811 24.2794 218.811 24.0194V4.73937C218.811 4.60937 218.941 4.48937 219.061 4.35938H238.151C238.271 4.35938 238.401 4.47937 238.401 4.73937V24.0194C238.401 24.2694 238.271 24.3994 238.151 24.3994Z" fill="white"/>
<path d="M237.4 5.35938V23.3994H219.81V5.35938H237.4ZM238.16 4.35938H219.07C218.95 4.47937 218.82 4.60937 218.82 4.73937V24.0194C218.82 24.2694 218.95 24.3994 219.07 24.3994H238.16C238.28 24.3994 238.41 24.2794 238.41 24.0194V4.73937C238.41 4.48937 238.28 4.35938 238.16 4.35938Z" fill="white"/>
<path d="M145.07 24.4404H125.98C125.86 24.4404 125.74 24.3204 125.74 24.0604V4.78039C125.74 4.65039 125.86 4.53039 125.98 4.40039H145.07C145.2 4.40039 145.32 4.52039 145.32 4.78039V24.0604C145.32 24.3104 145.2 24.4404 145.07 24.4404Z" fill="white"/>
<path d="M144.32 5.40039V23.4404H126.74V5.40039H144.32ZM145.07 4.40039H125.98C125.86 4.52039 125.74 4.65039 125.74 4.78039V24.0604C125.74 24.3104 125.86 24.4404 125.98 24.4404H145.07C145.2 24.4404 145.32 24.3204 145.32 24.0604V4.78039C145.32 4.53039 145.2 4.40039 145.07 4.40039Z" fill="white"/>
<path d="M118.061 24.4404H98.9707C98.8407 24.4404 98.7207 24.3204 98.7207 24.0604V4.78039C98.7207 4.65039 98.8407 4.53039 98.9707 4.40039H118.061C118.181 4.40039 118.301 4.52039 118.301 4.78039V24.0604C118.301 24.3104 118.181 24.4404 118.061 24.4404Z" fill="white"/>
<path d="M117.301 5.40039V23.4404H99.7207V5.40039H117.301ZM118.061 4.40039H98.9707C98.8407 4.52039 98.7207 4.65039 98.7207 4.78039V24.0604C98.7207 24.3104 98.8407 24.4404 98.9707 24.4404H118.061C118.181 24.4404 118.301 24.3204 118.301 24.0604V4.78039C118.301 4.53039 118.181 4.40039 118.061 4.40039Z" fill="white"/>
<path d="M40.4103 20.04H21.4403C21.1903 20.04 21.0703 19.92 21.0703 19.66V0.38C21.1903 0.13 21.3203 0 21.4403 0H40.4103C40.6503 0.12 40.7803 0.25 40.7803 0.38V19.66C40.7803 19.91 40.6503 20.04 40.4103 20.04Z" fill="white"/>
<path d="M39.7803 1V19.04H22.0703V1H39.7803ZM40.4103 0H21.4403C21.3203 0 21.1903 0.12 21.0703 0.38V19.66C21.0703 19.91 21.1903 20.04 21.4403 20.04H40.4103C40.6503 20.04 40.7803 19.92 40.7803 19.66V0.38C40.7803 0.26 40.6503 0.13 40.4103 0Z" fill="white"/>
</svg>
