<svg width="231" height="113" viewBox="0 0 231 113" fill="none" xmlns="http://www.w3.org/2000/svg">
<g clip-path="url(#clip0_1228_3)">
<path d="M47.17 5.00977C20.17 5.00977 0 19.9098 0 56.6098C0 67.5398 1.79 76.5398 5 83.7798L75.69 13.0498C67.84 7.61977 58.03 5.00977 47.17 5.00977Z" fill="url(#paint0_linear_1228_3)"/>
<path d="M209.84 67.1102C207.56 78.6602 201.45 85.4102 187.14 85.4102C177.73 85.4102 171.75 81.3502 168.14 74.9002L159.14 83.9002L159.31 83.4402V83.3802L159.37 83.2102L159.57 82.7702V82.7102L159.63 82.5302V82.4702L159.74 82.1002L159.86 81.6902V81.6302V81.5702V81.5102V81.4501V81.3902L159.98 80.9202V80.8602V80.8002L160.11 80.2602V80.1402L167.11 73.1402C166.199 71.13 165.482 69.0371 164.97 66.8902L160.73 71.1402V71.0402V70.8502V70.7702V70.4802V70.3802V70.1902V70.0902V69.8302V69.7302V69.5402V69.4402C160.73 69.2468 160.7 69.0568 160.64 68.8702V68.7802V68.6902V68.5102V68.4202V68.2302V68.1402V68.0502V67.9602V67.8702V67.7802V67.5902V67.5002V67.4102L160.53 66.9501V66.8602V66.7702V66.6802V66.5902V66.5002V66.4102V66.3202V66.2302V66.1402V66.0502V65.9602V65.8702V65.7102V65.6202V65.5302V65.3802V65.2902L164.87 60.9402C164.764 60.0268 164.674 59.0968 164.6 58.1502L159.73 63.0302V62.9502V62.8702V62.7902V62.7102V62.6302L159.66 62.4802L159.59 62.3302V62.2502L159.5 62.0502V61.9702V61.8902V61.8102V61.7302V61.6802V61.6002V61.5202V61.4402V61.3802V61.3002V61.2202V61.1402L159.39 60.9302V60.8602V60.8002V60.7302V60.6602V60.5902V60.5202L159.27 60.3002V60.2302L159.15 60.0102V59.9402V59.8702V59.8002V59.7302V59.6602L159.07 59.5202V59.4602V59.3902L158.95 59.1902V59.1202L158.86 58.9802V58.9302V58.8602L158.77 58.7202L165.87 51.6202C166.05 33.7302 171.53 19.0002 189.45 19.0002C203.31 19.0002 209.45 25.3302 211.92 36.2302H233.05C228.25 10.0302 211.05 0.660156 189.44 0.660156C175.33 0.660156 163.18 5.87016 155.13 16.3802L154.71 16.9402L154.62 17.0702L154.22 17.6502L154.1 17.8302L153.71 18.4202L91.7002 77.7702L91.8202 77.3902V77.2502V77.1102L91.8902 76.8702L91.9402 76.7001L92.0202 76.4202V76.2802V76.1402V76.0002V75.8602V75.7202V75.6502V75.5802L92.0902 75.3202V75.1802V75.0402V74.9002V74.7602V74.6202V74.4802V74.3402V74.2001V74.0602V73.9202V73.7802V73.6402V73.4902V73.3402V73.1902V73.0402V72.8902V72.7402V72.5902V72.4402L92.1502 72.1402V71.9902V71.8402V71.6902V71.5402V71.3902V71.2402L92.2002 70.9602V70.8102V70.6602L92.2602 70.3602V70.2102V70.0602L92.3102 69.7502V69.6002V69.4501L92.3602 69.1402V68.9902V68.8302V68.5202L148.19 12.6402C147.63 12.1735 147.057 11.7268 146.47 11.3002L94.2702 64.8902V64.6602V64.3202V63.9802V63.5202V63.2902V62.9402V62.7102V62.2402V62.0102V60.1102V57.3102L143.44 8.47015C139.205 6.40371 134.553 5.33309 129.84 5.34016H79.4102V16.5302L7.49023 88.5302C7.8769 89.1968 8.27357 89.8202 8.68023 90.4002L79.4102 19.6002V26.7702L11.8202 94.4402C13.1393 95.9183 14.5738 97.2893 16.1102 98.5402L79.4102 35.1802V37.8702L17.6202 99.7102C25.6202 105.55 35.7702 108.21 47.1702 108.21C56.8102 108.21 65.6402 106.16 72.9902 101.89L84.3002 112.7L92.9802 103.62H128.98H130.22C135.171 103.646 140.056 102.485 144.467 100.236C148.877 97.9863 152.684 94.7131 155.57 90.6902C163.52 99.0502 174.57 103.21 187.14 103.21C208.86 103.21 226.14 93.7102 230.84 67.1102H209.84ZM144.65 33.1102L144.54 33.5302V33.6402L144.4 34.2202V34.2702L144.21 35.0802V35.1302L144.15 35.4202C144.07 35.7802 143.997 36.1435 143.93 36.5102L86.7802 93.7702L85.4102 92.4602L144.67 33.1502V33.2002L144.65 33.1102Z" fill="url(#paint1_linear_1228_3)"/>
</g>
<defs>
<linearGradient id="paint0_linear_1228_3" x1="0" y1="44.3998" x2="75.69" y2="44.3998" gradientUnits="userSpaceOnUse">
<stop stop-color="#F3F5C6"/>
<stop offset="1" stop-color="#F3F5C6"/>
</linearGradient>
<linearGradient id="paint1_linear_1228_3" x1="7.49023" y1="56.3502" x2="230.83" y2="56.3502" gradientUnits="userSpaceOnUse">
<stop stop-color="#F3F5C6"/>
<stop offset="1" stop-color="#F3F5C6"/>
</linearGradient>
<clipPath id="clip0_1228_3">
<rect width="230.83" height="112.7" fill="white"/>
</clipPath>
</defs>
</svg>
