<?xml version="1.0" encoding="UTF-8"?>
<svg id="Layer_2" data-name="Layer 2" xmlns="http://www.w3.org/2000/svg" viewBox="0 0 274.93 364.23">
  <defs>
    <style>
      .cls-1 {
        fill: #fff;
      }

      .cls-2 {
        isolation: isolate;
      }
    </style>
  </defs>
  <g id="Layer_1-2" data-name="Layer 1">
    <g>
      <g id="Layer_2-2" data-name="Layer 2-2">
        <g>
          <path class="cls-1" d="M113.04,328.65c-.25.54-1.43.73-1.93.82-2.71.48-5.62-.05-8.28.67-3.17.85-2.7,2.78-.7,4.98-1.42.87-2.23-.64-2.99-1.88-2.02-3.3-2.01-5.99-5.71-8.01-2.31-1.26-9.27-1.21-11.73-.24-.67.26-3.8,2.01-4.05,2.54-.27.27-.12.51.13.71.37.28,4.5,1.2,5.2,1.26,2.84.27,5.67-.37,8.49-.27-.32.82-1.18,1.03-1.9,1.12-3.61.46-8.23-.16-11.86.35-6.07.85-11.66,6.13-18.15,7.43-.53.11-1.43.48-1.83-.06,3.48-1.07,6.75-3.26,9.72-5.53,4.44-3.41,11.24-10.8,10.86-17.25,0-.09,1.02-.5.47-1.53l.76.15.23-.82c-1.14-.23-2.87-4.85-3.78-4.1.56.91.74,2.28.34,3.31-.22.56-1.26.68-1.74,1.18s-.5,1.38-1.13,1.69c-.09-1.41.95-2.88.71-4.29-.36-2.06-3.31-5.67-5.03-6.54-1.59-.8-5.41-1.43-7.22-1.56-.66-.05-1.3-.04-1.91.29-.15-.71.29-.6.75-.7,1.69-.37,3.81-.22,5.36-1.11.87-.5,1.67-1.12.89-2.15-1.15-1.51-6.9-2.71-8.9-3.63-3.05-1.4-8.91-5-11.26-7.48-.27-.29-.64-.4-.53-.96,1.3.82,2.46,1.93,3.79,2.68,6.29,3.53,12.53,4.46,19.05,1.12.98-.5,2.23-1.51,2.23-2.82,0-.6-.41-1.27-.41-1.75,0-1.32,4.41-3.88,5.46-4.78.21-.18.47,0,.32-.64-.71.19-2.43.64-3.05.45-.32-.1-1.86-1.49-2.62-1.91-3.7-2.05-11.56-3.37-12.08-8.84-.05-.5.1-2.08.62-1.24.71,1.14.51,2.46,2.02,3.66.76.6,5.08,2.08,6.12,2.22,4.78.62,10.6-.54,14.3-4.05,0-.68-6.49-1.05-7.1-2.67.41-.21.95.28,1.14.28h4.06c.12,0,1.4-1.18,2.09-1.34.61-.14,1.23-.05,1.84-.06.24-.76-.62-1.39-.69-1.86-.08-.52.32-1.24.13-2.15-.14-.7-.98-1.36-.96-2.04.02-.73,2.75-2.78,2.17-4.35-.49-.91-4.54-.77-5.57-.87-1.85-.18-2.22-.57-4.41-.33-.28.03-.87.33-.81-.2,1.67-1.48,9.76-.4,8.18-4.43-.84-2.15-3.12-.97-4.18-1.25-1.32-.35-3.21-2.1-5.26-2.63-6.1-1.57-13-1.84-19.04-3.64-1.36-.4-3.21-1.17-4.31-2.11,2.1.42,4.17,1.26,6.28,1.61,3.94.66,7.66.05,11.61.06,1.93,0,3.89.59,5.95.01.45-.39-2.24-2.74-2.72-2.75l-4.89-1.46c2.42.41,5.67.27,7.97.86,1.66.42,3.1,1.53,5.1,1.66,1.49.1,5.35.03,4.95-2.38-.2-1.22-3.04-.37-4.2-.43-.36-.02-1.03.25-.89-.42,4.81.52,10.73-5.44,5.72-9.89l-2.67,1.03,1.99-1.72-.07-.82c-1.88-.24-3.47-1.92-5.2-2.39-1.25-.34-2.93-.18-4.15-.47-.76-.18-1.32-.98-1.95-1.21-3.89-1.47-5.34-1.12-9.22-3.84-2.88-2.01-5.54-4.46-7.53-7.53l4.49,3.6c2.02,1.11,4.13,2.82,6.36,3.36,1.34.32,7.99,1.35,9.08,1.2.84-.12,1.47-.7,2.3-.82.97-.15,2.41.21,3.23-.08.56-.19.6-.98.94-1.21.46-.3,1.31-.16,2-.59,2.7-1.69,1.05-7.56-.18-9.87-.79-1.49-4.46-3.77-6.03-4-2.41-.35-4.09.61-6.07,1.94-.17.06-.19-.27-.12-.42.27-.66,4.43-3.37,5.21-3.5.73-.13,3.53-.31,4.28-.28.81.04,1.61.8,2.37,1.03,1.54.47,4.41.53,5.77-.47.84-.62.48-1.41.76-2.25.27-.79,1.78-1.74.88-2.69-.31-.33-2.62-.95-3.17-.99-1.52-.1-3.47.71-5.09.85-.28.03-.95.21-.88-.28,1.78.15,3.87-1.59,5.26-1.91,1.72-.39,5.27.83,5.85-1.67.6-2.63-2.09-1.25-2.99-3.17.91-.13,1.76.3,2.66.3,2.19.01,1.61-1.09,2.8-2.27.32-.31,3.54-2.4,3.86-2.47,2.22-.56,3.14.67,4.53.77,1.36.1,4.01-1.25,5.08-1.39.77-.11,2.15.51,3.03.56,1.65.1,4.65.34,5.94-.71.61-.5.67-1.31,1.41-1.43,2.27,2.81,3.35-.07,4.54-.03.87.03,1.24,2.6,3.82,2.17.54-.09.93-.59,1.52-.55.7.05,1.7,1,2.81,1.12,2.47.27,2.72-1.34,3.8-1.37.8-.03,2.69.73,3.81.82,3.31.27,7.35.48,10.67.57,1.48.04,3.24-.93,4.69.4-1.2.94-2.65.16-3.92.13-1.95-.04-4.18-.11-6.11,0-.7.04-4.93.42-4.93,1,.81.98,1.43,1.69,2.54,2.24,6.45,3.21,18.4,3.47,25.49,3.24.71-.02,2.61-.89,2.67.56l-7.74.87c-3.65-.23-7.72-.18-11.39.3-.41.05-2.09.26-2.19.67-.4,1.72,3.03,1.7,3.82,1.95,7.92,2.51,14.93,3.15,23.2,3.27,1.35.02,2.97-.79,4.44-.02.09.72-.4.79-.88.85-3.02.4-6.36-.51-9.4-.29-1.83.13-3.83.82-5.71.84.02,1.33,1.55.7,2.38.87,2.76.57,5.53,1.58,8.39,1.67,2.69.09,5.46-.73,8.14-.58,5.75.31,11.57.25,17.27.82.58.06,1.17.08,1.76.04s4.71-1.21,4.68-.15c-2.16,1.74-4.81.36-7.24.41-8.42.17-16.95.98-25.35,1.43-2.36.12-4.43-.64-6.87-.58-1.91.04-4.66.33-6.58.58-.43.06-5.75.86-5.2,1.68,1.44.4,2.95.37,4.42.59,7.31,1.09,14.2,1.5,21.58,1.95,1.65.1,3.45-.17,5.09-.01,2.05.2,1.18,1.18-.51,1.15-6.04-.08-12.43-.83-18.51-.88-2.91-.03-6.77-.05-9.58.65-1.07.27-2.28,1.16-3.13,1.31-2.33.4-5.12-.36-6.94,2.17-.3,1.23,2.86,1.7,3.66,1.78,2.77.27,5.62.62,8.37.84,3.82.31,7.68-.5,11.45.53.31.08,1.11.16,1.11.6-.98.19-2.17.53-3.16.58-2.06.09-4.16-.58-6.1-.6-4.37-.03-8.86.45-13.19.59-2.88.09-5.71.98-8.58,1.17-1.61,2.47-1.4,1.05-3.35,1.05-1.73,0-6.15.3-7.75.71-.58.15-1.92.85-1.73,1.65,2.64,3.43,6.67,2.21,10.24,2.45.88.06,1.9.43,2.8.55,1.15.15,2.83-.56,3.42.84-.41.6-4.76-.26-5.7-.29-3.41-.12-10.9,1.55-13.57-.43-2.14-1.59-3.49-2.86-6.11-3.91-1.58-.64-1.58-.14-2.9-.13-2.56.01-5.58-.4-7.72,1.3l.21,1.6c-.21.41-.39.55-.83.41-.56-.17-3.62-4.03-4.39-4.7-2.25-.69-4.25-2.65-6.09-3.66-1.15-.64-2.64-.62-3.64-1.31-1.56-1.09-2.39-3.54-3.56-5.06-1.05-1.36-2.18-2.08-3.55-2.95-.11.15,1.24,3.34,1.41,3.63.37.62.9.73,1.23,1.17.97,1.28,1.04,2.82,2.56,4.19,1.79,1.62,3.16,1.04,4.87,1.92.65.34,1.15,1.13,1.96,1.48s3.21.31,3.18,1.25c-.38.47-1.1.7-1.64.7-2.74.02-6.14-.85-8.85-.55-2.02.22-1.79,1.56-2.24,1.9-.24.18-.78-.18-.7.33,2.33-.03,5.19-.89,7.46-.53.8.13,1.48.67,2.27.86,1.61.39,3.18.75,4.81.28.81.42.66,1.53,1.31,2.22,1.78,1.89,5.6,1.4,7.87,1.68,1.26.16,2.58.71,3.81.84,2.64.25,5.36-.27,7.99.29-.13.58-.37.45-.76.44-2.75-.08-7.85.02-10.51.42-1,.15-1.99,1.12-2.81,1.12s-2.42-1.24-3.57-1.4c-1.45-.2-2.8.35-4.3.26-1.35-.08-2.63-.8-4.03-.55-.76.13-2.95,2.02-2.94,2.95-.05.67,2.06,1.25,2.41,1.25h8.75c.08.54-.21.76-.64.85-.84.17-2.82-.35-4.05-.28s-6.97.9-7.74,1.55c-.23.19-.84,1.14-.76,1.26,1.33,0,2.38.97,3.49,1.33,3.31,1.08,6.47.45,9.83.63,1.83.1,3.56.96,5.51.51.75-.17,1.33-1.08,2.08-1.09.58,0,2.31.84,3.16,1.02,3.59.76,5.15-.02,8.51-.43,1.85-.23,2.09.4,3.68-1.26.59-.62,1.03-1.7,1.67-2.08,1.08-.65,2.52-.59,3.65-.18-1.31.59-3.61,1.19-3.18,3.24.32.7,4,1.18,4.82,1.13,1.46-.09,3.05-1.41,4.32-1.41s3.27,1.04,4.81,1.14c.83.05,5.83-.65,6.11-1.12,1.19-2.43-1.55-4.27-1.87-5.54-.52-2.09,2.59.48,3.2.68,5.31,1.72,15.47,2.22,21.25,2.55,1.44.08,3.1-.61,4.69.34-.44.88-2.1.6-2.92.56-5.36-.32-10.84-1.47-16.21-.24-.52.12-1.06.17-1.43.67-.31,1.46,7.03,3.6,8.16,3.88,5.36,1.33,11.71,2.31,17.08,1.03l4.7.57c-.06.46-1.17.66-1.48.68-5.25.35-10.25.09-15.61,1.03-1.51.26-2.82.72-4.21,1.38-.64.9,2.59,1.41,2.92,1.43,3.98.17,8.1.83,12.16.23.78-.12,1.62-.76,2.33-.81,1.25-.09,2.99.4,4.53.27,5.84-.49,18.18-4.99,23.48-8,.33-.19,2.55-2.25,2.27-1.14-.42,1.64-3.92,2.79-5.16,3.57-4.93,3.12-10.61,6.04-16.2,7.63-.9.25-3.04.37-3.5.62-.12.06-.32.36-.25.42,1.87.17,3.85.71,5.71.84,2.54.18,5.32-.35,7.79.37.47.13.84.07.7.75-3.51,1.21-7.02.03-10.54.27-3.41.23-6.77.81-10.14,1.13-2.55.25-10.24-.7-11.92,1.13-.75.82.35,1.85-.5,2.48-1.61-.05-1.86-1.28-2.7-2.03-.97-.87-5.39-3.19-6.56-3.41-.45-.08-.75.48-1.35.39-.9-.14-2.89-1.72-4.19-1.87-.67-.08-1.21.29-1.93.22-1.34-.13-2.37-1.14-4.08-.82-.38.07-.66.5-1.01.52-.95.07-3.44-1.12-4.83-1.1-.99.01-2.04.73-3.04.84-2.42.26-7.62-1.67-7.52,2.77-1.84.92-1.99-.39-3.18-1.32-3.17-2.45-3.54-1.02-6.82-1.16-2.75-.12-3.48-.24-6.34-.01-1.64.13-4.98-.42-6.08,1.14-.42.6-.1,1.26-1.02,1.14-.46-.06-.68-.92-1.31-1.38-3.46-2.57-12.07-1.98-15.76-.13-.53.26-1.27.6-1.33,1.36-.13,1.57,2.14,1.55,3.05,1.96.87.39,2.94,1.82,3.68,1.82h3.93l-1.78.99c2.92.72,6.67.58,9.66.02,1.05-.2,2.12-1.53,2.77.26-.18.94-4.86.64-5.71.71-1.13.1-2.42.43-3.56.56-1.59.18-3.38-.36-4.83.84-.36.49.15.69.46.91,1.12.79,9.01,2.07,10.71,2.18,1.29.08,2.72-.61,3.67.15-.04,1.26-5.79.32-6.9.99-.31.19-.36.71-.71.97-4.67,3.44-5.25,2.1-9.82-.07-2.06-.98-2.55-1.3-4.4-2.43-1-.61-5.49-2.7-6.04-.82-.66,2.26,2.86,1.18,3.64,1.21,2.7.08,2.38,2.88,4.21,4.07.57.37,4.3,2.1,5,2.33,2.95.97,4.62-.75,7.28-1.61l.1,1c.99,1.07,1.9-.32,2.94-.73,2.53-1,5.59-1.46,8-2.66,3.12-1.56,4.1-2.72,8-2.94.54-.03,1.03-.25.88.56-4.58.71-8.33,3.82-12.43,5.91l.12.56,7.74.7c-.58.85-1.52.58-2.3.83-.51.16-.98.53-1.44.65-1.64.41-9.7,1.32-9.71,3.87.38,1.3,2.38,1.66,3.47,1.79,1.15.14,2.93-.42,3.65.59-1.69-.15-3.33.26-4.99.46-.63.08-.83-.38-1.7.14-2.17,1.32-.34,4.2-1.81,5.86-.93-1.53-.92-3.51-1.69-5.15-1.45-3.06-5.83-5.76-8.95-5.23-.77.13-2.27,1.04-2.14,2.02.25,1.99,4.24,1.96,5.61,2.25.23.05.76.12.7.49-2.48.96-5.07.3-7.62.97-1.18.31-2.64,1.14-3.71,1.79-.46.28-2.73,1.65-2.62,2.15,1.63,1.36,3.82.75,5.69,1.01,1.01.14,2.17.71,3.32.82,1.32.12,6.57-.47,7.1.85l-.25.55c-.3-.24-.64-.29-1-.29-4.17-.04-8.93-.56-12.97-.28-1.27.09-4.68.52-5.55,1.44-.5.53-1.99,3.83-1.41,4.34,2.69.94,5.62.04,8.37.71l-2.66.56-3.68.29c-.68.52,4.53,1.64,4.95,1.68,4.23.39,8.74-.54,13.16.04.31.04,1.65.32,1.67.67l-4.68.43c-3.24.02-13.46-.21-15.62,2.46-1.12,1.39.6,2.18,1.72,2.51,1.85.55,5.84,1.09,7.8,1.2.83.05,4.49-.53,4.69-.27.35.45-.12.48-.32.63-1.36.97-4.97-.06-7.05.33-1.77.34-4.79,2.09-2.08,3.74.79.48,5.63,2,6.55,2.04,1.39.06,3.18-1.12,3.4-2.69.13-.92-.27-3.12.52-3.65.87-.58,2.3,1.04,4.69-.98.81-.69,2.63-3.46,2.88-4.42.19-.74-.23-1.3-.23-1.92.02-2.27,4.61-3.95,5.76-5.29,1.81-2.11,1.49-5.46,3.71-7.41.75-.66,2.27-.91,3.09-2.06,1.04-1.45.8-3.9.75-5.63,1.74-.55,4.83-1.32,4.96-3.81.04-.85-.52-1.48-.01-2.24.36-.53,3.92-2.04,4.97-2.93,3.37-2.88,3.71-6.61,8.33-8.77,1.03-.48,3.7-.83,4.87-.82.7,0,1.34.32,1.9.73.2.69-1.38.39-1.84.49-1.93.44-3.83,1.7-5.26,3.17l.38.7h3.81c.68,0,4.38-.81,5.09-1.11,3.48-1.47,5.54-6.28,10.64-5.92.45.03,2.35.29,2.16,1.12-2.45-.02-4.13-.42-5.83,1.84-.53.71-1.71,2.32-.26,2.26,3.74-.16,6.79,1.55,10.28,1.52.48,0,.98-.29,1.52-.3.97-.02,2.33.6.64,1.01s-3.64.34-5.4.78c-.72.18-2.66.6-1.44,1.45,2.26,1.57,3.94.93,6.17,1.31,1.94.33,4.1,1.23,6.1,1.39,2.89.23,6.38-.53,9.35-.47,3.74.08,7.35,1.02,11.2.73.86-.06,1.66-.57,2.54-.58,1.44-.02,2.13.64.38,1.28-2.89,1.05-6.78.17-9.75.13-4.11-.05-8.18.31-12.18.28-2.3-.01-4.39-.15-6.55.92-1.06.52-1.68.89-.56,1.91,2.67,2.43,6.98,3.83,10.4,4.21s6.99-.49,10.27.29c-.1.57-.54.46-.89.56-2.33.66-4.88,0-7.33.6-1.14.28-2.22,1.18-3.45,1.09-.09.48.1.58.43.78,2.32,1.44,5.15.91,7.55,1.19,8.01.92,15.55,1.05,23.61,1.13,1.42.01,3.27-.61,4.68.41-.97.54-2.07.89-3.16.99-4.34.42-8.89-.27-13.19-.3-7.45-.06-14.87-.01-22.3.62l-.42.66.58.48c6.55,3.58,14.38,2.18,21.49,3.17.68.42-.62.92-.91.97-3.53.67-7.36.28-11.15.86-1.05.16-4.32-.22-1.66,1.29,3.58-.04,7.23.65,10.8.63,3.52-.02,8.83-.51,12.4-1.1,3.82-.62,7.89-2.83,11.05-5.2.4-.12.58.59.95.7.21.06,3.56-1.04,4.13-1.23,6.4-2.2,12.75-5.45,18.84-8.64,1.92-1.01,3.83-2.08,5.65-3.3.44.35-.11.59-.3.79-2.81,2.86-5.24,3.68-8.28,5.73-1.17.79-7.39,5.03-7.79,5.71-.14.24-.44.28,0,.57.13.08,2.52.7,2.67.7h5.58l.38.42-.38.7h-8.12c-.35,0-5.83,1.57-6.73,1.82-.39.11-2.93,1.15-3.01,1.3-.06.1-.05.77-.03.81.18.25,5.02,1.01,5.74,1.09,1.08.12,2.18,0,3.26.04,7.37.24,14.94.38,22.32.55,8.58.19,17.2.31,25.77.71v.86s-12.81.15-12.81.15c-14.13.16-27.99,1.18-42.12,1.69-3.9.14-8.1-.32-11.94-.02-1.29.1-3.05.84-4.06.87-1.83.06-2.6-1.18-5.51-.51-.6.14-3.31.98-3.73,1.21-.54.29-.78.91-.09,1.2l15.49,1.25.32.49c-.83-.13-1.6.24-2.4.3-5.75.41-12.37-.24-18,.86-1.61.31-2.57,1.2-4.01,1.74-2.11.79-4.45.95-6.54,1.89-.48.69,4.6,1.64,4.95,1.68,3.09.41,6.14.04,9.04.17,1.37.06,3.22.67,4.64.69,1.69.03,6.11-.87,7.34.02.3.22.49.35.41.81l-7.48.58c-6.12-.67-12.17-.55-18.09.75-1.02.22-6.92,1.09-6.9,2.19,1.55,1.26,3.76.49,5.64.78s3.64,1.63,5.47,2.09c2.78.7,6.5,1.16,9.31,1.18,6.51,1.06,13.21.78,19.8,1.15l.38.56c-.91-.17-1.77.24-2.65.3-11.39.75-23.2-1.16-34.51.27-.61.08-1.19.22-1.67.68-.53.65.14,2.4-.64,2.68-.72.26-2.54-1.65-3.58-1.88-.73-.17-4.33-.19-4.89.08-.38.19-.99,1.18-1.61,1.59-.98.66-2.08.61-2.71,1.35l6.34.98c-.96,1.15-2.44.56-3.68.71-1.69.2-6.14.64-7.24,1.81-.44.47-.85,1.11-.73,1.81.41.07.81.45,1.18.53,1.68.33,5.2.83,6.83.8,1.24-.02,2.52-.5,3.77-.48,2.57.04,5.21.22,7.86.3l8.75.28c.12.72-.11.5-.51.69-1.94.88-6.02.42-8.25.45-3.51.05-7.12.22-10.64.26-2.97.03-6.63.47-9.59.93-3.87.61-.85,3.1,1.01,3.52,1.17.26,4.11.29,5.51.36,1.9.09,3.82-.09,5.72-.01.41.35,0,.51-.38.56-1.17.17-2.59-.12-3.81,0-2.4.24-3.55.53-6.08.55-2,.01-6.16-.42-6.69,2.47-.11.62.84,4.6,1.1,5.42.21.65,6.05,9.03,6.71,9.71,1.08,1.11,3.1,2.15,4.32,3.23l-.38.55c-2.95-2.45-6.87-3.95-9.39-7.02-1.92-2.34-3.09-6.39-4.57-8.43-.73-1-2.66-2.19-3.27-3.41-.49-.97-.29-2-.63-2.95-.24-.66-.89-1.01-1-1.45-.18-.7.26-1.3.05-2.27-.13-.61-1.01-2.23-1.4-2.69-2-2.39-5.42-1.68-7.31.52,0,.38,1.74,1.01,1.52,1.82-3.58-.89-6.23-1.95-9.72.06-1.23.71-5.32,3.6-5.75,4.87-.21.6.36.36.62.42,5.81,1.39,11.81-.15,17.64.56.39.42-2.3.81-2.67.84-4.64.39-9.3.31-13.95.57-.98.05-3.8.24-4.51.62s-2.22,2.24-3.15,2.98c-1.12.89-2.5,1.48-3.5,2.3-3.27,2.68-6.85,7.94-10.41,11.24-.24.22-1.46,1.33-1.64,1.13l7.23-10.12c3.81-4.32,7.35-8.52,10.23-13.68.65-1.16,1.35-3.62,2.07-4.46.64-.76,3.54-1.9,4.55-2.55,3.78-2.45,3.12-3.8-1.24-3.62,1.82-2.25,7.13-1.33,8.25-4.09.76-1.86-2.42-2.23-3.18-3.08,2.61.14,4.54.58,6.98-.84.46-.27,3.1-2.52,3.34-2.9.79-1.19.88-5.02,2.29-5.49.7-.23,1.28.22,1.91.16,2.69-.26,5.44-1.6,8.31-1.05.13.87-.22.44-.62.56-.98.31-2.85.57-3.62,1.04-.46.28-1.11,1.36-1.84,1.63,0,.14,1.75,1.62,2.01,1.7.23.08,2.77.69,2.92.7.89.03,2.58-.56,3.36-1.09,1.03-.69,2.17-2.79,2.62-3.02.57-.28.97.12,1.52.02,2.83-.52,4.85-3.37,4.28-6.59-2.5-1.14-5.72-1.26-7.33-3.97,5.22,1.55,12.08.4,8.18-7.25-.23-.46-.77-.59-.83-.83-.23-.91.28-2.46-.13-3.45-.29-.71-1.68-1.21-2.16-1.82s-.53-1.51-1.01-2.26c-.79-1.23-2.3-1.9-3.43-2.66l-.62,1.28c-3.36.28-5.32-3.76-8.51-3.83-.69-.02-2.4.03-3.02.1-.3.03-4.41,2.05-4.47,2.31-.11.56.79.9,1.16.96,1.25.22,7.56-.32,7.97.3.02.16-.14.36-.25.42-.47.26-3.27.69-3.92.71-3.63.13-8.89-1.79-10.79,3.08.75.39,1.65.14,2.35.35.36.11.64.57,1.13.71,1.38.39,3.14.11,4.34.53.39.13.91.32.8.94-4.66.57-9.79.13-13.95,2.95,0,.67,5.18,1.48,5.96,1.54,5.5.44,12.22.43,17.77.3.54-.01,3.66-.87,3.41.4-.07.35-3.25,1.07-3.77,1.11-1.19.09-2.59-.39-3.71-.41-4.58-.09-8.27.47-12.69.87-2.68.24-9.43-1.86-10.12,2.3-.05.27-.22.42.08.65,2.59.28,5.19.74,7.75,1.27.42.09.44-.19.38.55h-6.72c-.1,0-1.61.81-1.9.98.49.19,1.13.37,1.65.42,6.94.61,14.11-.65,20.8,0,.27.03,2.53.56,1.9,1.12-3.73.36-7.61-.48-11.3-.29-4.92.25-10.59.62-15.46,1.14-1.57.17-4.59.99-4.69,3.09,2.84.33,5.95,1.44,8.76,1.69,2.73.24,5.75-.58,8.24.99-.33.5-.57.64-1.13.72-3.88.57-8.16-.93-12.17.01-1.1.26-1.92.95-2.98,1.19-1.88.43-5.13-.39-5.51,2.52.42,1.81,6.57,1.63,8.27,2.66.3.18.43,0,.32.63-4.92.28-8.53-2.91-12.43,2.11-.29.37-1.85,2.9-1.93,3.23-.19.83,1.31,1.41,1.8,1.41h11.29l-.15.87-16.86.66c-1.1.2-1.67,3.05-1.47,3.89.32,1.39,2.18,1.33,3.14,1.33h9.77-.03ZM98.39,201.64c-.32.37-.55,1.77-.29,2.28.34.67,1.97,1.46,2.66,1.57,4.05.68,9.28-.02,13.44.31,1.13-.28,7.78-.7,8.23,0-.24,1.65-2.84.58-3.92.55-4.48-.15-10.06-.32-14.48,0-.99.07-2.16.35-3.14.6-1.22,2.03,5.33,4.03,6.7,3.91,1.21-.1,2.73-.96,4.01-.57.14.04,1.33,1.71,2.34,1.68.93-.02.62-1.84,2.88-.67,2.25,1.17,3.26,2.19,6.19,1.46.87-.22,1.22-1.35,2.17-1.48,1.1-.15,3.02.55,4.48.41s6.33-1.14,7.24-2.1c.27-.29.59-.5.5-.99l-1.97-.78-3.61-.63c2.55-1.11,4.94.1,7.62-.41.81-.15,3.07-1.03,3.41-1.85,1.27-3.06-5.43-3.11-6.97-2.53.1-.56.52-.48.89-.56,1.68-.36,3.4-.35,5.08-.55.37-.04.66-.04.87-.44.11-.66.02-.52-.31-.79-.97-.8-2.19-1.03-3.08-1.64-1.07-.73-1.28-1.68-2.81-2.22-2.58-.91-4.13-.53-6.62-.53-.87,0-1.66-.4-2.53-.31-.68.07-1.14.58-1.77.59-.69,0-1.33-.57-2.04-.59-.55-.01-1.06.34-1.51.3-.59-.06-1.26-1.04-2.29-1.14-.8-.07-1.34.26-2.03.3-.48.03-.92-.4-1.46-.24-.57.16-1.3,1.45-1.67,1.5-1.21.18-3.32-1.45-4.99-1.29-.95.09-2.2,1.81-3.35,1.94-.63.07-1.26-.43-1.97-.51-1.84-.2-4.67.83-4.84,3.11,2.2,1.34,4.74.86,7.1,1.37l.15.87c-1.3-.22-7.66-.68-8.31.06h0ZM154.4,202.13h5.71c.09,0,.41-.29.59-.33v-1.04c-.33-.6-6.36-.54-6.3,1.37ZM188.65,297.16c-2.19.08-4.32.52-6.47.84-1.21.18-2.65-.55-3.34.99.09.71.47.87,1.08.96,1.32.19,7.47-1.04,8.36-1.94.26-.26.46-.41.38-.85h0Z"/>
          <path class="cls-1" d="M183.45,27.12c-1.97.2-8.65,3.26-10.45,4.45-1,.66-4.22,3.58-4.37,4.72-.08.61.82.79,1.18.87,1.3.31,4.22.65,5.53.65,1.44,0,4.2-1.1,5.33-.3.22.15.52.48.12.72-2.39.37-4.85-.02-7.25.13-1,.06-2.04.45-3.04.57-1.34.16-3.56-.45-4.55.86-1.37,1.81.45,2.64,1.78,3.07,3.69,1.17,10.63,1.92,14.46,1.72.32-.02,3.69-.95,2.9.27-.91.15-2.04.51-2.93.58-4.6.31-9.58-.66-14.17.01-.43.06-3.8,1.09-3.96,1.24-.17.16-.27.31-.27.57,0,1.19.79,1.73,1.73,2.03,1.65.53,5.46,1.01,7.29,1.2,1.67.17,3.31-.06,4.81,0,4.39.16,8.79.59,13.17.09l.92.9-15.1.13c-3.3.92-6.74.19-10.02,1.27-1.33.44-2.26,1.07-1.02,2.55.16.19,2.63,2.19,2.79,2.25,5.68,2.18,12.41,1.01,18.16,1.24,3.31.13,6.61.87,9.89,1.13,6.92.56,13.89.15,20.8.85,1.82.18,1.42,1.09-.26,1.15-3.06.11-6.55-.62-9.9-.6-7.11.04-14.18.07-21.3.58-4.01.29-8.05.73-12.05,1.12,1.07,1.24,2.98,1.64,4.38,2.31,1.73.84,3.04,1.25,4.83,1.96,2.62,1.05,4.44.18,6.9.2,1.07,0,2.48.61,3.55.61,3.07,0,6.25-.53,9.37,0,.4.07,1.46.46,1.03,1.11-.36.55-5.99.21-7.1.28-2.72.16-5.63.33-8.39.55-.81.06-4.88.76-3.01,2.23.59.46,5.16,1.88,6.06,2,5.34.71,11.71-.11,17.26,0,.6.01,1.15.29,1.76.3,1.33.04,9.1-.24,9.52.27.07.73-.36.79-.88.85-5.46.72-12.2-.63-17.77-.01-2.18.24-4.37,1.86-6.72,1.41-.11.74.11.5.55.64,1.07.35,3.46,1.03,4.51,1.2,5.73.92,11.59,1.18,17.39,1.22,1.71.01,4,.76,5.83.88,2.55.16,5.36-.26,7.87,0,5.87.59,11.55,1.49,17.52,1.7,4.14.14,8.26.92,12.41,1.12,4.71.23,9.42-.82,14.09,0,.64.78-2.1,1.11-2.4,1.13-6.78.59-14.65-.13-21.59-.02-5.69.09-11.53.52-17.23.59-6.09.07-12.18-.89-18.14.85l.02.79c.96.34,1.86.9,2.81,1.24,2.39.83,6.77,1.88,9.24,2.13,4.02.41,8.46-.23,12.53.04.08.54-.2.75-.63.84-2.02.41-5.58-.11-7.86,0-1.66.08-3.67.32-5.32.57-.36.06-.75-.26-.64.4,1.1,1.01,2.12,2.22,3.32,3.07,3.8,2.71,8.75,4.87,12.58,7.43.24.16,1.73,1.04,1.35,1.45-2.12-1.07-4.36-1.79-6.51-2.76-2.71-1.22-5.72-3.15-8.39-4.2-1.44-.57-2.94-.67-4.38-1.33-2.44-1.12-5.01-3.03-7.81-3.45-.83-.13-1.38.24-2.1.11-1.16-.2-3.66-2.45-5.14-3.04-3.73-1.49-11.9-3.6-15.78-3.62-.98,0-1.85.39-2.79.31-1.08-.09-2.3-.82-3.55-.87-1.38-.06-2.3.49-3.55.58s-2.29-.32-3.3-.3c-.66.01-3.95,1.13-3.94,1.84,2.54,2.21,6.38,1.01,9.51,1.27.53.04,4.04.67,4.19.84.53.6-1.17.81-1.4.84-2.18.23-4.64-.14-6.86,0-1.51.09-3.02.68-4.57.54l-.62.46c.39.41.72.9,1.18,1.22,3.61,2.47,15.25,1.75,19.74,1.72,3.22-.02,6.33.21,9.52.58-1.08,1.21-3.24.84-4.69.84-7.2-.03-14.81-.42-22.04.32-.42.04-2.16.3-2.18.66,2.22,2.56.5,5.3,4.06,6.74,3.22,1.31,6.31.69,9.5.7,2.64,0,5.16.16,7.75.3.13.65-.07.45-.32.63-1.63,1.16-4.84-.19-6.92-.08-1.68.09-4.88.55-6.56.88-.54.1-1.95.5-1.94,1.24-.01.47.53.69.64,1,2.07,6.01,6.57,9.16,11.93,11.24.28.11,3.94.99,3.43,1.39-7.12-.45-13.76-4.52-18.53-10.25-.96-1.15-1.73-2.67-2.65-3.81-1.14-1.41-3.18-3.04-4.11-4.3-1.47-1.98-4.41-8.47-6.86-9.13-2.54-.69-1.49-.45-3.44-1.81-4.59-3.21-8.61-3.22-13.69-4.23-1.12-.22-2.32-.97-3.37-1.06-2.89-.26-6.82.85-9.88.57-1.36-.13-2.94-1.07-4.28-.22-.39.25-.29.8-.79.82-.76.02-2.09-.8-3.11-.78-2.56.07-3.37.13-6.04-.09-3.63-.3-9.48.46-13,1.34-.63.16-1.33-.06-1.92.12-.96.3-.8,2.05-2.34,1.94-.62-.04-.86-2.18-1.39-2.98-1.61-2.39-5.27-1.05-7.47-.97-3.46.12-7.51-.21-10.9.3-.35.05-2.38.71-1.92,1.38l2.83,1.23,5.8,1.02c-1.59.54-3.33-.23-4.93-.29-4.54-.18-11.06-.42-15.28,1.37-1.01.43-1.73.85-1.86,2.16l7.49.93c1.97-.14,4.94-.56,6.85-.23.36.06.88.4.38.71-.6.37-3.01.06-3.94.14-1.1.09-2.78.58-3.81.56-1.19-.02-2.43-.6-3.81-.58-4.59.08-9.96,2.4-13.55,5.52-1.45,1.25-2.41,3.06-3.82,4.34l5.45-8.44c1.87-2.57,4.74-3.32,6.86-5.61,1.3-1.4,2.11-3.27,3.2-4.89.42-.62,1.35-1.21,1.7-2.05,1.5-3.6-2.35-4.67-4.78-4.6.1-.49.45-.56.85-.55.18,0,3.11.7,2.7-.43-3.5-3.35-8.37-3.55-12.82-3.25-3.34.22-6.68,1.79-9.75,3.25-2.67,1.27-5.11,3.02-7.87,4.07.07-.36.42-.6.67-.8,6.21-4.69,12.83-8.68,19.8-11.79,1.59-.71,4.71-.82,4.88-3.14-1.97-.94-4.26-.77-6.27-1.63-.32-.13-.75-.17-.82-.64,3.2.85,5.96-.45,9.04-1.09,2.45-.51,2.9-.09,5.34-1.67,3.11-2.01,2.49-3.34,4.29-5.94.89-1.28,2.27-1.06,2.59-3.03.46-2.87-2.11-7.45-1.97-8.07.03-.15.37-.52.59-.4,2.31,1.22,4.03,4.99,7.01,2.61.93-.75.27-1.69.65-2.65.23-.57,1.6-1.56,2.01-2.27.58-.98,1.36-3.45,1.32-4.59-.03-.75-1.24-3.57-.15-3.42.78.11,1.17,2.99,1.77,3.8.93-.8,1.25-1.67,1-2.92-1.38-6.92-5.06-12.49-8.16-18.53l-4.77-7.79c2.86,2.58,5.02,5.98,7.6,8.86.8.89,2.68,3.19,3.58,3.63,2.38,1.16,6.13.06,8.48,1.28.18.53-.46.55-.75.58-1.9.21-3.69-.62-5.44.01-.84,1.39,3.64,3.92,4.55,4.33,3.95,1.76,7.51,2.88,11.74,1.77.8-.21,1.13-1.13,1.63-1.29.88-.28,2.05.21,2.88-.75,1.91-2.2-.84-5.45-1.79-7.46.44-.4,3.4,2.07,4.06,2.38,2.96,1.4,6.25,1.43,9.38.99.09.85-.92.95-1.46,1.05-.94.17-5.42.3-5.66.48-.44.33-.22,1.05-.05,1.49.6,1.52,3.42,1.91,4.76,1.76.41-.04,3.38-.85,3.67-.99.98-.48,1.95-2.62,2.54-3.37.32-.41.9-.62,1.29-1.1,1.78-2.25,1.24-3.94,2.23-6.25.44-1.03,3.52-6.78,4.1-7.55,1.47-1.97,5.41-3.64,7.61-4.35.14.75-.17.48-.5.7-2.6,1.69-3.79,1.75-5.46,4.92-1.16,2.2-2.8,8.38-1.37,10.52.64.96,1.59.19,2.35.27,3.89.39,6.7,1.38,10.96,1.32.94-.01,2.38-.88,2.65.83-1.29.68-2.46.03-3.67,0-3.86-.11-7.92.07-11.51,1.75l-.42,3.08c.13.67,1.33,1.54,1.9,1.8,2.07.96,7.33,2.37,9.52,2.41.66.01,1.3-.36,2.03-.33,1.84.07,3.79.57,5.71.31-.15.52-.73.75-1.16.83-1.58.26-4.13-.45-5.82-.27l-6.47,1.41c.22.6.57,1.13,1,1.55,2.52,2.45,2.86,1.94,5.86,2.51,2.22.42,2.65,1.84,5.38,1.49,3.51-.46,3.82-1.63,6.29-3.42,1.31-.95,2.63-1.47,3.91-2.7,1.29-1.24,1.97-3.02,3.63-3.57,4.35-.34,9.53-2.74,13.72-3.01.98-.06,2.89.26,3.98.41.46.06.41-.11.38.56h-4.19ZM80.06,71.83c-.07.75,0,.45.38.55,1.51.4,4.29.83,5.9,1.05,3.71.52,7.43.76,11.08.92,1.61.07,4.3,1.89,5.66.49.73-.74.63-4.18,2.21-3.88.18.03,1.02,2.45,1.9,3.26,2.53,2.31,3.37,1.14,5.97,1.23,1.2.04,2.16.63,3.56.6,1.68-.04,3.65-.66,5.33-.85,1.21-.14,2.7.38,3.7-.4.26-.36.38-3.21.34-3.86-.08-1.19-.55-1.85-.75-2.76-.08-.38-.14-1.15.26-1.12.23.02,1.61,3.39,2.8,3.64.81.17,1.9-.09,2.78,0,1.13.13,2.43.51,3.54.57,3.9.22,7.86-.91,11.55.27l-16.83.88-.42.65c.37,1.82,1.81,2.08,3.24,2.33,3.51.59,6.06-.57,9.58-.49.76.01,1.46.41,2.28.31.91-.11,1.51-1.15,2.03-1.15.37,0,.89.74,1.39.99,2.06,1.04,5.31-.72,7.61-.43l-1.01-1.68c.56-.46,3.27,1.51,3.99,1.64.33.06.76-.02.83-.38.04-.2-1.66-3.11-1.92-3.49-1.82-2.6-5.07-4.01-7.97-4.25-.06-.49.58-.27.89-.28,2.07-.07,4.42.56,6.35,1.4.81-.61-.5-.97-.9-1.54-.64-.92-.95-2.37-1.9-3.24s-5.67-3.31-6.99-3.78c-2.79-1-5.85-1.25-8.61-2.4-.05-.52.53-.23.81-.2.87.11,1.73.44,2.6.49,1.6.1,9.05.76,6.24-2.69-.93-1.14-2.67-1.72-3.8-2.54-5.38-3.88-6.97-4.57-13.23-6.15-1.82-.46-3.71-1.96-5.17-2.43-1.67-.53-8.73-.06-10.61.36-2.46.56-3.19,1.92-4.93,3.54-2.62-1.95-4.19-2.57-7.24-1.27-2.18.93-1.53,1.43-2.52,3.11-.59.99-1.76,1.59-1.97,2.83.1.48,1.41.91,1.85,1.05,5.81,1.91,12.13,1.14,18.05,1.34,2.63.09,5.5.08,8.11.31.35.03,3.23.65,1.75,1.08-1.84.53-6.63-.19-8.86-.25-3.62-.1-7.23-.08-10.89.02-5.12.14-12.12-.34-16.68,2.32-.45.26-2.1,1.35-2.2,1.79l.99,1.78c-.89.23-2.29-1.21-2.79.15-.2.56.66.52.97.6,9.26,2.54,18.76-.25,27.46,1.63.38.08,1.41.24,1.51.72-2.03.79-3.98-.2-5.95-.29-6.29-.3-12.79-.03-19.04.29-2.14.11-4.74-.06-6.83.3-.5.09-2.6,1.48-3.39,1.88-.36.18-.69-.16-.55.64,2.99-.73,5.57.72,8.5,1.12,2.59.35,5.32-.02,7.84.31.2.03,1.35.28.91.81s-6.3.2-7.49.27c-3.82.23-7.63,1.07-11.28,2.27h0ZM171.44,67.98c.29,1.22,2.01,1.12,2.76,1.45,1.18.51,2.53,2.29,4.13,1.79.24-.08.89-.75.93-.98.11-.71-2.88-2-3.52-2.22-.38-.13-3.52-.97-3.71-.97-.47,0-.71.4-.58.93h0ZM174.7,76.61c-.86,1.16,3.17,1.6,3.87,1.76,1.86.41,4.67,1.36,6.43,1.58,2.27.28,5.63-1.07,2.56-2.83-1.29-.75-8.56-1.22-10.21-1.08-.94.08-1.74.48-2.66.58h0Z"/>
          <path class="cls-1" d="M109.26,101.64c-1.79.94-1.74,2.22-4.21,2.09-.29-.01-.7.18-.63-.28l.77-.41,2.27-2.68c-1.64.26-3.22,1.89-4.75,2.18-1.05.2-2.79-.33-3.19-.19-.54.19-.48,1.08-.74,1.31-.26.23-2.06.66-2.7,1.09-.97.63-1.13,1.49-2.25,1.73-.17.03-.34.06-.53.08-.08.12-.17.24-.25.37-.25.39-.51.81-.92.98-.25.11-.53.1-.8.13-1.27.15-2.45,1.14-3.7.87-.04,0-.09-.02-.13-.03.65.5,1.69,1.57,1.69,2.03,0,1.04-2.75,1.94-3.55,2.26l-3.56.69c1.14.56,2.45.4,3.56.69,1.09.29,1.44,1.02,2.27,1.43.7.35,1.99.04,2.25.88.4,1.32-1.58,4.18-2.52,4.99-2.33,2-3.87,1.3-6.58,1.01.44.66,1.55.73,2.22,1.04.31.14.27.58.49.64.79.2,1.79.33,2.61.57v.28c-1.22.15-.28,2.35-.75,3.18-1.06,1.87-4.28,1.03-5.71,1.03-2.2,0-4.37.51-6.58.26-3.24-.37-7.13-2.23-9.67-4.46-.19-.04-.17.29-.12.42.52,1.32,7.24,5.27,8.7,5.83,4.59,1.73,10.01,1.14,14.22,4.49,2.05,1.63.58,3.87-1.35,4.45.25,1.74,3.01.48,3.89-.05,1.75-1.07,2.48-3.93,3.84-5.02.12-.1,2.46-1.33,2.75-1.45,3.75-1.57,5.21-.18,8.4-.51.67-.07,1.24-.74,2.29-.85.5-.06,2.95-.07,3.2.13l.62,1.85c2.38-2.4,4.63-1.43,7.34-1.39,1.14.02,2.55-.47,3.51-.24,2.22.53.53,3.54,1.07,3.6.99.09,1.18-1.11,1.81-1.65,1.73-1.49,5.44-1.87,7.57-1.72,2.35.17,3.08.13,5.33.05,1.62-.05,3.86,1.04,5.34,1.08,1.66.05,3-1.23,5.05-.84.36.07,3.11,1.36,3.61,1.62,1.69.89,3.18,1.74,4.01,3.7.85-1.01.22-2.69-.08-3.85l.34-.64c2.41.67,4.1,2.4,5.58,4.49.71.11.2-.86.5-1.41.44-.8,6.54-1.75,7.63-1.69,1.52.07,3.06.72,4.56.85,7.13.63,14.2,1.49,21.31,1.68,1.77.04,3.98.74,5.83.85,1.3.08,2.63-.05,3.93,0,.13-.8-.19-.46-.55-.64-2.29-1.16-6.28-.94-8.94-1.35-3.67-.56-6.47-1.74-9.93-2.77-4.05-1.21-5.67-.84-9.58-3.17-1.83-1.09-3.83-.96-5.77-1.48-.31-.09-2.29-.55-1.52-1.14,1-.77,3.86-.31,5.2-.42,2.01-.17,4.41-.8,6.34-.85,2.64-.08,10.44,1.95,12.32.44.82-.66-1.36-.97-1.64-1-2.19-.21-4.63.18-6.86,0-1.58-.12-3.47-.82-5.07-.85-3.85-.08-7.68.36-11.65-.01-2.43-.23-4.67-1.1-6.37-3.06l.26-.56h5.07c.14,0,1.13-.48,1.14-.84-2.11.51-4.08-.63-5.96-.85-1.24-.14-2.91.24-4.06,0-.76-.16-1.79-1.88-2.79-1.97l1.08,3.87c-.03,2.7-1.62,1.57-3.09,1.77-1.92.27-3.55,1.7-5.8,1.32-.76-.13-1.55-.77-2.35-.79-.84-.02-1.28.54-2.02.6-1.02.09-1.7-.57-2.54-.6-.91-.03-1.55.42-2.72.23-.47-.08-3.34-1.16-3.48-1.48-.27-.62,2.13-1.26,2.41-1.26h6.47c.12-.86-.2-.45-.62-.57-2.63-.76-5.78.02-8.53-.96-1.07-.38-1.65-1.93-.88-2.97.22-.22,5.26-1.39,5.84-1.42,2.91-.13,6.67,2.08,9.01-.26l-12.3-.29c-.49-.05-.97-.21-1.44-.37-.21-.07-.93-.11-.59-.48.4-.34.85-.61,1.34-.76,3.21-.99,9.41-.77,12.88-.66.93.03,1.75.45,2.79.29.35-.05.75-.15.38-.56-2.25-1.12-4.64-.23-6.99-.27-3.12-.06-6.52-.39-9.62-.58-1.24-.07-4.98-.86-5.96-1.56-.46-.33-.84-.99-1.28-1.39.12-.14.23-.32.41-.38.86-.28,3.75-.56,4.77-.61,1.94-.1,3.81.32,5.72,0-.28-.69-1.47-.79-2.15-.85-2.97-.28-10.24.51-12.32-2.38-.87-1.21.16-2.32-.76-2.83-.75-.42-1.6,1.29-2.46,1.5-2.04.51-3.84.03-5.11-1.81-.51-.75-.28-1.72-1.46-1.78-.99-.05-1.18.58-1.95.9-.47.2-1.02.16-1.44.38h0ZM117.76,114.67c1.72.3,2.79-.49,3.66,1.99l-3.81,1.41c1.29.17,2.96-.22,4.19,0,1.65.3,2.65,2.08,2.91,3.78-.33.62-1.01.33-1.5.6-2.07,1.12-4.89,2.21-7.28,2.36-1.28.08-2.97-.85-4.28-.85-1.34,0-2.98.94-4.34,1.12-2.33.29-3.5-.44-5.59-.78-1.66-.27-4.59.26-5.42-1.72.29-.33,4.82-.47,5.68-.6,2.99-.47,6.13-1.67,9.16-1.67.84,0,1.5.26,2.28.31.28.02.96.18.9-.29-1.88-.28-3.83-.74-5.73-.82-2.24-.1-4.57.41-6.81.55-.74.04-3.76.12-4.2-.15-.44-.37-.09-.41.13-.71,1.84-2.59,1.98-1.55,4.32-1.67,1.2-.06,2.36-.73,3.55-.85,1.42-.15,3,.11,4.44,0,.4-.34,0-.51-.38-.56-1.78-.23-6.97.03-7.99-.99-.24-.24-.44-.4-.13-.71.95-.61,1.18-1.71,2.31-2.21,1.82-.81,5.08-.28,6.94.4,2.71.99,4.05,1.56,7.01,2.07h0ZM118.63,112.02c-.82.95-3.7,1.04-4.06-.42l4.06.42Z"/>
          <path class="cls-1" d="M70.93,146.46c-.06-.53.5-.2.77-.15,2.68.47,4.76.44,7.47.44,1.76,0,3.46.27,5.26-.64.81-.41,1.37-1.67,2.13-2.14,1.48-.91,2.71-.73,4.27-2.29,1.35-1.36,1.55-1.6,3.05-2.8,1.39-1.1,3.52-5.85,2.95-.16l.22.3c3.77,1.81,6.95-1.86,9.27-4.63.57-.33.46,1.61.89,2.11.1.12,1.82,1.08,2.02,1.14,1.4.4,2.33-.63,3.67-.73l1.54,1.43c1.72.18,3.74-4.28,4.92-2.38.86,1.37.48,2.38,2.69,2.64,3.82.45,4.21-1.56,6.71-2.4,2.03-.69,2.41.55,3.81,1.14,3.37,1.41,4.01.55,7.23.4,1.29-.06,9.98-.16,10.29.3-.64,1.55-2.35.6-3.44.63-3,.07-5.34.66-8.11,1.89-.29.13-.48-.22-.38.56,1.23.03,3.02,1.84,3.96,1.97.75.1,1.45-.33,2.25-.29,1.05.05,2.41.73,3.57.85,1.56.15,4.24-.34,5.54.04.31.09.54.37.16.67-.94.75-2.85-.07-3.52,1.44-.27,1.55,4.37,2.8,5.41,2.92,1.94.22,4.08-.63,6.08-.27.95.17,1.92,1.23,3.31,1.39,5.07.61,10.78-.7,15.96.03.48.07,1.08.26,1.42.68-1.4.02-3.1.35-4.44.36-3.49.02-7.13-.53-10.66-.23-1.66.14-2.23.28-4.05.27-2.92-.01-5.18.42-8,1.14.04.43.39.43.65.54,2.24.97,3.9,1.94,6.37,2.16.53.04,1.08-.29,1.72-.18.56.1,1.75,1.61,2.86,1.91,1.5.41,3.19-.15,4.25.06.55.11,1.28,1.18,2.17,1.54,2.63,1.07,8.62,1.29,11.54,1.29,3.53,0,8.24-.31,11.67-.01,6.05.53,12.21,1.27,18.27,1.96,1.37.15,2.89.09,4.31.29.35.05.81.2.38.56-2.83-.06-5.68.08-8.51.01-8.58-.2-16.76-.97-25.36-.3-3.35.26-6.03.65-9.37.55-3.01-.09-5.56.22-8.4.3-.75.02-1.34-.35-2.24-.27-.59.05-2.19.67-2.44,1.24-.21.47.29.44.49.56,2.1,1.23,4.26.73,6.45,1.01.89.12,1.78.69,2.59.79,6.1.79,12.23.58,18.37.58l-.51.98-22.96-.44c-3.64.31-6.82,1.19-10.4,1.15-1.72-.02-2.71.05-4.05,1.41-.25.26-.86.64-.39.98l6.47,1.26c6.3-.11,12.5,1.27,18.78,1.14.85-.02,1.55-.37,2.52-.3,1.22.09,1.71.63.38,1.27-1.41.68-5.21.2-6.97.14-4.68-.16-9.52-.49-14.2-.57-4.35-.07-15.08,1.64-18.84,3.89-.8.48-1.24,1.59-2.36,1.47-.07.74.01.44.37.57,2.68.89,5.29,1.87,8.11,1.1l2.17.29c-5.47.03-10.8,1.95-16.29.77-1.92-.41-3.99-1.68-5.91-1.89-2.51-.28-9.23-.34-11.3.97-.83.52-.88,1.15-1.62,1.55-1.09-.08-1.7-1.15-2.62-1.61-1.77-.88-3.99-.55-5.95-1-2.74-.62-6.04-1.84-8.95-1.61-.75.06-1.43.44-2.16.57,1.54,1.32,4.19,1.12,6.14,1.48,1.21.22,2.59.87,3.65,1.02.35.05,4.16-.26,3.4.86-.63.15-1.24.42-1.87.6-3.35.94-6.69.07-10.3,1.23-1.19.38-3.37,1.82-4.42,1.8-1.5-.03-2.93-2.02-4.37-2.75-1.95-.98-5.97-1.22-8.07-.86-.84.14-3.19,1.99-4.29,2.56-4.22,2.2-8.88,4.13-13.62,3.88l4.32-.98c3.37-.97,7.33-3.31,10.02-5.77,1.14-1.04,2.12-2.79,3.6-3.6,1.85-1.02,4.11-.64,5.8-2.02.25-4.28-5.15-5.61-8.15-5.64-.6,0-1.58.73-1.38-.27,2.83-.48,6.99-.16,9.69.92,1.96.79,4.71,3.8,7.05,4.41-.7-1.75-2.67-2.11-3.68-3.08-2.13-2.06-1.86-1.79-4.27-3.42-2.6-1.76-4.87-4.75-8.16-4.45-.72.07-1.39.46-2.06.53-2.06.21-4.13.21-6.19.59l4.23-1.92c4.64-3.19-.8-5.3-3.67-5.87-5.2-1.03-9.46-1.16-14.65-1.18-2.3,0-4.99-.84-7.23-1.43-.06-.51.54-.24.82-.2,7.57,1.12,10.41-.59,17.35-1.73,3.32-.55,7.04-.33,10.25-1.86.89-.42,1.44-1.64,2.1-1.9.71-.28,2.01.52,2.71-.91-.65-.76-1.71-.3-2.6-.49-1.75-.37-3.76-1.42-5.51-1.9h0ZM97.57,155.18c-1.81.14-3.64-.07-5.46,0-1.47.05-3.3-.06-4.68.44-.64.23-1.44.75-1.92,1.26-.84,1.74,4.15,2.45,5.09,2.53,5.72.49,12.24-.48,18.02-.01.49.04.92.16,1.38.3l-.11.85c-.54.82-8.38-.11-9.92-.03s-3.09.54-4.82.58-4.17-.85-5.41,1.01l.99,1.64c3.5,1.57,7.66-.11,11.41.43.15.85-1.03.77-1.61,1.17-2.17,1.47-.18,2.37,1.47,2.5,2.11.17,4.34-.66,6.48-.29l-4.82,1.12c-.06.75,0,.45.38.56,1.32.35,3.46.73,4.76.5,1.15-.2,2.58-1.09,3.87-1.06,1.62.03,2.79,1.75,5.8,1.38,1.71-.21,4.11-1.61,3.07-3.91-.32-.73-3.11-2.26-3.68-3.09,1.89-.11,3.41,1.54,4.94,2.25,3.37,1.58,7.49.83,11.04.84l-7.59,2.13c-2.33,1.5,3,1.63,3.89,1.5,1.22-.17,2.69-1.06,3.89-1.32,1.59-.34,3.1.1,4.72-.95.62-.4,1.36-1.72,1.87-1.88.65-.21,1.15.24,1.72.24,1.05,0,2.95-1.28,3.17-2.53-2.89-.66-5.86-.97-8.76-1.52-.29-.05-.56.02-.62-.45,3.29-.79,6.65-.03,9.99-.6.62-.1,3.33-.91,3.45-1.54-.63-1.74-2.84-3.54-4.51-3.72-.59-.06-1.05.29-1.58.12-.68-.22-1.42-1.48-2.04-1.98-1.52-1.23-4.37-2.95-6.22-3.23-1.1-.16-2.32.26-3.16.13-.72-.11-1.42-.86-2.16-.99-1.07-.19-2,.37-2.75.26s-1.97-1-3.06-1.12c-2.88-.34-3.99,1.43-6.09,1.43-2.47,0-6.31-3.32-8.69-2.07-.53.28-.59,1.15-1.2,1.21-.91.1-4.83-2.06-5.42.18-.47,1.79,2.15,1.63,3.03,1.89.73.22,1.29.83,2.06,1.1,2.4.83,9.01.15,12.02.2,3.36.06,10.43-.02,13.45.82.43.12.74-.28.62.57-1.68.12-3.56-.58-5.2-.59-5.92,0-12.08.8-18.02.32-.87-.07-1.57-.57-2.28-.59-.67-.02-1.31.39-2.02.32-.89-.08-2.84-1.69-4.12-1.93-.84-.16-2.66-.19-3.5-.07-.77.1-1.26.67-1.76.72-.59.06-1.43-.37-2.04-.37-.96,0-2.7.41-3.4,1.23-.4,1.47,3.06.91,3.84,1.32l2.23.76h0Z"/>
          <path class="cls-1" d="M165.69,98.26c1.1.18.61,1.12-.31,1.34-2.96.73-7.37-1.6-9.96,1.05,0,.21,2.46,2.55,2.8,2.79,3.82,2.77,9.18,1.24,13.43,2.13-.15.52-.72.75-1.16.82-2.88.51-5.42-.61-8.48.73-.29.13-1.19.35-1.02.83.1.28,1.07,1.14,1.37,1.57.38.55.66,1.65,1.08,1.89,4.49,1.41,9.12,2.11,13.78,2.31.64.56-1.68,1.06-1.93,1.09-2.8.31-10.23-.16-12.93-1.08-.39-.13-5.23-3.26-5.46-3.51-.65-.72-.87-2.17-1.51-3.11-1.17-1.73-4.27-3.99-6.02-4.86-.39-.2-.7-.78-1.01-.86-1.2-.32-2.22.65-2.12,2.06.02.3,1.04,2.8.15,2.39-1-.54-1.74-3.71-2.23-4.14-.25-.22-5.62-2.01-6.16-2.04-2.26-.14-2.08,1.63-4.05,1.42-1.52-.16-2.75-1.66-3.86-1.92-.53-.12-2.96-.39-3.46-.33-.57.06-1.1.48-1.67.57l.49,3.08c-1.24.32-1.39-1.24-2.45-1.93-2.41-1.57-4.83-1.06-7.26-1.51-1.94-.36-3.07-2.29-5.44-1.12-.44.22-.77.91-1.21.91-.29,0-2.01-1.86-3.76-1.88-.78,0-5.99.95-6.7,1.24-1.58.64-2.03,2.49-3.28,3.39-2.9,2.09-4.77,1.77-7.8,2.33-2.92.53-5.68,1.88-8.78,1.37l5.21-1.39c2.57-1.15,6.34-3.38,6.22-6.91-.03-1.04-.59-1.8-.03-2.82.52-.94,1.5-.58,2.31-.81,1.86-.54,4.15-1.06,4.56-3.53h.37c1.79,2.55,5.01,2.27,7.62,2.81,3.21-1.13,5.53-2.87,9.12-2.24.63.11,1.07.65,1.6.77,1.82.41,4.29-3.05,5.65-2.33.28.15.51.69.95.92,2.21,1.19,8.19,2.61,10.58,2.29,1.66-.22,4.2-1.41,5.86-1.41,1.66,0,3.01,1.14,5.05.84,1.35-.2,2.76-1.75,4.04-1.39.16.04.55,1.26,1.05,1.71,2.5,2.24,8.02-.34,11.04,1.12.45.66-6.77,2.05-3.44,3.94.3.17,4.58,1.39,4.83,1.39,1.27,0,3.14-.19,4.31,0h0Z"/>
          <path class="cls-1" d="M95.5,103.97c-.81.77-1.55,1.64-2.2,2.58-.08.12-.17.24-.25.37-.25.39-.51.81-.92.98-.25.11-.53.1-.8.13-1.27.15-2.45,1.14-3.7.87-.04,0-.09-.02-.13-.03-.33-.09-.64-.25-.96-.37"/>
        </g>
      </g>
      <g id="uuid-22af4330-ae92-452f-9706-adec27d5efb9" data-name="Layer 1-2">
        <g id="uuid-3d0a16dc-29d5-4861-a4b8-910a53728b59">
          <g class="cls-2">
            <g class="cls-2">
              <g class="cls-2">
                <path class="cls-1" d="M20.04,21.44v18.96c0,.25-.12.38-.38.38H.38c-.12,0-.25-.13-.38-.38v-18.96c0-.12.12-.25.38-.37h19.28c.25,0,.38.12.38.37Z"/>
                <path class="cls-1" d="M205.19,22.18c1.89-4.09,2.9-10.04,2.9-17.85V.37c0-.25-.13-.37-.25-.37h-19.16c-.25.12-.38.25-.38.37v6.69c0,6.81-2.39,11.03-7.18,12.89-2.52.99-6.68,1.49-12.6,1.49H48.78c-.25,0-.38.12-.38.25v18.96c.12.13.25.25.38.25h78.9c10.08,0,15.88,1.86,17.39,5.57,2.27,2.23,3.4,4.96,3.4,8.18v7.31c0,.14.05.25.14.31-.12.04-.19.13-.19.22v6.94c0,6.57-2.65,10.79-7.81,12.64-1.64,1.11-7.94,1.73-18.78,1.73h-41.85c-11.34,0-20.29,5.7-26.72,17.23-3.15,6.81-4.67,13.39-4.67,19.83v3.35c0,8.3,2.65,16.36,7.81,24.41,4.03,5.58,9.33,9.3,15.88,11.16,2.65.74,6.55,1.11,11.6,1.11h44.11c9.08,0,14.5,1.48,16.39,4.46,2.65,2.48,4.03,5.7,4.03,9.79v6.82c.12.25.25.37.38.37-.23.01-.34.13-.34.25v6.94c0,6.57-2.65,10.79-7.81,12.64-1.64,1.11-7.94,1.73-18.78,1.73h-41.85c-11.34,0-20.29,5.7-26.72,17.23-3.15,6.81-4.67,13.39-4.67,19.83v3.35c0,8.3,2.65,16.36,7.81,24.41,4.03,5.58,9.33,9.3,15.88,11.16,2.65.74,6.55,1.11,11.6,1.11h44.11c9.08,0,14.5,1.48,16.39,4.46,2.65,2.48,4.03,5.7,4.03,9.8v6.81s.02.04.03.06c-.01.04-.02.08-.02.13v7.31c0,3.22-1.13,5.95-3.4,8.18-1.52,3.72-7.31,5.58-17.39,5.58H48.78c-.13,0-.25.12-.38.25v18.96c0,.13.12.25.38.25h119.74c5.92,0,10.08.5,12.6,1.49,4.79,1.86,7.18,6.07,7.18,12.89v6.69c0,.12.12.25.38.37h19.16c.12,0,.25-.12.25-.37v-3.97c0-7.81-1.01-13.76-2.9-17.85-5.17-12.52-17.52-18.72-36.8-18.72h-3.78c1.64-4.59,2.39-9.67,2.39-15.49v-5.47c.08-.06.12-.16.12-.3v-4.46c0-14.01-4.03-23.67-12.23-29-1.89-1.61-4.79-3.1-8.45-4.34-.88-.25-1.26-.49-1.26-.62,2.39-5.45,3.53-12.14,3.53-20.2v-1.86c0-8.06-1.14-14.88-3.53-20.58h.13c7.94-2.6,13.74-7.06,17.39-13.14,2.9-5.08,4.41-12.02,4.41-20.82v-4.46c0-.13-.13-.25-.38-.25.22-.01.34-.13.34-.37v-4.47c0-14-4.03-23.67-12.23-29-1.89-1.61-4.79-3.1-8.45-4.34-.88-.25-1.26-.49-1.26-.62,2.39-5.45,3.53-12.14,3.53-20.2v-1.86c0-8.06-1.14-14.88-3.53-20.58h.13c7.94-2.6,13.74-7.06,17.39-13.14,2.9-5.08,4.41-12.02,4.41-20.82v-4.46c0-.09-.06-.18-.19-.22.06-.06.11-.17.11-.31v-5.58c0-5.82-.75-10.9-2.39-15.49h3.78c19.29,0,31.64-6.2,36.8-18.72ZM118.17,139.21c-2.9,1.49-5.92,2.23-8.82,2.23h-21.42c-6.56,0-11.98-3.22-16.39-9.79-1.64-3.1-2.52-6.2-2.52-9.05v-.62c0-6.57,3.15-12.02,9.58-16.11,2.9-1.86,6.55-2.73,11.22-2.73h17.9c10.2,0,17.02,4.83,20.17,14.5.38,1.49.5,2.98.63,4.59,0,7.19-3.4,12.89-10.34,16.98ZM118.21,259.31c-2.9,1.49-5.92,2.23-8.82,2.23h-21.42c-6.56,0-11.97-3.22-16.38-9.79-1.64-3.1-2.52-6.2-2.52-9.05v-.62c0-6.57,3.16-12.02,9.58-16.11,2.9-1.86,6.56-2.73,11.22-2.73h17.9c10.21,0,17.02,4.83,20.17,14.5.38,1.49.5,2.98.63,4.59,0,7.19-3.4,12.89-10.34,16.98Z"/>
              </g>
            </g>
            <g class="cls-2">
              <g class="cls-2">
                <path class="cls-1" d="M24.4,99.06v19.09c0,.12-.12.24-.38.24H4.74c-.13,0-.25-.12-.38-.24v-19.09c0-.13.12-.25.38-.25h19.28c.25,0,.38.12.38.25Z"/>
                <path class="cls-1" d="M24.4,126.08v19.09c0,.12-.12.25-.38.25H4.74c-.13,0-.25-.13-.38-.25v-19.09c0-.12.12-.25.38-.25h19.28c.25,0,.38.13.38.25Z"/>
              </g>
            </g>
            <g class="cls-2">
              <g class="cls-2">
                <path class="cls-1" d="M24.44,219.16v19.09c0,.12-.12.24-.38.24H4.78c-.13,0-.25-.12-.38-.24v-19.09c0-.13.12-.25.38-.25h19.28c.25,0,.38.12.38.25Z"/>
                <path class="cls-1" d="M24.44,246.17v19.09c0,.13-.12.25-.38.25H4.78c-.13,0-.25-.12-.38-.25v-19.09c0-.12.12-.24.38-.24h19.28c.25,0,.38.12.38.24Z"/>
              </g>
            </g>
            <g class="cls-2">
              <g class="cls-2">
                <path class="cls-1" d="M20.04,323.82v18.97c0,.25-.12.37-.38.37H.38c-.25-.12-.38-.25-.38-.37v-18.97c.12-.24.25-.37.38-.37h19.28c.25,0,.38.13.38.37Z"/>
              </g>
            </g>
          </g>
        </g>
      </g>
    </g>
  </g>
</svg>