<?xml version="1.0" encoding="UTF-8"?>
<svg id="Layer_2" data-name="Layer 2" xmlns="http://www.w3.org/2000/svg" viewBox="0 0 369.32 657.39">
  <defs>
    <style>
      .cls-1 {
        fill: #fff;
      }

      .cls-2 {
        isolation: isolate;
      }
    </style>
  </defs>
  <g id="Layer_2-2" data-name="Layer 2">
    <g id="Layer_1-2" data-name="Layer 1-2">
      <g id="uuid-3d0a16dc-29d5-4861-a4b8-910a53728b59">
        <g class="cls-2">
          <g class="cls-2">
            <g class="cls-2">
              <path class="cls-1" d="M35.56,38.7v34.22c0,.45-.22.68-.67.68H.67c-.22,0-.45-.23-.67-.68v-34.22c0-.22.22-.45.67-.67h34.22c.45,0,.67.22.67.67Z"/>
              <path class="cls-1" d="M364.17,40.04c3.36-7.38,5.15-18.12,5.15-32.21V.67c0-.45-.23-.67-.45-.67h-34c-.45.22-.67.45-.67.67v12.08c0,12.3-4.25,19.91-12.75,23.26-4.48,1.79-11.86,2.69-22.37,2.69H86.57c-.45,0-.67.22-.67.45v34.22c.22.23.44.45.67.45h140.03c17.89,0,28.18,3.35,30.87,10.06,4.03,4.03,6.04,8.95,6.04,14.77v13.2c0,.26.08.45.24.56-.22.07-.33.23-.33.39v12.52c0,11.86-4.7,19.47-13.87,22.82-2.91,2.01-14.09,3.13-33.33,3.13h-74.27c-20.13,0-36.01,10.29-47.42,31.1-5.59,12.3-8.28,24.16-8.28,35.79v6.04c0,14.98,4.7,29.52,13.87,44.06,7.16,10.07,16.56,16.78,28.19,20.14,4.7,1.34,11.63,2.01,20.58,2.01h78.29c16.11,0,25.73,2.68,29.08,8.05,4.7,4.48,7.16,10.29,7.16,17.67v12.31c.22.45.45.67.67.67-.4.02-.6.23-.6.45v12.52c0,11.86-4.7,19.47-13.87,22.82-2.91,2.01-14.09,3.13-33.33,3.13h-74.27c-20.13,0-36.01,10.29-47.42,31.1-5.59,12.3-8.28,24.16-8.28,35.79v6.04c0,14.98,4.7,29.52,13.87,44.06,7.16,10.07,16.56,16.78,28.19,20.14,4.7,1.34,11.63,2.01,20.58,2.01h78.29c16.11,0,25.73,2.68,29.08,8.05,4.7,4.48,7.16,10.29,7.16,17.68v12.3s.03.07.05.1c-.02.07-.03.15-.03.24v13.2c0,5.82-2.01,10.74-6.04,14.76-2.69,6.71-12.98,10.07-30.87,10.07H86.57c-.23,0-.45.22-.67.45v34.22c0,.23.22.45.67.45h212.51c10.51,0,17.89.9,22.37,2.69,8.5,3.35,12.75,10.96,12.75,23.26v12.08c0,.22.22.45.67.67h34c.22,0,.45-.22.45-.67v-7.16c0-14.09-1.79-24.83-5.15-32.21-9.17-22.59-31.09-33.78-65.32-33.78h-6.71c2.91-8.28,4.25-17.45,4.25-27.96v-9.87c.14-.11.21-.29.21-.54v-8.05c0-25.28-7.16-42.73-21.7-52.35-3.36-2.91-8.5-5.59-14.99-7.83-1.57-.45-2.24-.89-2.24-1.12,4.25-9.84,6.27-21.92,6.27-36.46v-3.35c0-14.54-2.02-26.85-6.27-37.14h.23c14.09-4.69,24.38-12.75,30.87-23.71,5.14-9.17,7.83-21.7,7.83-37.58v-8.05c0-.23-.23-.45-.67-.45.39-.02.6-.24.6-.67v-8.06c0-25.27-7.16-42.72-21.7-52.34-3.36-2.91-8.5-5.59-14.99-7.83-1.57-.45-2.24-.89-2.24-1.12,4.25-9.84,6.27-21.92,6.27-36.46v-3.35c0-14.54-2.02-26.85-6.27-37.14h.23c14.09-4.7,24.38-12.75,30.87-23.71,5.14-9.17,7.83-21.7,7.83-37.58v-8.05c0-.16-.11-.32-.33-.39.11-.11.19-.3.19-.56v-10.07c0-10.51-1.34-19.68-4.25-27.96h6.71c34.23,0,56.15-11.19,65.32-33.78ZM209.73,251.26c-5.14,2.69-10.51,4.03-15.66,4.03h-38.02c-11.64,0-21.26-5.82-29.08-17.67-2.91-5.59-4.48-11.19-4.48-16.33v-1.12c0-11.86,5.59-21.7,17-29.08,5.15-3.36,11.63-4.92,19.91-4.92h31.77c18.11,0,30.2,8.72,35.79,26.17.67,2.69.89,5.37,1.12,8.28,0,12.97-6.04,23.26-18.35,30.64ZM209.8,468.02c-5.14,2.69-10.51,4.03-15.66,4.03h-38.02c-11.64,0-21.25-5.82-29.08-17.67-2.91-5.59-4.48-11.19-4.48-16.33v-1.12c0-11.85,5.6-21.7,17-29.08,5.15-3.35,11.64-4.92,19.91-4.92h31.77c18.12,0,30.2,8.72,35.79,26.17.67,2.69.89,5.37,1.12,8.28,0,12.97-6.04,23.26-18.35,30.64Z"/>
            </g>
          </g>
          <g class="cls-2">
            <g class="cls-2">
              <path class="cls-1" d="M43.3,178.79v34.45c0,.22-.22.44-.67.44H8.41c-.23,0-.45-.22-.67-.44v-34.45c0-.23.22-.45.67-.45h34.22c.45,0,.67.22.67.45Z"/>
              <path class="cls-1" d="M43.3,227.55v34.45c0,.22-.22.45-.67.45H8.41c-.23,0-.45-.23-.67-.45v-34.45c0-.22.22-.45.67-.45h34.22c.45,0,.67.23.67.45Z"/>
            </g>
          </g>
          <g class="cls-2">
            <g class="cls-2">
              <path class="cls-1" d="M43.37,395.55v34.45c0,.22-.22.44-.67.44H8.48c-.23,0-.45-.22-.67-.44v-34.45c0-.23.22-.45.67-.45h34.22c.45,0,.67.22.67.45Z"/>
              <path class="cls-1" d="M43.37,444.31v34.45c0,.23-.22.45-.67.45H8.48c-.23,0-.45-.22-.67-.45v-34.45c0-.22.22-.44.67-.44h34.22c.45,0,.67.22.67.44Z"/>
            </g>
          </g>
          <g class="cls-2">
            <g class="cls-2">
              <path class="cls-1" d="M35.56,584.46v34.23c0,.45-.22.67-.67.67H.67c-.45-.22-.67-.45-.67-.67v-34.23c.22-.44.45-.67.67-.67h34.22c.45,0,.67.23.67.67Z"/>
            </g>
          </g>
        </g>
      </g>
    </g>
  </g>
</svg>